<svg xmlns="http://www.w3.org/2000/svg" xmlns:xlink="http://www.w3.org/1999/xlink" width="84" height="80" viewBox="0 0 84 80">
  <defs>
    <rect id="rect-1" width="84" height="80" x="0" y="0"/>
    <mask id="mask-2" maskContentUnits="userSpaceOnUse" maskUnits="userSpaceOnUse">
      <rect width="84" height="80" x="0" y="0" fill="black"/>
      <use fill="white" xlink:href="#rect-1"/>
    </mask>
  </defs>
  <g>
    <use fill="none" xlink:href="#rect-1"/>
    <g mask="url(#mask-2)">
      <g>
        <rect width="10.97" height="12.603" x="10.132" y="10.219" fill="rgb(47,46,65)" rx="0" ry="0" transform="rotate(-6.717362 15.61736976 16.52095336)"/>
        <ellipse cx="14.888" cy="10.22" fill="rgb(255,182,182)" rx="5.349" ry="6.48"/>
        <path fill="rgb(47,46,65)" fill-rule="evenodd" d="M7.3286438 3.7446289c1.00997925-.94848632.69955444-2.45385742 4.03277588-3.57495117 1.71463012-.57666015 4.59640503.46850586 5.74124145.88378907l.0930481.0336914c.95907593.3466797 1.5342102 1.18408203 2.0996704 2.00756836 1.28356934 1.86914063 1.66671754 3.88574219 1.7795105 4.5913086.2622986 1.64111328.1091919 2.7392578-.01293945 3.61499023-.12612915.90454102-.21920776 1.57202149.2124939 2.3557129.91033936 1.65258788 2.62612915 1.04833984 3.10525513 2.55639648.21807861.6862793-.00256348 1.23510742-.25842285 1.87182617-.25488282.6340332-.54467774 1.35498047-.47039795 2.3852539.09701538 1.34570313.74398803 2.22900391 1.2288208 2.89086914.37329101.50976563.65048217.8881836.5064392 1.24536133-.36740112.91113281-3.09008788.7277832-5.03878784-.89624023-.2628479-.21899414-2.5663147-2.18969727-2.3430481-4.51098633.14318849-1.48876953 1.16217042-1.4206543 1.75653077-3.4807129.41323853-1.43237304.2921753-2.75268554.09890747-4.859375-.13461304-1.46801757-.20193481-2.20214843-.47546387-2.93164062-.131958-.35205078-1.38928222-3.5661621-3.96725463-3.5871582-2.27249146-.01831055-4.17401124 2.45581055-4.15426636 4.28442383.00473022.43652344.1191101.8540039.22540283 1.24169922.15667725.5715332.29574585 1.07910156.0401001 1.48925781-.31640625.50756836-.90737915.33691406-1.06069947.84350586-.14389038.47558594.23931885 1.07983398.53057862 1.53930664.36795044.58032227.72842407.89746094.8619995 1.03076172.95208741.94921875 1.02380372 3.17089844.81814576 4.49780273-.30700683 1.9807129-1.58114624 4.21923828-3.54647827 4.6591797-2.2073059.49389648-4.5158081-1.45336915-4.44229126-2.59643556.0426941-.66357421.86535645-.69262695 1.16003418-1.78051757.16989136-.62719727.03979492-1.14624024-.07382202-1.59985352-.10873413-.43383789-.20236206-.80737305-.0038147-1.15795898.11541748-.20361328.1421814-.25244141.15145874-.24926758.0203247.00683594-.04296875.26196289.55569458-.31298828.10656738-.10229492.6723938-.66430664.80645752-1.49951172.1437378-.89526367-.28088379-1.65649414-.62490845-2.27294922-.07391357-.13256836-.144104-.25830078-.20413208-.3774414-1.27044677-2.51928712-.90719604-6.66357423.87216187-8.3347168z"/>
        <path fill="rgb(47,46,65)" fill-rule="evenodd" d="M9.66043365 6.18054115c.27481567 1.38954332 2.08865619 1.83091276 2.85105062 1.90046873.32289725.02947216 1.4140639.12900343 2.41984103-.57601018.37174289-.26060035.49644457-.46608547.89496497-.5891625.53954717-.16661744.84027074.04655365 1.73483992.21390772.9947442.18609645 1.49214212.27916066 1.71271672-.01365962.36058492-.47865822-.0819008-1.81310438-.64117919-2.67725654-1.0341229-1.59786933-2.67255873-1.90456468-3.43670958-2.04763497-.87305057-.16344159-2.64472462-.49511982-4.11042767.81724966-.19596535.175457-1.70430752 1.56030536-1.42510485 2.97209492h.00000918l-.00000115.00000278z"/>
      </g>
      <g>
        <path fill="rgb(242,242,242)" fill-rule="evenodd" d="M82.35974122 31.1510516c.02475265-.32850932-.6090464-.50908938-.57395147-.796157.03496185-.28603634.6764072-.20629958 1.36691616-.70331936.12452615-.08962845.90923537-.6544613.84335909-1.09872862-.1248623-.84210328-3.19570624-.51034305-3.4677261-1.7382113-.05970763-.26947189.00904705-.64268217-.15336066-1.48882998-.06461547-.33661782-.12049249-.5120109-.2409712-.57058551-.17095-.08311553-.32262307.14159702-.75355618.46710563-.64626257.48816492-.75901813.32565315-1.22452763.75904891-.34556996.32173094-.46492096.58027012-.61116075.52283102-.2069478-.08127395-.10158727-.65146335-.33736268-.79881444-.24060754-.15035876-.67412421.24106575-.94194865.58387961-.50259946.64331456-.56729983 1.3018037-.74257717 1.90021161-.1904793.65031394-.60060853 1.53371995-1.59031869 2.42570006l-9.0216625 7.53218414c1.89745413-1.50505252 7.1999646-5.5422051 9.26264175-6.96159862.59545516-.40974298 1.2201085-.80722732 1.88827399-.59452462.64328665.2047749 1.24939844.95045327 2.28262076 1.46489227.12066802.06008819.45831062.22213991.61555809.05040497.13000189-.14197507.0182685-.38276563.13799808-.5175106.16060082-.18074268.49198414.10578428 1.0427237.21759504.38835249.07883473.68835216.03073416.94633221-.01063945.07777995-.01247268 1.23977089-.20761856 1.2727159-.64493236l-.00000687-.00000695-.00000689.00000417-.0000023.00000139z"/>
        <path fill="rgb(242,242,242)" fill-rule="evenodd" d="M67.49211131 26.24721592c-.12594068-.10950774-.381967.21525867-.48813976.11156058-.10579532-.10332005.11158654-.46172545.10947104-1.01571316-.00038547-.09990375-.0027935-.72947807-.20178755-.81849081-.37717732-.16873004-1.12881532 1.75295364-1.70474117 1.56042071-.12639614-.04224783-.25775635-.19081644-.64741095-.33838018-.1550138-.05870248-.2421976-.07608418-.30068571-.02134699-.0829964.07766725-.03572477.23269458-.0281909.58284277.01130137.5251257-.08707137.54528157-.04580778.94712315.0306345.29831026.10093565.44387676.0354655.51425692-.09263888.09960215-.2932356-.12756491-.4209545-.02988356-.13033803.09968415-.09684004.47039406-.0352349.72855658.11560529.48446926.3637054.71293586.55556366.98981852.2084954.30089681.44805323.79965948.52384388 1.64551959l.44842378 7.53766161c-.06225561-1.56250412-.16785476-5.88028784-.14773807-7.5163188.005805-.47228984.02501193-.95839914.30397712-1.29433037.26857359-.3234238.74553933-.46866646 1.25207379-.93460321.05916154-.05441474.2222335-.20842747.19803496-.35147274-.0200123-.11826253-.14979735-.121298-.16983718-.23137559-.02688076-.14764851.18481427-.2620208.389011-.55723722.14399237-.20817034.21105833-.40043086.26874223-.5657724.01738628-.04984624.2736019-.79708544.10594216-.94285625l-.00000688.00001529-.00001377.00000417v.00000139z"/>
        <path fill="rgb(242,242,242)" fill-rule="evenodd" d="M70.00382716 28.2402235l.07162505-.03173488c.33130645-.14664503.58016258-.35532823.73995805-.62040674.02541116-.04213804.04903608-.0858494.07312333-.13034744.09541862-.17642018.21399294-.39575673.45304598-.5630691.13356633-.09301974.4680793-.28621702.66072915-.05715279.05231945.06091238.07700212.13190826.0877792.19914454.01055223-.00519116.02127196-.01024611.0327913-.01580142.14168872-.06543362.22686945-.07203133.30892054-.07837469.06306097-.00492291.12813878-.00988057.24964772-.0502646.05330033-.01769302.09733678-.03568209.1344061-.0507441.11233568-.0454056.25265117-.09398568.38030697.02091753.13292158.12855311.1226424.3296379.11591389.46280121-.0119312.2375619-.04337106.38879905-.06425869.48908362-.00769562.0366022-.01621036.07789797-.01672777.09249576-.00283595.11791089.40186688.3600788.55375678.4522799.34194242.20581174.63782468.38390394.6073726.71238825-.0216299.23508098-.21120517.40482562-.57915417.51754813-.1145831.03501635-.2203291.04526107-.31000582.04732503.0273431.07694312.03853318.16801982.00595872.2670966-.07736695.23438604-.33680972.30978085-.77141167.22501554-.1081196-.0207285-.25331656-.04926528-.4211782-.14884658-.07901896-.04699006-.14441914-.09889749-.1997432-.14437815-.02380044.03693158-.05567395.0715949-.10000409.09715042-.13027492.07544067-.28210976.03264662-.44908918-.13539405-.18577336-.18150154-.31811444-.36552292-.43500119-.5275802-.10218269-.14133295-.19046553-.26266848-.27732007-.3285691-.16259012-.11964127-.3699578-.07445248-.62429654-.00301323l-.64020519.18711522-.00000688-.00000417.00001147-.00000556.41305581-.88467496z"/>
        <path fill="rgb(242,242,242)" fill-rule="evenodd" d="M72.85166897 24.5601337l-.81112076-.25965663-.04350413-.07588543c-.20112216-.35105717-.43086313-.5897532-.6830382-.7097739-.04009456-.01909124-.08097957-.03568349-.12262175-.05262877-.16506125-.06707505-.3702664-.15039072-.56448452-.388093-.10815517-.13292841-.34725066-.47593546-.21322888-.75979526.03536109-.07675967.0857899-.12369553.13673727-.15337895-.00682717-.01105084-.01358435-.0223324-.02093696-.03441731-.08818532-.14944701-.1150592-.24759536-.14093155-.34214256-.01992854-.07265815-.04039514-.14766102-.10345611-.27980972-.0276517-.05797142-.05318103-.10501152-.07460785-.1446339-.06474855-.12012494-.13912581-.27224189-.07976122-.45098176.06892218-.18837167.23208592-.22733385.3401149-.2532285.19270606-.0462715.32143337-.0477934.40679651-.0487538.0311737-.00026547.06630994-.00076304.07809544-.00385828.0948645-.02658123.18556341-.56226993.22065834-.76365632.07759066-.4529137.14473462-.84482883.41472963-.89245823.19318217-.03427555.37679873.14482291.56012963.54742336.0570254.12539116.0920297.24671556.11641753.35128927.05449805-.05155856.1243793-.0877827.21174436-.07472906.20676653.03121506.33276917.31612282.37532914.84692335.0108746.1319583.02492014.30935-.01200921.53132034-.01747692.10451812-.04233511.19432448-.06461548.27069775.0355217.0185214.07128203.04708736.10293872.09255413.09327559.13352745.09762359.32231747.00581187.56062016-.09779224.26374284-.21115699.46550311-.31089493.64358558-.0869314.155593-.16141306.2898293-.19199134.40833087-.05428007.22088208.03439397.45242446.15594421.73236205l.31178403.7027773-.00002065-.00001111-.00000689.00000834h-.00000115z"/>
        <path fill="rgb(242,242,242)" fill-rule="evenodd" d="M74.35351552 20.9568967l.07162506-.03173487c.33130645-.14664503.58016258-.35532823.73995804-.62040674.02541116-.04213804.04903608-.0858494.07312334-.13034743.09541861-.17642019.21399293-.39575674.45304598-.56306911.13356633-.09301974.46807929-.28621702.66072914-.05715279.05231946.06091238.07700213.13190826.08777921.19914454.01055223-.00519116.02127195-.01024611.0327913-.01580142.14168872-.06543362.22686945-.07203132.30892053-.07837468.06306098-.00492292.12813878-.00988058.24964772-.0502646.05330034-.01769303.09733679-.0356821.1344061-.0507441.11233568-.04540562.25265117-.0939857.38030697.02091752.13292159.12855311.1226424.3296379.1159139.46280121-.0119312.2375619-.04337106.38879905-.0642587.48908363-.00769562.03660218-.01621036.07789796-.01672776.09249575-.00283596.11791089.40186687.3600788.55375677.4522799.34194242.20581174.63782468.38390394.6073726.71238825-.0216299.23508098-.21120517.40482562-.57915417.51754813-.1145831.03501635-.2203291.04526107-.31000582.04732503.0273431.07694312.03853319.16801982.00595872.2670966-.07736694.23438604-.33680972.30978085-.77141167.22501554-.1081196-.0207285-.25331656-.04926528-.4211782-.14884658-.07901896-.04699006-.14441914-.09889748-.19974319-.14437815-.02380045.03693158-.05567396.0715949-.1000041.09715042-.13027492.07544067-.28210975.03264662-.44908918-.13539405-.18577335-.18150154-.31811444-.36552292-.43500118-.5275802-.1021827-.14133295-.19046553-.26266848-.27732007-.3285691-.16259012-.11964127-.3699578-.07445247-.62429655-.00301323l-.64020519.18711522-.00000688-.00000417.00001147-.00000556.41305581-.88467496z"/>
        <path fill="rgb(242,242,242)" fill-rule="evenodd" d="M65.14497947 38.33224669l-.07736694-.23156322-.17872248-.12174554c.00847919-.02086054.02499816-.07140172.0513466-.15004048.14464285-.4306605.5844406-1.74159425 1.44386896-3.65992557.59996493-1.33909249 1.27737251-2.66266987 2.01366172-3.93465116.7374651-1.27395213 1.3566232-2.1850596 1.85413125-2.91744111.37532225-.55233377.74049725-1.07142882 1.0965139-1.57688093.95074332-1.35068121 1.84867044-2.62664865 2.6776249-4.18401165.18520663-.34755192.5704226-1.07121478.67718388-2.10697957.0618713-.60074427.02139815-1.21774306-.12068178-1.83351043l.39735022-.13450313c.15651898.6801975.2009822 1.36331233.13232618 2.030345-.11837126 1.14839279-.5381074 1.93692081-.73977564 2.31578925-.84362525 1.58483792-1.75031835 2.87299312-2.71029689 4.23664319-.35451836.50375369-.71826505 1.0204818-1.09201216 1.5705876-.49294322.72555864-1.10664623 1.62879252-1.8346031 2.88640396-.72764137 1.25667606-1.39666844 2.5641268-1.98922455 3.88624065-.84850557 1.8942046-1.28164365 3.18568296-1.4239622 3.60995146-.07611302.22645962-.0920297.27390973-.17736416.31529446v-.00000417l.0000023.00000139z"/>
        <path fill="rgb(242,242,242)" fill-rule="evenodd" d="M73.5860595 17.72149119c-.01369563-.01200846-.02732244-.02455203-.04064064-.03803236-.27332197-.26787493-.41351126-.70499693-.41693574-1.29916434-.00121836-.27918985.06672293-.53689094.20221431-1.0508268.02078209-.07931007.12995256-.47845252.34532447-.9705341.14063786-.32160724.21779485-.43998512.33000434-.50597608.12474298-.0736672.26054985-.08224547.39083854-.05412565.01889145-.04244103.04614391-.07935177.0843203-.10789967.15768113-.11883793.2958054.03594617.37129548.1183765.03764293.04263004.08439029.09624283.14229102.14157479.0908033.07177142.15681955.08146992.25656552.0966598.0954668.01445324.21418108.03242285.35888817.11170651.28605852.15502594.4433404.42292032.49523997.51115474.27414798.46243567.24904543.95875773.21990232 1.53340167-.00609867.11505193-.03683069.52636546-.17922725 1.0023454-.10272189.343399-.18769268.46155867-.26407874.53787357-.15649029.15720386-.31959896.18279134-.71185892.21099734-.41002483.03008787-.61564183.04490248-.77302926.02553883-.36600215-.04570305-.5958326-.07438993-.81110011-.26308127l-.00000689.00001112h-.00000688z"/>
      </g>
      <path fill="rgb(47,46,65)" fill-rule="evenodd" d="M21.14896675 78.80849488c-2.65241106.77942577-5.42330123 1.19152597-8.27317709 1.19152597-3.0868329 0-6.08194242-.48309468-8.933094-1.39371154-.31084903-1.3937032-.66374292-2.9371147-1.0637639-4.6441318-3.58878532-15.32766082 3.68177526-26.1948568 3.68177526-26.1948568l1.7937548-1.71473225 16.14632403 2.62997738c1.87910877 11.09870777.65609893 19.33437527-3.35182139 30.12594016l.0000023-.00000834v-.00000278z"/>
      <path fill="rgb(108,99,255)" fill-rule="evenodd" d="M18.51885326 18.48460547l-7.5534711-.91510197-5.4762666 5.71938693 1.69953046 20.58979628-.755347 3.8891844 17.9394926.91510057-.9441846-5.49061318 1.32185867-20.13224182-6.23161243-4.57551121z"/>
      <rect width="12.086" height="22.878" x="8.888" y="29.237" fill="rgb(255,255,255)" rx="0" ry="0"/>
      <path fill="rgb(108,99,255)" fill-rule="evenodd" d="M19.24921357 32.24679201H15.8723206c-.09133447 0-.1656406-.09002457-.1656406-.2006734 0-.11064882.07430842-.20067338.1656406-.20067338h3.37689297c.09133448 0 .1656406.09002456.1656406.20067339 0 .11064882-.07430842.20067339-.1656406.20067339z"/>
      <path fill="rgb(108,99,255)" fill-rule="evenodd" d="M19.24921357 33.79020907H15.8723206c-.09133447 0-.1656406-.09002456-.1656406-.20067339s.07430842-.2006734.1656406-.2006734h3.37689297c.09133448 0 .1656406.09002457.1656406.2006734s-.07430842.2006734-.1656406.2006734z"/>
      <path fill="rgb(108,99,255)" fill-rule="evenodd" d="M19.24921357 35.33362474H15.8723206c-.09133447 0-.1656406-.09002317-.1656406-.200672 0-.11064882.07430842-.200672.1656406-.200672h3.37689297c.09133448 0 .1656406.09002318.1656406.200672 0 .11064883-.07430842.200672-.1656406.200672z"/>
      <path fill="rgb(230,230,230)" fill-rule="evenodd" d="M19.09766096 40.73558098H10.8861762c-.22209239 0-.40278466-.21890985-.40278466-.48797312 0-.26906326.18069227-.48797312.40278466-.48797312h8.21148476c.22209239 0 .40278466.21890986.40278466.48797312 0 .26906327-.18069227.48797312-.40278466.48797312z"/>
      <path fill="rgb(255,182,182)" fill-rule="evenodd" d="M14.47817836 49.62113712c1.63382397.62036366 3.2223851.10191628 3.5480942-1.15783556.32570912-1.25975184-.73469913-2.78348697-2.36917587-3.40380754-.65010006-.25864064-1.34187441-.32491096-2.01744528-.19325705l-6.9499796-2.5226017-4.41078184 3.82280427 10.45098457 2.2183011c.49290192.5753736 1.09239763.99933772 1.74830267 1.23639648h.00000115z"/>
      <path fill="rgb(108,99,255)" fill-rule="evenodd" d="M.05136108 43.2097168l2.8939209-14.90039063c.72317505-3.72363281 3.25366211-5.4765625 3.25561524-5.47802734l2.44174194 4.49194336-2.6289978 13.90649414 1.36291504 1.65136719s-2.98434449 4.7109375-5.42605591 3.61547851C-.49124146 45.40087891.05136109 43.2097168.05136109 43.2097168z"/>
      <path fill="rgb(255,182,182)" fill-rule="evenodd" d="M12.59442446 47.41883897c-1.69851172.26166917-3.18673834-.58797138-3.32401596-1.89755973-.13727763-1.30958836 1.12826923-2.58295535 2.82741422-2.84443827.67755673-.11573019 1.36813796-.03320257 2.01396688.24069048l7.20821892-.99858997 3.78535872 4.70504974-10.61009629-.04874825c-.56891398.46108055-1.22071767.75034972-1.9008465.843596z"/>
      <path fill="rgb(108,99,255)" fill-rule="evenodd" d="M24.64071014 22.81670205s2.23739005 2.2663836 2.40742454 6.08764372l.68014259 15.28504606s.21522162 2.27280062-2.34770431 2.82970288c-2.56292593.55690226-4.8149076-4.71787545-4.8149076-4.71787545l1.58187047-1.33419876-.56402793-14.25022081 3.0571988-3.90009764h.00000344z"/>
      <rect width="4.343" height="6.406" x="10.21" y="30.839" fill="rgb(108,99,255)" rx="0" ry="0"/>
      <path fill="rgb(230,230,230)" fill-rule="evenodd" d="M11.3694953 35.61988207l-.29836487 1.58313811-.00754878.04117625h-.84976522c.10196815-.52161628.22848475-1.16676407.28702449-1.47560676.07364877-.37519363.2662665-.61769512.38900297-.7389403.06231987-.0663551.10763777-.0960969.10763777-.0960969l.37201479.68632821h-.0000023l.00000115.00000139z"/>
      <path fill="rgb(230,230,230)" fill-rule="evenodd" d="M13.34283447 35.52612305l.06799317 1.71826172h.8270874l-.0623169-1.38427735c-.02453613-.58325195-.366333-.92871094-.366333-.92871094l-.01324463.01611329-.45318604.57861328z"/>
      <path fill="rgb(230,230,230)" fill-rule="evenodd" d="M50.4029541 37.62304688c2.22833252 1.91625976 4.94961548 3.04370117 7.88415527 3.04370117 7.527771 0 13.65203858-7.41967774 13.65203858-16.53930664 0-9.11987305-6.12426758-16.53955078-13.65203858-16.53955078-7.52774047 0-13.65203857 7.41943359-13.65203857 16.53955078 0 .1003418.00073242.20043945.00222778.30029297-3.03771972 4.26513671.74645996 9.88793945 5.76565552 13.19506835-3.42486572-2.94506835-5.6852417-7.7536621-5.76565552-13.19506835.07189942-.10083008.14761353-.20092774.22720337-.30029297 3.78588868-4.72558594 6.0213623-16.26147461 13.42260743-16.26147461 7.40127563 0 13.42260742 7.29492187 13.42260742 16.2614746 0 8.96655274-6.02133179 16.26123048-13.42260742 16.26123048-2.45721436 0-5.3305359-1.08300782-7.88415528-2.765625z"/>
      <path fill="rgb(108,99,255)" fill-rule="evenodd" d="M59.0691036 27.7963926c0 .25606799-.17134234.4636518-.38270926.4636518-.21136693 0-.38270927-.20758381-.38270927-.4636518v-3.51726113l-.87716913 1.06361498c-.14964591.18129584-.39227029.18129584-.5419162 0-.14964592-.18129584-.14964592-.47523497 0-.65653082l1.53083592-1.85460585c.14926848-.18129584.39158424-.18166694.5412336-.00082975l.00068605.00082975 1.53083592 1.85460585c.14964247.18129585.14964247.47523498 0 .65653082-.14964248.18129584-.39226685.18129584-.5419162 0l-.87717257-1.06361498v3.51726113h.00000114z"/>
      <path fill="rgb(108,99,255)" fill-rule="evenodd" d="M63.27890015 21.30517578v8.80932617c0 1.02441407-.6853943 1.85473633-1.53085327 1.85473633h-6.12335206c-.84542846 0-1.53082275-.83032226-1.53082275-1.85473633V18.98681641c0-1.02416993.68539429-1.8544922 1.53082275-1.8544922h4.20980835l3.44439698 4.17285157zm-2.29623413.00024414c-.63409424 0-1.14813233-.62280273-1.14813233-1.39111328v-1.85449219h-4.20980835c-.42272949 0-.76541138.4152832-.76541138.9272461v11.12768554c0 .51220703.34268189.9272461.76541138.9272461h6.12335205c.4227295 0 .76541138-.41503906.76541138-.9272461v-8.80932617h-1.53082275z"/>
      <g>
        <rect width="1.487" height="1.709" x="11.766" y="32.997" fill="rgb(47,46,65)" rx="0" ry="0" transform="rotate(-6.717362 12.50929064 33.85171174)"/>
        <ellipse cx="12.41" cy="32.997" fill="rgb(255,182,182)" rx=".725" ry=".879"/>
        <path fill="rgb(47,46,65)" fill-rule="evenodd" d="M11.3854051 32.11928269c-.24127409.22659444-.29052814.78854887-.11825998 1.13015493.0460269.09127267.13609023.2118938.11241254.35938944-.01817787.11322425-.09490236.1894349-.10935288.20331692-.11827719.11361341-.04599707-.0117833-.0958844.07625374-.05506362.09717266.05560169.2075449.01052814.37392746-.0399569.14750397-.15150672.1514512-.15729564.24144519-.00996944.15496895.30305245.41903703.6023546.35205092.26648907-.05964065.43925512-.36317682.48088583-.63176058.02788459-.1799171.0181618-.48115582-.11094065-.60988683-.01810789-.0180544-.06699024-.0610597-.11688215-.13975128-.0394808-.06227167-.09145838-.14424612-.07194169-.20873463.02079011-.06870398.10092303-.04553905.14382372-.11438062.05818295-.09336026-.03441577-.22385501-.03599895-.37029295-.00267649-.24796506.25515901-.58344875.56329829-.58094977.34956233.00283255.52004998.43865224.53794334.4863845.03708767.09893084.04621619.19845933.06446977.3975163.02620275.28566108.04261848.46470672-.01341342.65891445-.0805918.27933022-.21875968.27010983-.23817885.47198546-.03027083.31475658.28206502.58196576.31770603.61166864.26423705.22018993.63341817.24505328.68323896.12150926.04489114-.11132986-.21200823-.23788712-.23529242-.56085644-.02018093-.2798806.15785206-.3914815.09882474-.57724577-.06496996-.2044858-.29762146-.12252525-.42105889-.34663321-.11521638-.20918217.04524334-.35726015-.02705744-.80956925-.01529717-.09568133-.06724722-.36913797-.24129358-.62257216-.0766763-.11165092-.15465931-.22520457-.28470709-.27223216-.14558586-.05264683-.55201642-.20480547-.79109814-.12439602l-.0000023.00000278c-.45197217.1520127-.40987913.35612602-.5468275.48474168z"/>
        <path fill="rgb(47,46,65)" fill-rule="evenodd" d="M11.70158646 32.44959468c.0372632.18841614.28321224.24826388.3865892.25769414.0437829.00399587.1917401.01749288.32811944-.07810367.05040702-.03533601.06731605-.0631987.12135291-.07988825.07316005-.02259231.11393722.00631278.23523621.02900517.1348822.02523445.2023279.03785307.2322362-.0018527.04889382-.06490408-.0111052-.24584829-.08694058-.36302393-.14022257-.21666383-.36238608-.2582501-.46600166-.27764988-.11838158-.02216145-.35861283-.0671362-.55735448.11081561-.02657216.02379177-.23109586.21156996-.19323724.40300212h.00000114l-.00000114.00000139z"/>
      </g>
      <path fill="rgb(230,230,230)" fill-rule="evenodd" d="M13.82626339 34.97016717l-.14918817 2.27403065h-2.6040553l-.00188949-.04118042-.18128768-2.17336664-.00187917-.02517747.55140151-.57421446.16994501-.1784494.11519917-.11896857.29647538.03661191.85353388.10295174h.00189064l.28703596.21047057.42865127.31570864.20394664.14869648.03022035.02288697z"/>
    </g>
  </g>
</svg>
