<svg xmlns="http://www.w3.org/2000/svg" xmlns:xlink="http://www.w3.org/1999/xlink" width="113" height="77.779" viewBox="0 0 113 77.779">
  <defs>
    <rect id="rect-1" width="113" height="77.779" x="0" y="0"/>
    <mask id="mask-2" maskContentUnits="userSpaceOnUse" maskUnits="userSpaceOnUse">
      <rect width="113" height="77.779" x="0" y="0" fill="black"/>
      <use fill="white" xlink:href="#rect-1"/>
    </mask>
  </defs>
  <g>
    <use fill="none" xlink:href="#rect-1"/>
    <g mask="url(#mask-2)">
      <path fill="rgb(47,46,65)" fill-rule="evenodd" d="M42.5847969 15.18551624c-.86060944-3.1133201 6.08061924-5.7830523 7.90337339-3.27589145.2534596-.35644222 1.19014041-.57294975 1.61991367-.46360808.42977325.10934168.79121127.3826966 1.14385167.6473092.48487272.36957664.9873669.75227179 1.28489473 1.28367283.29974834.52921077.34602252 1.25087798-.05729087 1.7101084-.31957576.36519754-1.26287445.60137995-1.74333526.69760167-.33499126.06779152-.61710358.12246164-.8595334.16182441-.21599615-.31271624-.32619364-.6997905-.28652423-1.07810943-.32618054.2143057-.5465755.5816935-.581833.97095658-.00661787.08091148 2.70865423 9.99384753 2.70865423 9.99384753-.27990636.16401324-.62592889.3170939-1.02484346.4570416-.67660188-1.01250674-1.23200268-2.20651133-1.59786573-3.45520048-.08375073.77195966-.07051497 1.60950903.03085868 2.46019135.05289205.45267694.13224543.90754271.23361907 1.36239548-3.22659157.69104819-8.07968703.46362108-10.19107819-2.47548714-.00037421-.01215919-.0007295-.02432704-.0010644-.03650502-.01510826-.54995767-.77134017-.68662574-.97369287-.1744098-.0512263.12967104-.09837121.24191093-.14044315.33118763-.61489763-2.18247179.18072557-4.70826728 2.53234058-9.11692383l-.00000146-.00000145z"/>
      <path fill="rgb(255,182,182)" fill-rule="evenodd" d="M86.44336846 39.8739051c-.76341473.89843487-2.11631125 1.01269888-3.02178684.25521148-.08771126-.07338278-.16935068-.1536239-.2441276-.23996627l-10.18965997 3.20227173-1.58562738-2.57879113 12.13044095-3.71558568c.9516959-.69670736 2.29240648-.49599117 2.9945669.4483094.58753064.79014644.55288179 1.87683636-.08380751 2.62855046h.00000145z"/>
      <path fill="rgb(108,99,255)" fill-rule="evenodd" d="M50.35727901 31.87180375s4.5124546-5.0360626 6.47806026-2.89679956c1.96560566 2.13926448 8.0981006 11.5136652 8.0981006 11.5136652l14.31520392-2.99676178 1.38434344 3.74854234-16.25426525 5.22633165c-1.2219368.39289668-2.56105445-.01452572-3.35099894-1.0195312L50.35728047 31.8718023l-.00000146.00000145z"/>
      <path fill="rgb(47,46,65)" fill-rule="evenodd" d="M37.75610352 77.60586508l.02038574.17333985H60.1578369l-.03637695-.17333985-.02478027-.11572265-.29266358-1.35791016-.0567627-.2602539-.1878662-1.47363282-.11065674-.8581543-.1135254-.89135742s-.01751708-.03613281-.045166-.09960937c-.06115723-.1430664-.17181397-.421875-.2518921-.74267578-.08007812-.31933594-.13104248-.68041993-.07281494-.99121094.03637695-.18774414.11212158-.35546875.2446289-.48535156.66979981-.65600586-.09899902-1.82177735-.09899902-1.82177735s-1.02655029-1.61254883-.12963867-2.37231445c.09906006-.08398438.16308594-.26586914.19805908-.52319336.0567627-.41455078.0378418-1.02416992-.02764892-1.73364258-.03643799-.38427734-.0859375-.79760742-.14562988-1.2265625-.37420655-2.71191406-1.128479-5.9958496-1.128479-5.9958496H41.57244872s-1.43859863 2.09350585-2.7053833 5.15771484c-.02618408.0637207-.0524292.12719726-.07861328.19091796-.24023438.59228516-.47320557 1.21923829-.68579102 1.8737793-.18493652.55908203-.35388183 1.13842774-.50238037 1.73364258-.12957763.51293945-.24169922 1.03735352-.3348999 1.57055664-.07427979.41455078-.13397217.83374023-.180542 1.25683594v.00439453c-.0859375.78320312-.12231445 1.57617187-.09466552 2.3708496.0189209.57788087.0713501 1.15722657.16308594 1.73388673.00585937.04467773.01312256.08813476.02038574.1328125l.1048584.88574218.27227783 2.30419922.1921997 1.61816407.01312257.11572265z"/>
      <path fill="rgb(108,99,255)" fill-rule="evenodd" d="M48.85264018 24.9818752l-6.84322439.6047477-1.2612946 3.89447285-1.37452366.19747123c-2.34880332.33744205-3.74671305 2.78176404-2.83408811 4.95555998l1.2094189 2.88073227s-1.77646688 5.44070526.40532132 7.7267064l.92846852 10.06837169-2.09437833 6.63738556 24.48146906.78412752-4.1700781-8.32554645-.12365456-5.16935857s2.66470977-9.3435751.19420303-12.31558074l-.96391385-8.4532815-5.02197728-.74744625-2.5317494-2.73836025.00000145-.00000144z"/>
      <ellipse cx="47.978" cy="18.719" fill="rgb(255,182,182)" rx="5.653" ry="5.609" transform="rotate(-76.946688 47.97845647 18.71862677)"/>
      <path fill="rgb(47,46,65)" fill-rule="evenodd" d="M39.49926148 15.62288295c-.86060944-3.1133201 6.08061924-5.7830523 7.9033734-3.27589145.2534596-.35644222 1.1901404-.57294975 1.61991366-.46360808.42977325.10934168.79121127.3826966 1.14385167.6473092.48487272.36957664.98736691.75227179 1.28489473 1.28367283.29974835.52921077.34602253 1.25087798-.05729087 1.7101084-.31957576.36519754-1.26287445.60137995-1.74333525.69760167-.33499127.06779152-.6171036.12246164-.8595334.16182441-.21599616-.31271624-.32619364-.6997905-.28652424-1.07810943-.32618054.2143057-.5465755.5816935-.581833.97095658-.00661787.08091148 2.70865423 9.99384753 2.70865423 9.99384753-.27990636.16401324-.62592888.3170939-1.02484346.4570416-.67660187-1.01250674-1.23200268-2.20651133-1.59786572-3.45520048-.08375073.77195966-.07051498 1.60950903.03085867 2.46019135.05289205.45267694.13224543.90754271.23361908 1.36239548-3.22659158.69104819-8.07968704.46362108-10.1910782-2.47548714-.00037421-.01215919-.0007295-.02432704-.0010644-.03650502-.01510826-.54995767-.77134016-.68662574-.97369286-.1744098-.0512263.12967104-.09837122.24191093-.14044315.33118763-.61489763-2.18247179.18072556-4.70826728 2.53234057-9.11692383l-.00000146-.00000145z"/>
      <path fill="rgb(63,61,86)" fill-rule="evenodd" d="M87.82483324 77.6058512H11.81752965L.0232929 77.75032827l82.71432784-4.89981785c2.75916268-.16344689 5.08721251 2.01272715 5.08721251 4.75533646v.00000434z"/>
      <path fill="rgb(63,61,86)" fill-rule="evenodd" d="M106.4393466 77.49027245v.2889541H0V0h.29121572v77.49027245H106.4393466z"/>
      <path fill="rgb(108,99,255)" fill-rule="evenodd" d="M95.05026953 17.99017845H75.67683927c-.44675404 0-.8102699-.35937655-.8102699-.80104434 0-.4416678.36351586-.80087675.8102699-.80087675h19.37343026c.44675404 0 .81010098.35920896.81010098.80087675 0 .4416678-.36334694.80104434-.81010098.80104434z"/>
      <path fill="rgb(63,61,86)" fill-rule="evenodd" d="M85.35626017 20.57349893c-.0724399-.17706963-.32249666-.1770523-.39490308.00005057-.50511367 1.23555763-1.22422721 2.61923892-2.00642828 3.67667368-.1252344.1693011.0474143.39552471.2464413.32408803l1.67671967-.60189573v10.2989195h.56129938V23.97239814l1.67733703.60198097c.19902702.07143668.37165825-.15478694.2464253-.32408803-.78223456-1.0574521-1.50143401-2.44118396-2.00689132-3.6767936v.00000144z"/>
      <path fill="rgb(242,242,242)" fill-rule="evenodd" d="M112.5005097 23.87735103h-11.94422742c-.2754362 0-.4995529-.22156423-.4995529-.49386446 0-.27230024.2241167-.49376189.4995529-.49376189h11.94422742c.2754362 0 .49944807.22146165.49944807.49376189 0 .27230023-.22401332.49386446-.49944807.49386446z"/>
      <path fill="rgb(242,242,242)" fill-rule="evenodd" d="M106.52389817 25.4700357c-.04466085-.1091683-.19882754-.10915674-.243468.00003179-.3114159.76175381-.75476854 1.61483012-1.23701595 2.26676548-.07721002.10437889.02923224.24385126.15193744.19980887l1.03374155-.37108497v6.34955404h.34605601v-6.34956415l1.0341216.37113698c.1227052.04404238.22913726-.09542998.15192724-.19980887-.48226926-.65194692-.92567286-1.50505357-1.23730135-2.26683916h.00000146z"/>
      <ellipse cx="106.53" cy="37.467" fill="rgb(242,242,242)" rx="2.595" ry="2.575"/>
      <path fill="rgb(242,242,242)" fill-rule="evenodd" d="M74.20564219 9.2851688H62.26141477c-.2754362 0-.4995529-.22156422-.4995529-.49386445 0-.27230024.2241167-.49376189.4995529-.49376189h11.94422742c.2754362 0 .49944807.22146165.49944807.49376189 0 .27230023-.22401333.49386446-.49944807.49386446z"/>
      <path fill="rgb(242,242,242)" fill-rule="evenodd" d="M68.22903065 10.87785348c-.04466084-.1091683-.19882753-.10915674-.243468.00003179-.3114159.7617538-.75476853 1.61483012-1.23701595 2.26676548-.07721002.10437889.02923224.24385126.15193744.19980887l1.03374155-.37108497v6.34955404h.34605602v-6.34956416l1.03412159.37113699c.1227052.04404238.22913726-.09542998.15192724-.19980887-.48226925-.65194692-.92567286-1.50505357-1.23730134-2.26683917h.00000145z"/>
      <ellipse cx="68.235" cy="22.874" fill="rgb(242,242,242)" rx="2.595" ry="2.575"/>
      <path fill="rgb(255,182,182)" fill-rule="evenodd" d="M38.14462059 72.77422364c.61243394-1.0058319.28714161-2.31384188-.72656576-2.92152681-.0982023-.05886284-.201-.10981845-.30742042-.1523655l-.21495652-10.60338465-2.97046006-.6620892.34810908 12.5919509c-.35944174 1.1179952.26257757 2.31342722 1.38932032 2.67008038.94280362.29842602 1.96889494-.08302084 2.48197481-.92266223l-.00000145-.0000029z"/>
      <path fill="rgb(108,99,255)" fill-rule="evenodd" d="M40.2110626 30.93976351s-3.64019653-.86686231-4.80505942 1.58924757c-1.16486289 2.45610988-1.26400146 13.14399915-1.26400146 13.14399915l-.62890074 21.6749703 4.6174466-.20193701 3.6822015-26.6707946-1.60168648-9.53548541z"/>
      <g>
        <path fill="rgb(204,204,204)" fill-rule="evenodd" d="M38.57714437 75.97248757c.081935.10193867.20640497.16102834.3378117.16036808h23.6379802c.24021657-.00028173.43471663-.19373505.43442833-.4320904-.00003495-.0295759-.00313785-.05907234-.00925192-.08802265l-.36693036-1.72938597c-.0309009-.14328656-.13284096-.26129975-.27082916-.31351232-.04916887-.01914465-.101528-.0289503-.15434434-.02889685H39.28043617c-.05281634-.00005346-.10517547.0097522-.15434434.02889685-.13799111.05221257-.23993263.17021709-.27082916.31351232l-.36693036 1.72938597c-.02644384.12707046.00617232.25919328.08880915.35974642l.00000291-.00000145z"/>
        <path fill="rgb(230,230,230)" fill-rule="evenodd" d="M29.52761288 37.25842258v27.05477414c.0005737.71789636.58695548 1.2997199 1.31047075 1.30029347h40.40617714c.72351527-.0005649 1.30990142-.58239711 1.31047075-1.30029347V37.25842258c-.001724-.71718698-.58766605-1.29793416-1.31047075-1.29884725h-40.4061815c-.72280034.00091743-1.30873948.58166027-1.31046639 1.29884725z"/>
        <path fill="rgb(204,204,204)" fill-rule="evenodd" d="M55.94396973 59.8048397c.05096435 0 .1019287.00732421.14996338.02319335.2111206.0649414.3538208.25854492.3538208.47680664V75.1222225H45.98583984V60.3048397c0-.27612306.22717286-.5.50524903-.5h9.45288086zm-4.76428223 8.41455077c.61743164.00268555 1.11975098-.49121093 1.12268066-1.1040039v-1.71923828c-.00585937-.60229493-.49798584-1.09082032-1.10662841-1.09643555-.61590577-.00585938-1.12121582.48535156-1.12701416 1.09643555v1.71923828c.00292968.60839843.49798584 1.09960937 1.11096191 1.1040039z"/>
      </g>
    </g>
  </g>
</svg>
