<svg xmlns="http://www.w3.org/2000/svg" xmlns:xlink="http://www.w3.org/1999/xlink" width="97" height="64" viewBox="0 0 97 64">
  <defs>
    <rect id="rect-1" width="97" height="64" x="0" y="0"/>
    <mask id="mask-2" maskContentUnits="userSpaceOnUse" maskUnits="userSpaceOnUse">
      <rect width="97" height="64" x="0" y="0" fill="black"/>
      <use fill="white" xlink:href="#rect-1"/>
    </mask>
  </defs>
  <g>
    <use fill="none" xlink:href="#rect-1"/>
    <g mask="url(#mask-2)">
      <path fill="rgb(242,242,242)" fill-rule="evenodd" d="M92.69446273 35.38270712l-.30386231 3.12319735-.75413385 7.757392H76.48652156c.11830327-1.73867813.28003782-4.2412733.45281736-6.9428736.01702964-.26981755.0349008-.54132512.05192036-.8145184.43325197-6.7910941.907348-14.4759822.907348-14.4759822l1.99173571.47894987 3.86429644.92751379 1.57466179.37775005 4.21669175 1.01352208c2.10238137.50422815 3.54851629 4.43352406 3.14847088 8.5550505l-.00000112-.00000144z"/>
      <path fill="rgb(255,182,182)" fill-rule="evenodd" d="M81.23490437 11.46300107l1.86305106 4.20830898-3.58077277 3.27565719-1.5275108-5.17280851 3.24523251-2.31115766z"/>
      <ellipse cx="78.863" cy="9.487" fill="rgb(255,182,182)" rx="4.615" ry="5.958"/>
      <path fill="rgb(47,46,65)" fill-rule="evenodd" d="M78.53170514 10.81851454c-.36647852-.7199545-.2226375-1.09651864-.52944962-1.36110286-.0000056-.00000722-.12346543-.10647214-1.00707734-.16717325-.19782825-1.83792935-.4447871-2.0608145-.44479269-2.06082173-.28462255-.25687795-.70701978-.17341193-.9698008-.01630232-.55577181.33228669-.49133828 1.0500557-.8655494 1.18740924-.5169398.18974027-1.45745742-.87990827-1.5501144-2.10444194-.07557923-.99887656.422978-1.96902832.62072569-1.91770762.19606464.05088736.6654808-.72266722.91893794-.71073586.17309063.00814827.88031744-.3886385 1.07056976-.35761698.20777097.03388446.89282949.49534608.92137634.3899154.19837995-.73263842.14007543-.93591629.3084034-1.14550795.29827156-.37139582.78621241-.11276572 1.5516822.02608285 1.57497736.2856822 1.84986086-.38465752 2.65700279.06970307.40772989.22952107.74889783.84851265 1.41459461 2.07712406.93096993 1.71819838 1.39645265 2.57729901 1.39943938 3.5793173.00304493 1.02187836-.38030768.95700994-.54869832 2.46981574-.18744239 1.6840048.21082038 2.45402765-.22427018 3.00112633-.33626764.4228393-1.01976844.52320998-1.37888587.1521074-.61484735-.63536035.18979239-2.168487-.49060418-3.288591-.41765471-.68756508-1.2575858-.9934988-1.64234727-.65362717-.43504804.38429207-.19538426 1.51226123-.50131793 1.6192245-.26197979.0915984-.64596017-.66273602-.709823-.78819577l-.00000111-.00000144z"/>
      <path fill="rgb(108,99,255)" fill-rule="evenodd" d="M89.28307207 34.28279108c-.1287339 2.8412679-.64006393 3.73828018-.81917614 7.0937893-.03912296.73669596-.06261844 1.59181273-.06261844 2.61161972 0 .25997634.0010933.5113494.0010933.75693735 0 .52284597-.00775946 1.01691515-.05485897 1.51810846-.0357356.40012206-.09726074.80313595-.1991118 1.2278025h-9.94049187c-.00109331-.00289183-.00109331-.00578367-.00229517-.0086755-.05813778-.3264178-.09507524-.63844575-.12305138-.93742721-.00896132-.09535837-.01682933-.1892347-.02349548-.28170123-.00896132-.10833552-.01682933-.21519045-.0245888-.32063413-.0302713-.4203649-.06043294-.81759513-.13212124-1.19747433-.09616855-.52439734-.27080011-1.01839574-.62891711-1.49504456-.14654687-.19501837-.29309374-.3466592-.4363618-.47953921-.02797614-.02461527-.05485898-.04915977-.08283512-.07370426-.39614665-.35103307-.77098332-.60381594-1.09555021-1.32026904-.00557285-.0100853-.01005351-.02165265-.01453417-.03173941-.05595228-.12568653-.20140584-.4550655-.30664426-.89412045-.11081126-.45647675-.17791036-1.02996308-.0570456-1.61635722.28762944-1.38960088 1.35290835-1.52826456 2.22355724-2.93232317.09398193-.15164083.18687167-.31922287.27528076-.50556573.3938515-.8262692.50018321-1.5542203.62552864-2.41949317.02010813-.14014427.03802965-.2788094.05256493-.41309921.01125648-.10114204.02131-.20080205.029178-.2990508.0692846-.82478861.0357356-1.53545804-.04589878-2.1710134-.26631944-2.08150947-1.0519466-3.3699683-.4969044-5.23769714.17463267-.58639414.4219373-1.02700046.67142741-1.40398927.52815936-.79883287 1.07096142-1.3173772.9769795-2.34868075-.09518492-1.04004983-.7061794-1.18308593-.77437068-2.09166557-.03475196-.4592978.08163327-.94321088.29986956-1.418447v-.00141126c.69831025-1.52974514 2.4417924-2.93810683 3.54958273-2.89331949.20479432.00726426.38609315.06644.53711956.1805592.54728272.41599104.31899404 1.32457067 1.157185 2.5986411.6232346.94610128 1.32821101 1.32457068 1.59573343 1.50364929 1.05970606.71363204 1.92139251 2.81820398 2.50659634 5.50924228.00448066.02024285.00896132.04041493.01344197.06213836.36150436 1.68568906.616677 3.5996165.74311573 5.54098026.05365712.82189677.08502173 1.64816741.09168789 2.46569032.00568251.65290493-.00557285 1.21919778-.02906945 1.72328293l-.00000112.00000144z"/>
      <g>
        <path fill="rgb(255,182,182)" fill-rule="evenodd" d="M81.8392327 44.01711846l-.20260883.72802044-.12753204.45640596-.29549744 1.06170105-.34237987 1.2278025h-2.20115505l.36926382-1.2278025.1712442-.57200574.28424209-.94610127.47668773-1.5889209 1.86773538.86090046z"/>
        <path fill="rgb(108,99,255)" fill-rule="evenodd" d="M87.88317871 30.09375c.30096436-2.34179688.506958-4.39404297.59417725-5.54101563.00787353-.11279296.01574707-.21679687.02130127-.31054687-.0055542.05761719-.01574707.1459961-.034729.24853516-.12414552.66259765-.60205079 1.94580078-2.34429932-.0625-.22381592-.2553711-.4689331-.56884766-.73638916-.9428711-.692688-.96923828-1.9605713-2.74316406-3.59545899-2.55517578-.07385254.00830078-.45440674.05908203-.89520264.29589844-.38287353.20800781-.80914306.5546875-1.12139892 1.1381836-.15997315.30029296-.26519775.61669921-.32891846.93603515-.00787353.03613281-.01574707.07373047-.02130127.10986328-.0223999.13134766-.03912353.26123047-.04925537.39013672-.0836792 1.04052734.18841553 2.0258789.3110962 2.46972656.4085083 1.4765625.92211913 1.53271485 1.55432128 2.88769531.14324951.3076172.26409912.61962891.3659668.93603516.05706787.17626953.10742187.3540039.15222168.53173828.21594238.84765625.30657959 1.69970703.3289795 2.50585938.0335083 1.22216796-.09063722 2.3330078-.18011476 3.1274414-.06384277.56201172-.28656005 2.29492188-1.06427001 4.38378907-.09173584.24560546-.18353272.4868164-.27642823.72070312l-.00445556.0131836-.16339112.40722656c-.4689331 1.15429687-.93322754 2.1508789-1.3406372 2.96142578-.21038819.41894531-.40618897.78857422-.57855225 1.10351562-.08270264.14990235-.15997314.28857422-.23156738.41455078-.05822754.10253907-.11193848.19628907-.16229248.28173829-.2451172.42041015-.3916626.64257812-.3916626.64257812l.51470947.29492188.01452637.00830078h3.57427978c.3189087-.35058594.6748047-.76269532 1.04406739-1.22753907.30328369-.38134765.61657714-.79736328.92321777-1.24365234.06262207-.0913086.12536621-.1821289.18579102-.27441406.01672363-.02490235.03356933-.04785157.0480957-.07226563.3748169-.56640625.73632812-1.17285156 1.05859375-1.81298828.09954834-.19482422.19476318-.39257812.28533935-.59375.11871338-.26269531.23510743-.5600586.3480835-.88964844.63232422-1.82568359 1.1918335-4.60351562 1.64160156-7.42480468.20928955-1.30712891.39508057-2.62304688.55395508-3.85791016z"/>
        <path fill="rgb(108,99,255)" fill-rule="evenodd" d="M88.50421143 24.16699219c-.00109864.00146484-.00109864.00439453-.00109864.00878906-.00109863.02001953-.0022583.0415039-.00445556.06347656.00445556-.04052734.0055542-.0649414.0055542-.07226562z"/>
      </g>
      <path fill="rgb(230,230,230)" fill-rule="evenodd" d="M79.61676765 54.64697608H19.6303455c-.55733736 0-1.01162179.5849829-1.01162179 1.3043986 0 .72075619.45428443 1.30573908 1.01162179 1.30573908h59.98642216c.55722769 0 1.01052848-.5849829 1.01052848-1.30573907 0-.71941571-.4533008-1.3043986-1.01052848-1.3043986z"/>
      <path fill="rgb(230,230,230)" fill-rule="evenodd" d="M66.30460453 61.38980454H32.94136159c-.55728252 0-1.01047476.5849829-1.01047476 1.30432927 0 .71934638.45319112 1.30580986 1.01047476 1.30580986h33.36324406c.55728251 0 1.01162178-.58646493 1.01162178-1.30580986 0-.71934493-.45433927-1.30432927-1.01162178-1.30432927h-.00000112z"/>
      <path fill="rgb(255,182,182)" fill-rule="evenodd" d="M26.30534116 11.73992398l3.78054481-2.05371347 1.6215487 4.29087364-3.97279575 2.0931086-1.42929776-4.33026877z"/>
      <g opacity=".1">
        <path fill="rgb(0,0,0)" fill-rule="evenodd" d="M26.30534116 11.73992398l3.78054481-2.05371347 1.6215487 4.29087364-3.97279575 2.0931086-1.42929776-4.33026877z"/>
      </g>
      <path fill="rgb(108,99,255)" fill-rule="evenodd" d="M26.84278747 10.10483194l3.72956333 5.54673938s-2.59447835 10.57020231-5.18895782 11.51210162c-2.59447947.9418993-7.37804956 5.54673937-7.37804956 5.54673937l-5.99973217-5.02346295L14.92440024 22.14021s7.05373893-12.45400092 8.91852115-12.45400092c1.8647811 0 2.99986608.41862143 2.99986608.41862143v.00000144z"/>
      <path fill="rgb(47,46,65)" fill-rule="evenodd" d="M21.80382094 46.26329502h-8.68177137l-.54889639-.94713696-2.24098189-3.86701454-.51565178-.8895718S7.8706602 35.95473163 8.27604792 31.768513c.40538773-4.18621863 4.6214159-5.12811794 4.6214159-5.12811794h.17350691l5.16138901 5.8544209-.30809342 5.44836928 1.63451955 3.50595828 2.24503507 4.8141515z"/>
      <path fill="rgb(47,46,65)" fill-rule="evenodd" d="M14.90007778 46.26329502h-2.3269246v-4.44785757l2.3269246 4.44785757z"/>
      <path fill="rgb(242,242,242)" fill-rule="evenodd" d="M65.088645 39.51092293l-.2894423 1.93822059-.71834564 4.8141515H49.64987988c.11268902-1.0790044.26674804-2.6320879.43132721-4.30866954.01622169-.16744627.03324461-.33593977.04945623-.50548196.41269174-4.21447832.86428823-8.98363448.86428823-8.98363448l1.8972144.29723077 3.68090835.57560537 1.49993304.23442794 4.01658064.62898011c2.0026095.31291919 3.38011446 2.75139563 2.99905478 5.3091697h.00000224z"/>
      <path fill="rgb(47,46,65)" fill-rule="evenodd" d="M85.51124798 46.26329502h-7.827211c.11918172-.18105175.18647217-.28570675.18647217-.28570675l2.34638704-.50025585 4.83463998-1.02981863s.2205281.73573104.45971293 1.81578268l-.00000112-.00000145z"/>
      <path fill="rgb(160,97,106)" fill-rule="evenodd" d="M52.310345 13.8331828l3.40392103 6.21383192-5.93755575.22888406-.63734016-5.83954427 3.17097488-.6031717z"/>
      <g opacity=".1">
        <path fill="rgb(0,0,0)" fill-rule="evenodd" d="M52.310345 13.8331828l3.40392103 6.21383192-5.93755575.22888406-.63734016-5.83954427 3.17097488-.6031717z"/>
      </g>
      <path fill="rgb(160,97,106)" fill-rule="evenodd" d="M35.52365913 26.70779275c-.43676242-1.62635153-1.44089443-2.65374922-2.24268731-2.29478888-.80179289.35896179-1.09751302 1.96815586-.66042608 3.59501151.16769235.65295404.45408748 1.24457573.8352266 1.72536442l1.91799845 6.86075094 2.47502694-1.23043-2.15357659-6.63285202c.06880117-.68236352.00997406-1.37607338-.17156201-2.02305741v.00000144z"/>
      <path fill="rgb(204,204,204)" fill-rule="evenodd" d="M58.5649555 23.54154866l-.00466979 6.33269042-.4564565 2.33906055-.93888381 4.81100833-.6834773 4.42483556-.50916915 3.29664683-.18161329 1.1773745c-.13702602.11826048-.27324074.23128476-.40944539.34013017H43.52203824c-.67375391-.52222918-1.0507604-.9282938-1.0507604-.9282938s.18647665-.22605866.3997108-.58921087c.3599847-.61328013.79536957-1.61796925.52862712-2.57766446-.05594333-.2009436-.0705368-.44583387-.05351388-.71898237.1086459-1.80216419 1.5729049-4.84974334 1.5729049-4.84974334l-.30322894-4.52320565-.13296837-1.9821687.9375018-9.66498686 3.05580941-2.29299195.52757298-.06588822 5.20760336-.36315076 2.15241054.16011267.09810002.03454459 2.10314455 5.6398848.00000336-.00000144z"/>
      <g>
        <path fill="rgb(255,182,182)" fill-rule="evenodd" d="M58.79622419 46.26329502h-2.59447835l-.11432171-1.51750322-.00243504-.03035417.73456621-.0648872 1.91100217-.1684935.03323454.90840196.02594955.69702204.00648263.1758141z"/>
        <path fill="rgb(204,204,204)" fill-rule="evenodd" d="M59.43491504 25.07265882l1.08987666 8.25417679-.88941752 8.12230935-.1386397 1.26423357-.24485503 2.23229663-.07539682.68654527.00243505.07430083.01864665.55677376h-3.08094318l-.11352047-1.51750467-.00971891-.13605785-.23188977-3.10826293-.00404759-.0523275-.49213615-6.59119918.96481434-4.7639185.07135819-.3506055v-.00103424l.4197753-8.15685394-.32512194-3.70688888-.00323628-.03454458c.00648263.00523766.01216402.01047532.01864666.01570143.01703299.0136055.03405591.02721099.05026753.04186517 1.89396805 1.55100057 3.0225704 4.27204348 2.9731041 7.17099497h-.00000112z"/>
      </g>
      <path fill="rgb(204,204,204)" fill-rule="evenodd" d="M46.52407751 22.01071583l-1.18478403-1.58179097s-2.53625552 1.47590095-2.66267524 2.2947181c-.1264197.81881716-4.60448025 12.84506035-4.60448025 12.84506035l-1.9482373-6.7166156-2.535978 2.18553035s2.0348615 10.42792312 3.93789495 10.91747398c1.90303345.48955086 8.28113175-12.3424529 8.28113175-12.3424529l.717127-7.60192331h.00000112z"/>
      <path fill="rgb(230,230,230)" fill-rule="evenodd" d="M94.63099593 41.37658183H2.3679186C1.06200122 41.37658183 0 42.7488317 0 44.43452075c0 1.68568906 1.0620001 3.05652911 2.3679186 3.05652911h92.26307733c1.30591737 0 2.36901078-1.37076927 2.36901078-3.0565291 0-1.68575985-1.0630934-3.05793893-2.36901078-3.05793893z"/>
      <path fill="rgb(63,61,86)" fill-rule="evenodd" d="M58.0249958 32.05860807l-.17937295 10.8050116c-.01736424 1.0459534-.67921822 1.88217068-1.48971392 1.88217068H40.95755367c-.79133204 0-1.44463763-.79845152-1.48783392-1.81838562l-.45761247-10.8050116c-.04666645-1.10186463.63293672-2.0283673 1.48783392-2.0283673h16.03534068c.83543028 0 1.50761194.88644886 1.48971392 1.96458224z"/>
      <ellipse cx="33.167" cy="9.593" fill="rgb(255,182,182)" rx="3.684" ry="4.755"/>
      <path fill="rgb(255,182,182)" fill-rule="evenodd" d="M27.00494167 22.035555l.40538773 5.6513958 2.75663367 14.33779809-2.38154074 1.07745736-4.02357916-15.62456688-.55573152-6.27932868 3.79883002.8372443z"/>
      <path fill="rgb(63,61,86)" fill-rule="evenodd" d="M25.90838432 32.05860807l-.17937296 10.8050116c-.01736423 1.0459534-.67921821 1.88217068-1.48971391 1.88217068H8.84094219c-.79133204 0-1.44463764-.79845152-1.48783392-1.81838562l-.45761248-10.8050116c-.04666644-1.10186463.63293673-2.0283673 1.48783392-2.0283673h16.0353407c.83543027 0 1.50761192.88644886 1.4897139 1.96458224z"/>
      <ellipse cx="30.606" cy="43.158" fill="rgb(255,182,182)" rx="2.91" ry="1.661"/>
      <path fill="rgb(108,99,255)" fill-rule="evenodd" d="M21.28898047 22.89958128l1.66208836-11.43422716s4.62141589-.8372443 4.78357009 1.15121074c.1621542 1.98845505-.11587047 11.70629953-.11587047 11.70629953l-6.32978798-1.42328166v-.00000145z"/>
      <path fill="rgb(47,46,65)" fill-rule="evenodd" d="M31.67964876 10.34040391s2.27897684-1.04989825 3.24030088-1.61479285c.96132292-.5648946 2.8711445 3.3752103 2.91362907 1.29430895.04248457-2.08090135-.61743906-2.95353959-.61743906-2.95353959s-.16479067-4.55226846-3.71783909-3.9831271c0 0 .78151354-2.27755054-1.78384389-2.62973196C29.14909925.10133993 25.1580418 8.0978154 25.51546835 9.2928457c.35742655 1.1950303.7859002 2.18301119-.22815999 3.46076359-1.01406019 1.2777524-2.91291288 8.48905107-1.46818571 10.4295597 1.44472716 1.94050864 1.53952711 2.7825717.54966181 3.98981213-.9898653 1.20724043-3.32963654 3.83223451-.79980322 4.28794136 2.52983332.45570684-.23144998.11534265 1.6545762-2.02606192 1.88602731-2.14140457 4.6381557-2.05394458 3.61055283-5.48965666-1.02760176-3.43571208.75771927-8.35906001.53432753-9.10595394-.22339173-.74689393.50050438-5.4897159.50050438-5.4897159s1.68472777-.31950165 1.81070546.9908713l.00000112-.00000145z"/>
      <g>
        <ellipse cx="50.49" cy="10.906" fill="rgb(160,97,106)" rx="4.01" ry="5.177"/>
        <path fill="rgb(47,46,65)" fill-rule="evenodd" d="M50.5017109 3.73441332c-.0372094-.16666336.0061346-.34361426.04911715-.50794623l.21638203-.8272731c.15346257-.5867206.31633967-1.1939426.64870296-1.64051316.50164916-.67402601 1.29888753-.84549513 2.01656175-.72127185.92163484.15952765 1.83097026.8037123 2.25950433 1.86895519.42853295 1.06524434.24609046 2.55164083-.52824105 3.21624455 1.10359168 1.63274333 1.48828602 3.45237842 1.42754422 5.61778147-.0607418 2.16540305-1.88886745 4.15828107-3.08104837 5.68372313-.26623552-.20832197-.50827504-1.18460552-.36186917-1.53926856.14640475-.35466303-.06336037-.76555075.11795749-1.09223288.06272027-.11300261.1218954-.1246754.1648869-.10504356-.00478056-.00807316-.00983976-.01682378-.01518209-.02629086-.11567127-.20497224.33578869-.67652352.1638518-.79920265-.83163113-.59338107-1.10822453-1.93142146-1.63054247-2.9560631-.63001265-1.23590744-1.70827809-2.07287585-2.84936898-2.2117302-.628587-.0764892-1.29251345.06204736-1.80774223.5331003-.51522878.47105148-.84878497 1.3128141-.72930894 2.11307266-.30942397-.40554461-.46344941-.99987036-.40535528-1.5641135.05809414-.5642417.32703327-1.08600865.70777738-1.3731541-.23150929-.98822501-.03318194-2.12497224.5041603-2.8896953.53734225-.76472307 2.71709667-.63447634 3.5015768-.4332135l-.0606713-.1343476c-.11604504.08743831-.27148385-.04485668-.30869324-.21151715z"/>
        <path fill="rgb(47,46,65)" fill-rule="evenodd" d="M50.93223127 7.72428178c1.03901938.14477958 1.78921979 1.30653498 2.42270148 2.3794148.36512447.61838346.74758855 1.30128433.73842245 2.0787072-.00926794.78599583-.4163913 1.46015908-.61096202 2.20504374-.31803167 1.21753808-.0080728 2.66612836.74898623 3.50037683-.74805854.18323436-1.5567302-.54077189-1.68587031-1.50936506-.15033372-1.12756038.51184478-2.21582963.43342094-3.35548024-.069091-1.0040449-.68206506-1.77677756-1.20318338-2.52749935-.52111832-.75072323-1.01053855-1.74691307-.77079756-2.70623272l-.07271895-.0649652h.00000112z"/>
      </g>
      <g>
        <path fill="rgb(255,182,182)" fill-rule="evenodd" d="M66.46542594 42.03090379c-1.02916059.755594-1.56134739 2.05350835-1.18871077 2.89886338.37263774.84535502 1.50883953.91793404 2.53828883.1618937.41443186-.29472604.76815885-.71327814 1.0315822-1.22063791l4.32927447-3.27256457-1.23303728-2.58967382-4.13698773 3.50110917c-.47262783.03299755-.93225682.21165149-1.34040972.52101005z"/>
        <path fill="rgb(108,99,255)" fill-rule="evenodd" d="M81.12350561 18.0329246c-.12937623-.06618288-1.26455409-.62108461-2.30090678.11154514-1.1904811.84159362-1.3743459 2.7627622-1.43883763 3.43659466-.14897295 1.55656612.28991565 1.9054527.38256368 3.48127944.0167689.28521563.03619441.5113624.05694264.68841586-.04471147.05309885-.09659714.13179955-.15646944.24218188-.25265814.46581527-2.83311373 7.68431609-4.25622988 9.09823034-2.76778272 2.74988905-4.52535701 4.68647594-4.52535701 4.68647594l2.00649929 2.81346466s3.17062686-1.09048363 5.97303733-3.4393175c2.87463256-2.40937462 4.31195612-3.61405833 5.42394511-5.97074435.09576122-.2029442 2.38705092-5.22552023 1.15651358-10.77929708-.28067792-1.26679607-.79495327-3.58785703-2.32169977-4.36882898h-.00000112z"/>
      </g>
      <path fill="rgb(63,61,86)" fill-rule="evenodd" d="M91.48446212 32.05860807l-.17937295 10.8050116c-.01736424 1.0459534-.67921822 1.88217068-1.48971392 1.88217068H74.41701999c-.79133204 0-1.44463763-.79845152-1.48783392-1.81838562l-.45761247-10.8050116c-.04666645-1.10186463.63293672-2.0283673 1.48783392-2.0283673H89.9947482c.83543028 0 1.50761194.88644886 1.48971392 1.96458224z"/>
    </g>
  </g>
</svg>
