<svg xmlns="http://www.w3.org/2000/svg" xmlns:xlink="http://www.w3.org/1999/xlink" width="455" height="338" viewBox="0 0 505 438">
  <defs>
    <rect id="rect-1" width="392.279" height="343.134" x="20" y="20"/>
    <mask id="mask-2" x="0" y="0" maskContentUnits="userSpaceOnUse" maskUnits="userSpaceOnUse">
      <rect width="505" height="438" x="0" y="0" fill="white"/>
      <use fill="black" xlink:href="#rect-1"/>
    </mask>
    <rect id="rect-3" width="430.616" height="368.09" x="74.384" y="69.91"/>
    <mask id="mask-4" maskContentUnits="userSpaceOnUse" maskUnits="userSpaceOnUse">
      <rect width="505" height="438" x="0" y="0" fill="black"/>
      <use fill="white" xlink:href="#rect-3"/>
    </mask>
  </defs>
  <g>
    <use fill-opacity="0" stroke="rgb(200,200,200)" stroke-linecap="butt" stroke-linejoin="miter" stroke-width="40" mask="url(#mask-2)" xlink:href="#rect-1"/>
    <g>
      <use fill="none" xlink:href="#rect-3"/>
      <g mask="url(#mask-4)">
        <g>
          <rect width="4.903" height="15.179" x="448.77" y="344.384" fill="rgb(242,242,242)" rx="0" ry="0"/>
          <path fill="rgb(242,242,242)" fill-rule="evenodd" d="M478.5304353 356.06013779h-54.61429075c-4.06035608 0-7.35190104-3.431308-7.35190104-7.66404182 0-4.2327338 3.29154496-7.66404181 7.35190104-7.66404181h54.61429075c4.06035608 0 7.35190104 3.431308 7.35190104 7.66404181 0 4.23273382-3.29154496 7.66404182-7.35190104 7.66404182z"/>
          <path fill="rgb(242,242,242)" fill-rule="evenodd" d="M482.73149275 356.06013779c3.2869453 0 5.9515615-2.77771511 5.9515615-6.20420389v-73.72076658c0-3.42649687-2.6646162-6.20420389-5.9515615-6.20420389s-5.9515615 2.77771512-5.9515615 6.20422009c-18.07625287 14.42064285-10.7292312 43.12081828 0 73.72075038 0 3.42648878 2.6646162 6.20422819 5.9515615 6.20422819v-.0000243z"/>
          <path fill="rgb(47,46,65)" fill-rule="evenodd" d="M475.4356889 323.65727907c-.80807916 3.77436428-2.3309079 6.75504593-4.24226791 9.10388196-3.89262395 4.80302287-9.40909042 6.98180893-13.76009518 7.96997788-3.90817887.8909339-6.87620936.81806228-6.87620936.81806228l-18.3752928 1.57937103-14.52155617 1.24736253-14.59150671 1.25542159c.83136491 3.64479584 1.62388914 7.83224509 2.37752605 12.3113185.08545885.53454576.1786874 1.07720726.27192371 1.61990927h-29.63357015l-.49726812-1.61990927-3.0457041-9.84096498-6.1769137-14.06891196c-1.12661324-2.2921878-1.69378529-4.79491522-1.69378529-7.31386603 0-1.67661418.25636879-3.34511263.76141437-4.96502189.00777746-.02432294.00777746-.04859728.01555493-.07292022 1.18873971-3.7419904 4.12570697-6.6092055 7.7619155-7.75127392l4.38989208-1.38499003c12.44701706-3.02927082 29.88998556-7.75127393 43.19169993-11.41228506 11.11065318-3.06165281 19.32322642-5.39427355 19.32322642-5.39427355l.0233324-.16199903 2.29979803-16.39347365 22.92837174-2.0978068 7.45115887-.68844524s-.1631791.80995464-.10100601 3.71766747c0 .17821431 0 .36448768.00777746.55076105.0155083.56697634.0388407 1.21493194.06990393 1.93579967.00777746.24297829.02333239.49406422.0388407.7532497.02333238.50217188.05439561 1.03676623.09323631 1.61180162 0 .04053823 0 .08102786.00777746.1215094.03888732.72086772.09323632 1.50650751.1631791 2.34888463.01555492.3482724.04661815.70466053.07768138 1.06909962.14762417 1.83861321.33408903 3.94452765.57499613 6.34196096.01550831.2429783.0388407.48600518.06990393.72897537.03106323.38065438.06995055.76135736.10878347 1.15011938.0776814.68038619.14762417 1.37693097.22530556 2.10586584.00777746.07292022.01555492.13772469.02333239.2105963.06990392.63989657.14762416 1.29595982.2175281 1.97628931.08545884.73708301.17095655 1.49034082.26419286 2.25980582.05439562.51833047.11651432 1.05293292.18646486 1.60369398.03106324.25919358.06217309.5264867.09323632.79373934.0388407.28351651.06995054.57508398.10878347.86665955.06217308.51837907.12429178 1.05293292.19424232 1.59563493.14762417 1.2068243.31075664 2.45413823.4739435 3.75008994.5982819 4.59242657.42732535 8.48830835-.27970117 11.7686165l-.00004662.0000162z"/>
          <path fill="rgb(47,46,65)" fill-rule="evenodd" d="M475.4356889 323.65727907l-6.00600376 2.70527277-31.92564512 14.36858707-5.32222414 2.39743331-13.06863135 5.88027873c.37292972 2.04920952.76919183 4.0740961 1.19651717 6.0665521.2020198.963846.40403958 1.91959247.62156767 2.8672718.1243384.5426534.24086048 1.07720725.37297634 1.61990926h-26.44806596l-.20201978-1.61990927-.76919184-6.34196097c-1.5306062-1.42552825-2.4319139-4.15506726-2.97580795-7.05472104-.54383966-2.89149754-.73808198-5.97746519-.8702056-8.11571302 0-.02432293 0-.05670492-.00773085-.08102786-.21757472-3.9525786 7.186966-6.57683161 10.14721902-9.0390694l3.63620854-1.25542157c7.51327757-5.43481178 18.67832637-13.66393465 29.48594599-21.65817877 4.09464373-3.02927082 8.14266931-6.02606246 11.91095487-8.82041404 11.71671254-8.69890465 20.83832432-15.49443211 20.83832432-15.49443211l-.68373298-2.99684024 7.45115887-.68844524s-.1631791.80995463-.10100601 3.71766747c0 .17821431 0 .36448768.00777746.55076105.01550831.57508398.0388407 1.21493194.06990393 1.93579967.00777746.24297829.02333239.49406422.0388407.7532497.02333238.50217188.05439562 1.03676623.09323631 1.61180162 0 .04053823 0 .08102786.00777746.1215094.03888732.72086772.09323632 1.50650751.1631791 2.34888463.01555492.3482724.04661815.70466053.07768139 1.06909962.1398467 1.8386132.32635818 3.93642.57499612 6.34196096.01550831.2429783.0388407.48600518.06990393.72897537.03106323.38065438.06995055.76135736.10878347 1.15011938.0776814.68038619.14762417 1.38503862.22530556 2.10586584.00777746.07292022.01555493.13772469.02333239.2105963.06990393.63989657.14762416 1.29595982.2175281 1.97628931.08545885.73708301.17095655 1.49034082.26419286 2.25980582.06217309.52643811.12429178 1.06104057.18646486 1.60369397.03106324.25919359.06217309.52648671.09323632.79373935.0388407.28351651.06995055.57508398.10878347.86665955.06217308.51837907.12429178 1.05293292.19424233 1.59563492.14762416 1.2068243.31075664 2.45413824.4739435 3.75008995.5982819 4.59242657.42732534 8.48830835-.27970118 11.7686165l-.00001554.0000081z"/>
          <path fill="rgb(63,61,86)" fill-rule="evenodd" d="M480.2173988 284.71698493c1.21984957 5.43481178.73035115 9.16058688.24863795 14.47388927-.17873402 1.9601226.4351028 4.77874853-1.39080612 6.09898268-1.56171606 1.10963785-57.74436595.58314304-58.26491984-3.9525786-.59050443-5.12702903.5594412-10.50508729 2.96025303-15.12994443 4.34328168-8.3749552 6.8295912-18.62895654 8.103782-25.91044058 2.69610677-15.3000511-3.3798009-23.61019373-1.11105833-38.8697147.38848465-2.59997057.46621266-5.06221645.37297634-7.41920873-.31080326-8.18863323-2.73494746-15.13805207-1.96575563-22.19272452.3185341-2.89965378 1.17323141-5.81551476 2.93696725-8.84473698.5205539-.89904154 1.11878917-1.80618263 1.81030739-2.72143946 4.00918488-5.32951768 5.0580779-9.34686026 12.01973834-9.33875261 1.06444794 0 2.19879203-.07292022 3.34873767-.12961704 1.84141723-.1052941 3.7216674-.17816572 5.38438946.12961704 3.99362996.73703441 3.10787719 3.35317168 5.68742303 6.22044347l.99449739 1.03671763c2.48630952 2.04110187 4.63853001 3.6366882 6.81403628 6.09898268 4.36656745 4.94070706 9.54893712 10.49697963 12.1207055 16.66883393 1.74045007 4.18749785.68373298 10.58611514.63712259 15.15426737-.05439562 5.87217108-1.79479908 10.80481909-3.2477239 16.4015813-1.26645995 4.85972779-1.60055675 9.96243387-2.46297713 14.92745577-1.11105832 6.42293213-2.12111064 12.75678545-2.63393369 19.22831486-.3962621 5.07843174 6.47216979-3.32079779 6.4876781 1.765693.01555492 5.27281276 0 11.20168876 1.14994564 16.30438674l-.00002331-.0000081z"/>
          <g>
            <path fill="rgb(255,182,182)" fill-rule="evenodd" d="M382.8964856 186.8936046l17.30156008 3.22898943-.39048145 10.56059347-18.17574378-4.09238487c-.4954034.28951018-1.03878465.50992314-1.6224129.64290959-3.17426145.72325708-6.30999299-1.3729298-7.00377218-4.68195895-.6938025-3.30902106 1.31702511-6.57786026 4.49130987-7.30112545 2.02438573-.46125296 4.02996104.22754866 5.39959475 1.64297678h-.00005439z"/>
            <path fill="rgb(63,61,86)" fill-rule="evenodd" d="M452.19210848 211.68339195c-.76141437 1.61990926-1.94242324 3.02111458-3.45752114 4.04166551-2.23767158 1.50650752-4.86383557 1.91959248-7.29574947 1.36882333-.29524834-.06481257-1.29752319-.35638004-2.83590686-.82612133-.26419287-.08102786-.54388628-.16199902-.83914238-.25113453-1.74818092-.52643811-4.02469319-1.222991-6.6275248-2.00867129-2.57954583-.7856317-5.50095816-1.66850654-8.5233765-2.57564763l-.01555492.00810765c-.916816-.29157557-1.86469524-.57508399-2.8048514-.85855191h-.01555492c-7.03156437-2.0815915-14.38944031-4.20366454-19.750544-5.56438832-.24863795-.07292022-1.53838367 1.21493194-1.77924415 1.15011937-.37297634-.09719455-.44288027-1.57941963-.79252423-1.66850654-.7536369-.19438101-1.74040345 1.02865858-2.36197112.86665956-2.26100396-.57508399-3.16227281-5.58870316-3.16227281-5.58870316l.101006-.84233662 1.1343441-10.1244329.01555493-.17821432 6.39444178-2.0977582 2.12893472 2.14634738 2.95247556-1.27969592 2.75045577 2.14634737 5.61747248.58319164 2.42419083.25919358.16313247.00810765 13.55812201 1.4174206 3.99362996.42114401c-.31858072-1.68467323-.56721867-3.35322027-.74590606-4.99740388-.04661816-.46168224-.09323632-.91524873-.12429178-1.36882333l-.00777747-.00810764c-.08545885-.97195366-.1398467-1.92769203-.1786874-2.89154614.5205539-.89904154 1.11878917-1.80618263 1.81030739-2.72143946 4.00918488-5.32951768 5.0580779-9.34686026 12.01973834-9.33875261 1.06444794 0 2.19879203-.07292022 3.34873767-.12961704l1.79479908 16.57168797 1.97348647 18.22397922.06217309.59125068c.20201978 1.94390732-.13206925 3.8472845-.92459347 5.51579105l-.00000777.0000162z"/>
          </g>
          <path fill="rgb(242,242,242)" fill-rule="evenodd" d="M418.59299581 181.63852985c-.88575277-.6641709-2.02015125-.7856317-3.02241833-.32394946l-30.19301913 13.87452285c-2.75045577 1.26352923-5.85833296 1.49029223-8.74868206.63984796l-.44290358-.12956034c1.25745488-11.64485544-1.95105537-24.1767084-8.25141393-37.32272565-.81581-.11340175-1.63159668.11339365-2.2920439.6479475-.77696929.63178892-1.2120721 1.58752729-1.18096225 2.62424492l.94787924 36.49656382.31855741 12.1169537c-6.88588263 8.59906963-9.376077 16.55468702.59045782 22.68683734.03110985 1.14201173.62936844 2.16255457 1.59284922 2.71333182.96343415.5588687 2.10555571.5426534 3.05348156-.04048964l.61379021-.38070297 8.29024686 12.10882985c.55166374-.226763 1.12661325-.34016475 1.70934023-.34016475.80030168 0 1.60055675.2105963 2.31535296.63984796l15.08099737 9.04722564 10.2715108 6.16374665c.916816.55076105 2.02792872.5750354 2.9680305.06481257.94014838-.51837906 1.54616112-1.48223317 1.63939744-2.58375528l.28752526-3.64479584.9556567-11.98736905 1.56949351-19.77907592.74585945-9.43598766.11656093-1.40931296 2.3464162-29.57145172c.09328294-1.14201173-.38848464-2.2192676-1.28196826-2.87533084v-.0000243l.00000777-.0000162z"/>
          <path fill="rgb(230,230,230)" fill-rule="evenodd" d="M420.9239037 185.688303c-.88575277-.66417089-2.02016679-.78563979-3.02244164-.32395755-10.92209828 8.7659608-21.48393142 15.79253592-30.19301913 13.87452285-2.75045577 1.26352923-5.85830965 1.49030033-8.74865875.63985606l-.44290357-.12956034c1.25745488-11.64485544-1.95105538-24.1767084-8.25141394-37.32272565-.81581-.11340175-1.63159668.11339365-2.29204389.6479475-.7769693.63178892-1.2120721 1.58752729-1.18096225 2.62424492l.94787923 36.49656382.31855741 12.1169537c-6.88588263 8.59906964-9.376077 16.55468702.59045782 22.68683734.03110985 1.14201173.62936844 2.16255457 1.59284922 2.71333182.96343416.5588687 2.10555571.5426534 3.05348157-.04048964l.6137902-.38070297 8.29024686 12.10882985c.55166375-.226763 1.12661326-.34016475 1.70934023-.34016475.80030168 0 1.60055675.2105963 2.31535297.63984796l15.08099737 9.04722564 10.2715108 6.16374665c.916816.55076105 2.02792871.5750354 2.96803048.06481257.9401484-.51837906 1.54616114-1.48223317 1.63939745-2.58375527l.28752526-3.64479585.9556567-11.98736905 1.56949352-19.77907592.74585944-9.43598766.11656094-1.40931296 2.3464162-29.57145172c.09328293-1.14201173-.38848465-2.2192676-1.28196827-2.87533084v-.0000243l.00000777-.0000162z"/>
          <rect width="23.848" height="1.46" x="391.982" y="205.032" fill="rgb(255,255,255)" rx="0" ry="0" transform="rotate(-13.668815 403.90586077 205.76177916)"/>
          <rect width="23.848" height="1.46" x="391.982" y="215.98" fill="rgb(255,255,255)" rx="0" ry="0" transform="rotate(-13.668815 403.90575345 216.7099442)"/>
          <rect width="1.4" height="24.86" x="403.206" y="215.959" fill="rgb(255,255,255)" rx="0" ry="0" transform="rotate(-88.792272 403.90641959 228.38861966)"/>
          <rect width="1.4" height="24.86" x="403.206" y="226.907" fill="rgb(255,255,255)" rx="0" ry="0" transform="rotate(-86.673111 403.90596632 239.33722935)"/>
          <rect width="1.4" height="24.86" x="401.806" y="238.585" fill="rgb(255,255,255)" rx="0" ry="0" transform="rotate(-80.881459 402.50582412 251.01546598)"/>
          <path fill="rgb(242,242,242)" fill-rule="evenodd" d="M319.58840568 260.748119h179.5531992c1.54407108 0 2.79579193 3.69624415 2.79579193 8.25580276v18.31645984c0 4.5595505-1.25171308 8.25578657-2.79579193 8.25578657h-153.1362664c-1.54407109 0-2.79579193-3.69623606-2.79579193-8.25578657l-26.41695611-18.31645984c0-4.5595505 1.25171307-8.25580277 2.79579193-8.25580277h.0000233z"/>
          <path fill="rgb(63,61,86)" fill-rule="evenodd" d="M448.54520107 143.78043229c-.1243384-.2268116-.2564154-.44546695-.3962621-.65606325-.13211587-.21870395-.2797478-.42930026-.42732535-.63178891-.06995055-.1052941-.13989332-.20248866-.21757471-.29157557-.69928791-.93146403-1.4762572-1.68472184-2.26873481-2.13828833-.05439562-.03238199-.10878347-.06476397-.1631791-.08908691-.12429177-.07287162-.24863794-.12956844-.38070718-.17816572-.24086048-.09719456-.48172097-.17010667-.73035114-.20248866-.11656093-.0162153-.23308302-.02432294-.34964395-.02432294-.08545886 0-.17090994.00810765-.25641541.0162153-.04661816.00810764-.1009594.01616669-.15535501.02427434-.06217309.00810764-.13211586.02432293-.19424233.04048963-.06995054.01621529-.1398467.04053823-.20201978.06481257-.06217309.02432293-.13206925.04859728-.19424233.08102786-.06995054.03238198-.1398467.06476397-.20201979.1052941-.06995054.04048963-.13206924.08097927-.19424232.1214608-.06995055.04859728-.13206924.09719455-.19424232.14578373 2.37752605 1.40125391 4.70843394 2.89154614 6.97716875 4.45475048-.1398467-.29157557-.28747864-.56697634-.45061112-.84233662v.0000081z"/>
          <path fill="rgb(63,61,86)" fill-rule="evenodd" d="M448.54520107 143.78043229c-.1243384-.2268116-.2564154-.44546695-.3962621-.65606325-.13211587-.21870395-.2797478-.42930026-.42732535-.63178891-.06995055-.1052941-.13989332-.20248866-.21757471-.29157557-.69928791-.93146403-1.4762572-1.68472184-2.26873481-2.13828833-.05439562-.03238199-.10878347-.06476397-.1631791-.08908691-.12429177-.07287162-.24863794-.12956844-.38070718-.17816572-.24086048-.09719456-.48172097-.17010667-.73035114-.20248866-.11656093-.0162153-.23308302-.02432294-.34964395-.02432294-.08545886 0-.17090994.00810765-.25641541.0162153-.04661816.00810764-.1009594.01616669-.15535501.02427434-.06217309.00810764-.13211586.02432293-.19424233.04048963-.06995054.01621529-.1398467.04053823-.20201978.06481257-.06217309.02432293-.13206925.04859728-.19424233.08102786-.06995054.03238198-.1398467.06476397-.20201979.1052941-.06995054.04048963-.13206924.08097927-.19424232.1214608-.06995055.04859728-.13206924.09719455-.19424232.14578373 2.37752605 1.40125391 4.70843394 2.89154614 6.97716875 4.45475048-.1398467-.29157557-.28747864-.56697634-.45061112-.84233662v.0000081z"/>
          <path fill="rgb(63,61,86)" fill-rule="evenodd" d="M487.37035686 122.24369812H235.77990538v1.61990927h146.7073505c14.89448588 0 29.15190357 2.80245922 42.32927177 7.9375959h.00777747c1.810354.70466052 3.58959815 1.44980258 5.35332622 2.24354192 4.07131135 1.81429028 8.01833092 3.8634998 11.84100433 6.12325702 2.37752605 1.40125391 4.70843394 2.89154614 6.97716875 4.45475048 4.84828064 3.32890544 9.44796996 7.01423141 13.76791925 11.02347444l.00777747.00810765c.19424232.17010667.38070718.34021334.56717205.5264867 24.62213372 23.07558318 40.10717843 56.54293287 40.10717843 93.77652301v91.22519022c0 9.05528468-6.8839402 16.42590423-14.76241665 7.89705766-.1786874-.19438101-.35742141-.38876202-.53610881-.59935833H337.56288333v11.08017127h149.80742691c9.71989368 0 17.62943336-8.24533006 17.62943336-18.3778706v-200.5609579c0-10.13254055-7.90953968-18.3778706-17.62943336-18.3778706h.00004662v-.0000081z"/>
          <path fill="rgb(63,61,86)" fill-rule="evenodd" d="M448.54520107 143.78043229c-.1243384-.2268116-.2564154-.44546695-.3962621-.65606325-.13211587-.21870395-.2797478-.42930026-.42732535-.63178891-.06995055-.1052941-.13989332-.20248866-.21757471-.29157557-.69928791-.93146403-1.4762572-1.68472184-2.26873481-2.13828833-.05439562-.03238199-.10878347-.06476397-.1631791-.08908691-.12429177-.07287162-.24863794-.12956844-.38070718-.17816572-.24086048-.09719456-.48172097-.17010667-.73035114-.20248866-.11656093-.0162153-.23308302-.02432294-.34964395-.02432294-.08545886 0-.17090994.00810765-.25641541.0162153-.04661816.00810764-.1009594.01616669-.15535501.02427434-.06217309.00810764-.13211586.02432293-.19424233.04048963-.06995054.01621529-.1398467.04053823-.20201978.06481257-.06217309.02432293-.13206925.04859728-.19424233.08102786-.06995054.03238198-.1398467.06476397-.20201979.1052941-.06995054.04048963-.13206924.08097927-.19424232.1214608-.06995055.04859728-.13206924.09719455-.19424232.14578373 2.37752605 1.40125391 4.70843394 2.89154614 6.97716875 4.45475048-.1398467-.29157557-.28747864-.56697634-.45061112-.84233662v.0000081z"/>
          <path fill="rgb(63,61,86)" fill-rule="evenodd" d="M448.54520107 143.78043229c-.1243384-.2268116-.2564154-.44546695-.3962621-.65606325-.13211587-.21870395-.2797478-.42930026-.42732535-.63178891-.06995055-.1052941-.13989332-.20248866-.21757471-.29157557-.69928791-.93146403-1.4762572-1.68472184-2.26873481-2.13828833-.05439562-.03238199-.10878347-.06476397-.1631791-.08908691-.12429177-.07287162-.24863794-.12956844-.38070718-.17816572-.24086048-.09719456-.48172097-.17010667-.73035114-.20248866-.11656093-.0162153-.23308302-.02432294-.34964395-.02432294-.08545886 0-.17090994.00810765-.25641541.0162153-.04661816.00810764-.1009594.01616669-.15535501.02427434-.06217309.00810764-.13211586.02432293-.19424233.04048963-.06995054.01621529-.1398467.04053823-.20201978.06481257-.06217309.02432293-.13206925.04859728-.19424233.08102786-.06995054.03238198-.1398467.06476397-.20201979.1052941-.06995054.04048963-.13206924.08097927-.19424232.1214608-.06995055.04859728-.13206924.09719455-.19424232.14578373 2.37752605 1.40125391 4.70843394 2.89154614 6.97716875 4.45475048-.1398467-.29157557-.28747864-.56697634-.45061112-.84233662v.0000081z"/>
          <path fill="rgb(63,61,86)" fill-rule="evenodd" d="M448.54520107 143.78043229c-.1243384-.2268116-.2564154-.44546695-.3962621-.65606325-.13211587-.21870395-.2797478-.42930026-.42732535-.63178891-.06995055-.1052941-.13989332-.20248866-.21757471-.29157557-.69928791-.93146403-1.4762572-1.68472184-2.26873481-2.13828833-.05439562-.03238199-.10878347-.06476397-.1631791-.08908691-.12429177-.07287162-.24863794-.12956844-.38070718-.17816572-.24086048-.09719456-.48172097-.17010667-.73035114-.20248866-.11656093-.0162153-.23308302-.02432294-.34964395-.02432294-.08545886 0-.17090994.00810765-.25641541.0162153-.04661816.00810764-.1009594.01616669-.15535501.02427434-.06217309.00810764-.13211586.02432293-.19424233.04048963-.06995054.01621529-.1398467.04053823-.20201978.06481257-.06217309.02432293-.13206925.04859728-.19424233.08102786-.06995054.03238198-.1398467.06476397-.20201979.1052941-.06995054.04048963-.13206924.08097927-.19424232.1214608-.06995055.04859728-.13206924.09719455-.19424232.14578373 2.37752605 1.40125391 4.70843394 2.89154614 6.97716875 4.45475048-.1398467-.29157557-.28747864-.56697634-.45061112-.84233662v.0000081z"/>
          <path fill="rgb(255,182,182)" fill-rule="evenodd" d="M444.23486328 167.1118164c-.45031738-.02148437-.9029541-.06396484-1.3569336-.12109374-10.66174316-1.36328125-18.24084472-11.4741211-16.93981933-22.58789063.01733399-.16699219.04211426-.328125.06616211-.49609375 1.5279541-10.8515625 11.100708-18.50830078 21.60205078-17.16259766 10.6541748 1.3569336 18.24072266 11.4741211 16.93896485 22.58056641-.55566407 4.7055664-2.61132813 8.8383789-5.6151123 11.9350586-2.84118653 2.9345703-6.52331544 4.93603515-10.57641602 5.61328124-1.3338623.23583985-2.71801758.31884766-4.11889649.23876954z"/>
          <path fill="rgb(47,46,65)" fill-rule="evenodd" d="M421.62305176 143.16314157c2.75984156 1.4227663 7.2693869-3.05015956 8.99651195-.4766583.28050146-.55614725.5904112-1.09400573.89647495-1.60265724.27709056-.4551297.67325943-1.42668648 1.13183448-1.59307546-.58026398 1.45938435-.45226606 3.43587614.14990069 5.1292645 2.7224771 1.0604007 6.28608564-1.28687213 8.80578153-4.06329941 3.95655298-4.35342515 10.41700607 6.81005805 8.88943004 12.58736724 1.94408596-2.47475158 6.16278062-1.07897296 7.59224096 1.75066024 1.42879215 2.8225623-.98543793 5.08409333-1.50177288 8.23249228l3.89736347-.5159654c2.45889804-2.49653936 2.28694697-6.70337892 4.31193097-9.59688515 3.38212404-4.84241906 4.69259153-9.78327191 2.1500372-14.78086208-2.25531654-4.41889379-2.46610831-10.13788625-6.60367183-12.68550945 1.80779-.92138819-4.62107929.51804698-2.90386837-2.48466543 1.72480192-2.99641096-7.46874945-3.36010489-8.06840658-1.754791-2.6271119-3.27758672-5.276888-5.43856188-8.50844316-2.81228398-3.17384188 2.58383627-2.84539365 5.29975184-6.5729427 5.05636858-1.7490822-.11297248-1.55697654 3.286642-2.59680233 4.76881038-1.03376541 1.47424702-5.05219623 2.42066281-5.24776717 2.26289985-1.06141-.86566331-4.67239034 6.50361171-4.67239034 6.50361171s-2.92795441 4.63340217-.14549527 6.07517002h.00004662l.00000777.0000081z"/>
          <g>
            <path fill="rgb(230,230,230)" fill-rule="evenodd" d="M332.84667969 72.7475586h40.00610351c3.53515625 0 6.41784668 3.0048828 6.41784668 6.69042968v41.70458984c0 .3725586-.03112793.7451172-.09326172 1.10107422-.08544921.56738282-.24084472 1.10986328-.46618652 1.6201172-1.00231934 2.33251952-3.25549316 3.9609375-5.85839844 3.9609375H332.8466797c-2.60290528 0-4.8560791-1.62841798-5.85839844-3.9609375-.2175293-.51025392-.3729248-1.05273438-.46618652-1.6201172-.05444336-.35595703-.08544922-.72851562-.08544922-1.10107422V79.43798828c0-3.68554687 2.87475586-6.69042969 6.41003418-6.69042969zm40.00610351 54.29101562c2.18322754 0 4.07128907-1.28759766 5.01147461-3.17480469.25634766-.50195312.4428711-1.04492187.54382324-1.62011719.0699463-.35595703.10107422-.72851562.10107422-1.1015625v-21.02636718q0-2.00439454-.27978515-3.93603516c-.00769043-.03271484-.00769043-.07324219-.01550293-.11376953-.02331543-.19433594-.0621338-.3803711-.09326172-.57470703-.84692383-5.04638672-3.0612793-9.61425782-6.23132324-13.24316407l-.03881836-.04003906c-.02331543-.02441406-.04663086-.04882812-.0699463-.08105469-4.66174316-5.28125-11.34375-8.59375-18.76379394-8.59375H332.8466797c-3.03796387 0-5.5164795 2.5029297-5.64086914 5.64550782v.0078125c-.01550293.08105468-.01550293.16210937-.01550293.25146484v41.70410156c0 .37304688.03100586.74560547.10095215 1.1015625.10107421.57519532.28747558 1.11767578.5439453 1.6201172.94006348 1.88720702 2.828125 3.17480468 5.01135255 3.17480468h40.00622558z"/>
            <path fill="rgb(108,99,255)" fill-rule="evenodd" d="M378.55939637 100.28978873c0-14.8020262-12.71903402-27.74997715-26.74689613-30.04216496-17.75624251-2.90140328-34.0809191 13.411326-31.73179905 30.12949426 2.05789643 14.64576975 26.17273136 35.88806111 32.76874228 22.78004693 7.54770507-14.99925015 25.70996067-8.06535004 25.70996067-22.86737623h-.00000777z"/>
            <g>
              <path fill="rgb(255,255,255)" fill-rule="evenodd" d="M358.17585548 88.55046018h-12.91322972c-.32631157 0-.59050444.27540887-.59050444.61557362 0 .34016475.26419287.61557362.59050444.61557362h12.91322972c.32631157 0 .59050444-.27540887.59050444-.61557362 0-.34016475-.26419287-.61557362-.59050444-.61557362z"/>
              <path fill="rgb(255,255,255)" fill-rule="evenodd" d="M358.17585548 101.67984097h-12.91322972c-.32631157 0-.59050444.27536027-.59050444.60746597 0 .34016475.26419287.62363267.59050444.62363267h12.91322972c.32631157 0 .59050444-.28346792.59050444-.62363267 0-.3321057-.26419287-.60746597-.59050444-.60746597z"/>
              <path fill="rgb(255,255,255)" fill-rule="evenodd" d="M365.10640607 95.11917605h-26.7743309c-.32635819 0-.59050444.27540887-.59050444.61557362 0 .34021334.26414625.61557362.59050444.61557362h26.7743309c.32635819 0 .59050444-.27536028.59050444-.61557362 0-.34016475-.26414625-.61557362-.59050444-.61557362z"/>
            </g>
          </g>
          <g>
            <path fill="rgb(255,182,182)" fill-rule="evenodd" d="M413.73139014 215.03768946l15.81956108 7.98549661-3.11513408 10.05714997-16.43723613-9.06313314c-.55204446.1390854-1.13235506.198123-1.72874115.16165074-3.24359819-.19840649-5.71881259-3.10038484-5.5285095-6.48171054.19035748-3.3813257 2.97409862-5.96161437 6.21774342-5.76319979 2.06861083.12653922 3.82082422 1.3549974 4.7723086 3.10376235v-.0000162h.00000776z"/>
            <path fill="rgb(63,61,86)" fill-rule="evenodd" d="M481.19339656 205.13532182v-.00810764c-1.49181213-2.43797154-3.90817888-4.24415417-6.83732205-4.81923816l-2.20661611-.4373593c-5.43878508 10.5780075-10.46575313 21.38281848-11.40590152 34.48788443l-23.06044097-9.43598766-1.04116217-.42114401-2.0900474-2.84294886-3.17778113.39686967-.5594412-1.00433565v-.00810764l-.93237093-1.6442322-6.69747534.21870395-.06212646.15389138-.00777747.00810764-3.26327882 8.27771204-.00777746.00810765-.44288027 1.13395268-.31075664.7856317s-.19424232 2.23548288.27970118 4.09837044v.01621529c.23308302.93146402.6371226 1.765693 1.31307811 2.16256267.55939459.32399805 1.82586231-.5750354 2.50181783-.17816572.31080326.18627336-.00777746 1.6441836.32635818 1.83856461.2175281.12961704 1.78702162-.74514206 2.01232718-.61552502 1.78702161 1.04482528 3.8071651 2.27597252 5.95933897 3.60425762 1.09555002.68038618 2.22217104 1.37693097 3.37207006 2.10591444 11.98085102 7.50824704 26.22271378 16.95234235 27.40372265 17.60029795.08545886.04859728.17090994.08908691.2563688.12961704 2.14444302 1.10963785 4.6773707 1.38499003 7.12483953.60746598.51277643-.16199903 1.00227485-.36448769 1.46070228-.60746598.84687322-.42930025 1.61606506-.98816895 2.28428973-1.6442322 1.53838367-1.47412553 2.58727668-3.46658153 2.95247556-5.71017206l6.35560108-40.67594592c.42732535-2.73764665-.17095655-5.41048884-1.49954297-7.58116725l.00000777.0000081z"/>
          </g>
          <path fill="rgb(242,242,242)" fill-rule="evenodd" d="M361.83544922 242.81347656c-.73034668-3.09423828-2.91369629-5.38623047-5.46203613-6.08251953-1.01782227-.29199219-2.0979004-.32421875-3.17004395-.04882812-1.14990234.2915039-2.1833496.89892578-3.01464844 1.765625-2.12121582-1.0366211-5.07373047-1.1904297-8.35241699-1.1904297h-5.43884277c-6.43334961 0-11.65454102 5.6694336-11.65454102 12.14892579-1.67822265 5.70214844.39624024 9.61425781 4.21118164 11.33984375 2.0744629.93945312 4.66174317 1.23095703 7.44335938.80957031h5.43884277c1.88793945.3725586 3.69055176.04882813 5.29882813-.80957031 2.8359375-1.50683594 5.06591796-4.66552734 6.0526123-8.54541016.70703125.25927735 1.44519043.40527344 2.19885254.40527344.49731445 0 1.00231934-.0649414 1.49951172-.18652344 1.83361816-.46972656 3.35656738-1.74121093 4.28894043-3.57177734.91674805-1.80615234 1.14990234-3.94433594.66040039-6.03417969zm-5.92053223 4.46289063c-.53613281 1.06103515-1.32080078 1.87109375-2.26867676 2.36523437.17089844-1.63623047.13977051-3.35302734-.1553955-5.09472656 0-2.47851563-.71484375-4.11425781-1.93469239-5.19970703.58276368-.52636719 1.258667-.89892578 2.0123291-1.09326172.38073731-.09716797.76147461-.1459961 1.13439942-.1459961.47387695 0 .92456055.03222657 1.34411621.11328126 1.8104248.33203125 3.08459473 1.44189453 3.6595459 3.89599609.24731445 1.06152344-1.00354004 2.24316406-2.1583252 3.3334961-.6953125.65673827-1.35583496 1.28076171-1.63330078 1.82568359zm-2.50183105 3.39404297c.29528808.0727539.45837402.08105468.10876465-.06494141.04663086-.31591797.09313964-.64013672.12426757-.96386719-.31860351.16992188-.66040039.29980469-1.01000976.38867188-.64489746.16210937.26416015.5102539.77697754.64013672z"/>
        </g>
        <path fill="rgb(242,242,242)" fill-rule="evenodd" d="M260.85681152 258.05419922c0-6.47998047-5.2211914-12.14941406-11.65454101-12.14941406h-5.43884278c-3.09228515 0-5.8972168.1376953-7.97949218 1.0205078-.13208008.05664063-.24865723.11328126-.3729248.16992188-.83911134-.86669922-1.8647461-1.47412109-3.01464845-1.765625-2.07446289-.52636718-4.1878662.0810547-5.83496093 1.4741211-1.32092285 1.10986328-2.34643555 2.72167968-2.79711914 4.65722656-.48950196 2.08984375-.25646973 4.22802734.66040039 6.03417969.47399902.93164062 1.09558105 1.70898437 1.84143066 2.31640625.71484375.5913086 1.54614258 1.02050781 2.44750977 1.2553711.49719238.12158202 1.00219726.18652343 1.49951172.18652343.7536621 0 1.49169921-.1459961 2.19885253-.40478516.6447754 2.55126953 1.83361817 4.7866211 3.37194825 6.44726563 2.13671875 2.30810547 4.94934082 3.50683593 7.97949218 2.90771484h5.43884278c7.9095459 1.19042969 14.24182129-3.35351562 11.65454101-12.14941406zm-28.74780273-4.85986328c-.29528809 1.74169922-.32641602 3.4584961-.15551758 5.09472656-.65258789-.34033203-1.21972656-.82617188-1.68591309-1.44189453-.21765136-.28320313-.41186523-.59082031-.58276367-.92333985-.27746582-.54492187-.93798828-1.1689453-1.63330078-1.82568359-1.15478515-1.09033203-2.40563965-2.27197266-2.1583252-3.3334961.39624024-1.6767578 1.1188965-2.72949218 2.11340333-3.32910156l.00769043-.0078125c.79260254-.47802734 1.75598144-.67236328 2.87487793-.67236328.38061523 0 .76135254.04882813 1.14208984.1459961.7536621.19433593 1.4296875.56689453 2.0123291 1.09326172-1.21984863 1.08544921-1.93457031 2.7211914-1.93457031 5.19970703zm-.03112793 6.05859375c-.94787598.38867187 1.90356445-.31591797.88574219-.57519532-.34960938-.08886718-.69140625-.21875-1.01000977-.38867187.03112793.32373047.07775879.64794922.12426758.96386719z"/>
        <path fill="rgb(242,242,242)" fill-rule="evenodd" d="M90.68785074 332.30052363h179.55322251c1.54407109 0 2.7957997 3.69623607 2.7957997 8.25581087l-23.30907892 18.31645174c0 4.55955051-1.25172861 8.25578657-2.7957997 8.25578657H90.68785074c-1.54407885 0-2.7957997-3.69623606-2.7957997-8.25578657V340.5563345c0-4.5595505 1.25172085-8.25581087 2.7957997-8.25581087z"/>
        <g>
          <path fill="rgb(255,182,182)" fill-rule="evenodd" d="M164.90889955 250.32738039l3.16357035 21.93666546-11.76898704 3.63233874-2.55310557-23.31686055c-.51077185-.47983333-.96415674-1.04388573-1.33698546-1.68997034-2.02775001-3.51398007-.93892855-8.07623583 2.43193721-10.19007973 3.37086576-2.1138439 7.74733957-.97878967 9.77508958 2.5351904 1.2931877 2.24102297 1.31394055 4.9060005.2884887 7.09272412l-.00000777-.0000081z"/>
          <path fill="rgb(108,99,255)" fill-rule="evenodd" d="M171.43501431 281.41916555c.83914239 9.90572895-4.80939333 5.57248786-9.25368102 15.24335427-1.68600783 3.66907019-6.68969788 3.12641678-8.54666227 6.47963706-2.82817601 5.10270608-.22530556 28.01630642-5.24454276 30.83498094-5.04252297 2.83484121-7.41227155-5.36189966-11.39812405-9.5817795-3.90040141-4.13075242-8.46898088-2.51084316-11.80216363-7.11948501-3.35651513-4.62485715-7.15590276-8.74755053-10.5124179-13.34808474-.06990393-.0890869-.13206924-.18627336-.19424232-.27536027-1.53838367-12.61910937-6.5498434-27.48175257-4.45201854-34.18820122 2.77378817-1.05293293 5.76509665-1.75758536 8.103782-1.73331102 4.30439437.05670493 2.48630953 2.50278412 6.18469115 4.43047614 3.1078772 1.61990926 6.94610552 10.09200232 9.94519924 11.97921281 2.13666557 1.33644134 7.41227156 11.95493847 10.1705048 11.03968164 4.5141916-1.49839987 8.9584793-23.16468628 7.90180882-27.13348018-.89353023-3.31273874-5.35332622-7.45969836-5.47762577-10.79671144-.00777747-.1214608-.00777747-.25108594 0-.37254674 4.48308176 1.6766142 12.81221594-2.59997057 17.40408118-1.05298152 3.27883374 1.10968645 7.1481253 5.2809204 7.37343086 8.83662934.23308302 3.64479584-.51277643 13.10505785-.20201979 16.75796134v.0000081z"/>
        </g>
        <path fill="rgb(242,242,242)" fill-rule="evenodd" d="M224.27709248 244.07892868c-.81581-.9800127-2.03565956-1.4335873-3.26327882-1.2068243l-36.04361347 6.7145077c-3.25550136.61557362-6.65085719.0162153-9.5333822-1.6765656l-5.34554877-3.13452442-10.00736455-5.87217108-1.94242324-1.13395268-8.14266931-4.77874853-2.55621345-1.49839987c-.97898909-.575084-2.13666557-.63178891-3.16227281-.14578374-1.02560725.47784894-1.74818092 1.4174206-1.98126394 2.55943234l-2.52515022 12.30320276-.18646486.88287485-1.42186935 6.9413193-3.55853492 17.2925152-.55939459 2.7457543-.24863794 1.190609-1.81813147 8.86901133-.34186649 1.63612455-4.82494826 23.49679198-.4195945 2.03294563c-.23308302 1.14206033.04666478 2.2921878.7769693 3.15073162.077728.1052941.17095655.20248866.27197033.29968321.92459347.8909825 2.1910612 1.1906576 3.38757837.80995463l1.01005232-.32394945 7.6065605-2.40558956 17.42741357-5.5076834 3.72944485-1.18254996 4.5841344-1.44980259c.48172096-.15389138.97121162-.2268116 1.46070228-.2268116 1.28196826 0 2.54065852.50222047 3.48858437 1.4498512l22.53210186 22.33856495.99449739.98812035c.87020561.86665955 2.0900474 1.19871666 3.25550135.8909339 1.00232148-.25914499 1.81813147-.93952308 2.26873481-1.87905425.08550547-.16199903.15540163-.3321057.20979725-.51027142l6.30121323-19.76290922 1.0799951-3.38560227 3.51191676-11.0153668.27970118-.8747672c15.41094515 10.26077257 12.91287231-22.13493425 14.38170946-45.08209912.39626211-1.23109864.1398467-2.55942424-.67596329-3.53948554l.00000777-.0000162z"/>
        <path fill="rgb(230,230,230)" fill-rule="evenodd" d="M219.6152767 248.12870184c-.81581-.9800127-2.03565956-1.4335873-3.26327882-1.2068243l-36.04361347 6.7145077c-3.25550136.61557362-6.65085719.0162153-9.5333822-1.6765656l-5.34554877-3.13452442-10.00736455-5.87217108-1.94242324-1.13395268-8.14266932-4.77874853-2.55621345-1.49839987c-.97898908-.575084-2.13666556-.63178891-3.1622728-.14578374-1.02560725.47784894-1.74818093 1.4174206-1.98126395 2.55943234l-2.52515021 12.30320276-.18646486.88287485-1.42186936 6.9413193-3.55853492 17.2925152-.55939458 2.7457543-.24863795 1.190609-1.81813146 8.86901133-.3418665 1.63612455-4.82494825 23.49679198-.4195945 2.03294563c-.23308302 1.14206033.04666477 2.2921878.7769693 3.15073162.077728.1052941.17095655.20248866.27197033.29968321.92459346.8909825 2.19106119 1.19065761 3.38757837.80995463l1.01005231-.32394945 7.6065605-2.40558956 17.42741357-5.5076834 3.72944486-1.18254996 4.5841344-1.44980259c.48172096-.15389138.97121162-.2268116 1.46070227-.2268116 1.28196826 0 2.54065853.50222047 3.48858438 1.4498512l22.53210185 22.33856495.9944974.98812035c.8702056.86665956 2.0900474 1.19871666 3.25550135.8909339 1.00232147-.25914499 1.81813146-.93952308 2.2687348-1.87905425.08550548-.16199903.15540164-.3321057.20979726-.51027142l6.30121323-19.76290922 1.0799951-3.38560227 3.51191676-11.0153668.27970117-.8747672c15.41094516 10.26077257 12.91287232-22.13493425 14.38170947-45.08209912.3962621-1.23109864.1398467-2.55942424-.6759633-3.53948554l.00000778-.0000162z"/>
        <path fill="rgb(255,182,182)" fill-rule="evenodd" d="M117.88914959 319.10697014l.73795767 32.56659105 44.27760776-1.2710699-8.9477649-36.04481163-36.06780053 4.74929048z"/>
        <path fill="rgb(47,46,65)" fill-rule="evenodd" d="M170.35506584 431.11498875c.53610881-2.6404602-1.18878633-.50217187-2.35424028-1.61990926l-.09323632-.09719456c-1.26645995-1.46601788-2.85923924-2.12208114-2.83595347-3.94447906.02333239-1.82239792-3.02237172-.1944296-4.73171971-1.9762893-.36519888-.38070298-1.40631443-1.1177374-2.82817601-2.04110187-4.4209553-2.8672232-12.47812692-7.54878527-14.8944859-8.94999059-.45065773-.25919358-.70706536-.40497731-.70706536-.40497731s-.00773085.13767608-.03106324.40497731c-.13206924 1.69278088-.67596329 8.55312092-1.33636388 17.00904728-.03888731.53454575-.077728 1.07720726-.1243384 1.61990926H111.7948899c.03106323-.55076105.04661816-1.09347115.054349-1.61990926.04666478-2.52705846-.15535501-4.88405073-.71479621-6.8522324-1.01005232-3.53950173-1.9113134-6.9088887-2.61838654-10.15681488-2.5873233-11.83342907-2.55621344-22.08747901 4.63853002-33.2567372 1.32858642-2.05731716 1.58500183-8.60981773 1.58500183-8.60981773s2.44746882 2.52705845 3.07681395 3.15879067c-.15540163-.17005808-.46621265-.49406423-.97898908-1.02860999-2.9058574-3.02922222-2.81262886-3.94447906-1.32085558-5.62108515.26419287-.29157556.56717205-.60746597.90903854-.963846 2.27651227-2.37315898 0 0-1.14212156-1.39314627-1.13439071-1.40120532 1.70934023-5.14319572 1.70934023-5.14319572l-1.0799951-5.63730044-.62934513-3.27220051 3.30211952-.59935833 8.8419106-1.61180162 33.2853414-6.05849304.62934512 1.67661418 5.64080487 14.95988636c1.3907595.83422897 2.84373094 4.11453713 4.14903936 8.0428414 2.43964474 7.33008132 4.35101252 16.89564552 4.35101252 16.89564552l36.78174985 45.47086115.3573748.44546694c.31080325.38065438.5982819.77757265.87020561 1.17444232h-43.13729654l-.00001554.0000081z"/>
        <rect width="5.439" height="14.579" x="116.34" y="416.536" fill="rgb(230,230,230)" rx="0" ry="0"/>
        <path fill="rgb(242,242,242)" fill-rule="evenodd" d="M88.75772692 412.48603221h60.60361297c4.50563718 0 8.15816985 3.80761293 8.15816985 8.50452364 0 4.69691071-3.65253267 8.50452364-8.15816985 8.50452364H88.75772692c-4.50562941 0-8.15816985-3.80761293-8.15816985-8.50452364 0-4.69691071 3.65254044-8.50452364 8.15816985-8.50452364z"/>
        <path fill="rgb(242,242,242)" fill-rule="evenodd" d="M84.09592668 429.49507949h-.00001554c-3.64742021 0-6.60423126-3.08233905-6.60423126-6.88461438v-81.80544214c0-3.80227532 2.95681882-6.88459007 6.60423126-6.88459007h.00001554c3.6474202 0 6.60423126 3.08233905 6.60423126 6.88461437 20.05860455 16.00206308 11.90588902 47.8497384 0 81.80539354 0 3.80225103-2.95681882 6.88461438-6.60423126 6.88461438v.0000243z"/>
        <path fill="rgb(108,99,255)" fill-rule="evenodd" d="M163.73527189 339.59011532c-1.28056972 9.78950856-10.24822504 1.16633467-19.2688308-.46168224-8.39126065-1.50650751-18.36756197 13.75301346-27.34932704 15.04086562-5.80393735.83422897-1.22762703-4.18749785.7769693-25.91854823.2564154-2.79435158-3.01464088-21.31801401-3.410903-24.59832217-1.53838366-12.61910937-6.5498434-27.48175257-4.45201853-34.18820122.35742142-1.16633467.93237093-2.0815915 1.77924416-2.69716513 3.9858525-2.90771283 5.76514326-5.24848981 8.44565626-9.42783142 2.26878142-3.54760129 3.91595634-6.28525604 8.14266931-6.56877256 3.9858525-.26725263 8.50004412.63989656 12.34600329 1.51461516 4.2034272.96384601-.56717205.62372986.4584352 3.06976045.4972215 1.19876526 1.3519188 5.62108515 2.33090789 7.2895917 2.97165116-.8892492 6.16819608.1069302 8.18542593 2.5492917 2.34680468 2.84137755 4.46090706 5.4506302 5.91658235 9.50284942 2.19101457 6.05843635-3.33322936 16.8389487-.89353023 22.77593235 2.19883865 5.36189967-3.17782773 16.79034333-.7769693 21.05882044 3.0457041 5.43476318 10.10060087 3.23981852 7.76969298 21.05882043v-.0000243h-.00000777z"/>
        <rect width="1.554" height="27.586" x="193.976" y="248.921" fill="rgb(255,255,255)" rx="0" ry="0" transform="rotate(-82.73673 194.75340338 262.71404548)"/>
        <rect width="1.554" height="27.586" x="192.544" y="256.881" fill="rgb(255,255,255)" rx="0" ry="0" transform="rotate(-82.73673 193.32070105 270.6742777)"/>
        <rect width="1.554" height="27.586" x="191.767" y="263.361" fill="rgb(255,255,255)" rx="0" ry="0" transform="rotate(-82.73673 192.5436974 277.15393868)"/>
        <ellipse cx="141.322" cy="234.696" fill="rgb(255,182,182)" rx="16.173" ry="16.86"/>
        <g>
          <path fill="rgb(255,182,182)" fill-rule="evenodd" d="M218.92923612 251.59370396l-17.53917284 8.30069045 3.15079698 11.1063328 18.24395391-9.4638339c.60115669.16802509 1.23538118.24910965 1.8896981.22601784 3.55874471-.12552677 6.34605214-3.23474821 6.22562967-6.94453482-.12042248-3.709819-3.10301337-6.61546645-6.66173476-6.48992348-2.2695584.08007212-4.22122757 1.37631541-5.30915552 3.2652349l-.00002331.0000162h.00000777z"/>
          <path fill="rgb(108,99,255)" fill-rule="evenodd" d="M203.87677683 257.7271826l-6.76043317 3.48753506-12.08086251 2.47096909-16.37760373 7.00942028-2.48390869 1.05929917-11.46213078-2.26952528-7.93642282-1.58143642-2.61562052-.5176744-9.5204612-1.89221601-1.89313231-.12350999c-.51817637-.15408577-1.07759426-.30097914-1.6915554-.4320946-1.82858947-.40185898-4.018897-.70626423-6.26374-.82413693-.67587005-.03476325-1.3609472-.05421836-2.04047677-.04864588-5.80839715.01535674-11.37966326 1.44562323-11.51651086 5.76547576-.1067789 3.53199347.5687726 6.907528 1.8694736 9.95159668.1980417.4623302.40529049.90934417.62980353 1.35482732 2.75262352 5.46034965 7.58513946 9.65357387 13.46377463 11.35876326 1.28199157.37018166 2.60968448.61633498 3.97645894.7427203l.28364041-.0286886 1.06261429-.09755903 1.74442039-.16145636 3.20117566-.30110873 25.13258701-2.35223785 3.00406632-.2800742 2.7856758-.2643611.06375033-.03108606c3.55658472-1.59033782 13.37509135-5.9806726 23.28571545-10.52458289 9.08329943-4.16905518 12.91578595-4.68229913 15.61921954-5.78641308.53673816-.21830707 1.02667946-.45426306 1.5081518-.75127342.43103148-.27439643 8.31618986-5.8825466 8.3593272-5.99538948.1426438-.34706556-.01474688-1.0820346-.37247131-2.05010047-1.0149783-2.78937846-3.62016413-7.42304791-4.93507589-9.69879364l-.59929973-1.0230456-7.44011813 3.8347869h-.00000777l-.00002331.0000162z"/>
        </g>
        <path fill="rgb(63,61,86)" fill-rule="evenodd" d="M92.01362453 193.79610277c-9.73646643 0-17.62943335 8.22805372-17.62943335 18.3778706v200.560966c0 3.87160744 1.15767648 7.47591365 3.13120957 10.4403233 1.80252993 2.72143947 4.2966169 4.90832508 7.21025177 6.28525605h.0233324c2.22212441 1.06104057 4.66954662 1.65229125 7.26464738 1.65229125h132.80735423V420.0326387H92.79059383c-2.4707546 9.460262-4.11015204 9.18490983-5.64080487 8.67463031-1.83363977-.59935833-3.52742507-1.53893-5.00368227-2.75386195-.01555493 0-.01555493-.00810764-.01555493-.01616669-1.97348647-1.58752728-3.5584883-3.6367368-4.6384834-6.00989577-.994544-2.17877796-1.55393859-4.6167495-1.55393859-7.19239713v-132.5426445c0-46.82063434 36.40988457-84.77625854 81.32375249-84.77625854h153.02572698v-1.61990926H92.01362454v-.0000324z"/>
        <path fill="rgb(47,46,65)" fill-rule="evenodd" d="M159.76530841 225.66058465c-.00777746 1.733311-.0155083 5.1432443-1.45293258 6.00178812l-.37292973-.18632197c-.24863794-.16199902-.5594412-.41308496-.89353023-.69655288-1.02560724-.8747672-2.33090789-2.0815915-3.2243915-2.24359053-.04661816-1.45791024-.00777746-2.91582048.13206924-4.36561497.0388407-.34832099.07768139-.69660148.12429178-1.04487387-.13206924.23491924-.2563688.46978988-.38070719.71276007-.7381286 1.44174355-1.34414134 2.96445826-1.78702161 4.5276707-1.4762572.01616669-3.44974368-.19438102-4.24999875 1.09342255-1.1577231 1.8709952.4972215 5.8559558-2.32317705 7.58116726-.59823528.36448768-1.39853696.6317889-2.46297713.7532497 1.11883579.18632197 2.54070514.75329831 3.25550135 2.24359053 1.4762572 3.0778195 2.73494747 6.64162799 2.06676164 9.92196045-.101006.48600517-.2409071.963846-.42737196 1.4336359-1.1343441 2.8510079-3.76050809 4.68151347-5.68742302 7.0303981-.0388407.04048963-.06990393.08097927-.1009594.1215094-1.48403466 1.84667226-1.98131055 3.36127932-1.82590892 4.79491522.27970118 2.63235255 2.74272493 4.98118859 5.28338345 8.51263128.94014839 1.3121265-1.86469523 8.12382876-1.06444794 9.53314172.81581 1.40931296 1.2509128 3.19122125.60605936 4.69777737-.69151044 1.60369397-2.24544903 2.31646215-3.97030534 2.59181432-4.92600865-3.52328645-9.16049909-8.01041081-11.06408164-13.29943886-1.6471749-4.56815222-1.56166944-9.71945558 1.31307811-15.37292272-2.75823323 4.97308095-3.79934101 10.95055423-2.89807994 16.62023666.0233324.20248865.05439563.39691826.09323632.59129928.1398467.76135735.37292972 1.44980259.68373298 2.0977582 1.3907595 2.89154613 4.2811086 4.80302286 6.4099967 7.467806-.89353023.93952308-2.35424027 2.37315897-3.77606301 3.69339312-1.2120721 1.13390409-2.4086359 2.17067032-3.19333604 2.7457543-.52837797-.51027141-1.0799951-1.76574159-1.60060337-3.40181755-.20975063-.65606325-.41954788-1.37693097-.6137902-2.13018068-1.21984958-4.56004458-2.21434697-10.4403233-2.4707546-12.24651404-.70701876 1.38499002-.90903854 5.2970871-.80803253 9.32258592.0155083.59125068.0388407 1.18250136.06212646 1.765693.22535218 5.0703241-5.79615988 7.56495196-8.96621015 3.71766746-.65267752-.80184699-1.32085558-1.70088853-2.00459633-2.71333182-.08545885-3.87160744.44288027-7.75938158 1.60833422-11.42845176.03110985-.1052941.04661816-.15389138.04661816-.17010667-.15540163.23487064-1.78702162 4.46285812-3.0690365 7.71889194-.66040836 1.66850654-1.22758041 3.0778195-1.46843312 3.57187563.24086048-1.49839987.69924129-3.34511263 1.18096225-5.15130336 1.09555002-4.0578808 2.3309079-7.87278332 1.56171606-6.8198504-.78474676 1.07725586-1.49176551 2.22737524-2.09782487 3.42614049-1.2120721 2.35694368-2.05893756 4.92449177-2.4862629 7.56495197-.03888732.23491924-.07772802.46978988-.10100602.71276007-.70706537-.18627336-1.39080612-.44546695-2.04342925-.7856317-2.05898418-1.10963784-3.17005027-3.43419953-3.2866112-5.85600438-.18646487-3.79057958 1.42186935-7.22477912 4.73176632-6.69018476 1.25869027.20248865 1.78702162-.575084 1.8569644-1.84672086.17090993-2.63235256-1.57727099-7.3948858-2.59510077-9.95432623-.4351028-1.09347115-.88575277-2.22737524-1.27423741-3.36943557 2.15222049-2.85911555 3.29438866-6.55250868 3.04575072-10.18113783-.7381286 2.70527277-2.05120671 5.23232313-3.81494256 7.3625119-.38070718-1.91148482-.41177042-3.82301015.26419287-5.64540808 2.26095735-6.05844445 7.08596-3.49090446 10.49686298-8.93377529 3.9858525-6.35812766 2.81262885-9.67896595 5.12798182-16.88753788.99454401-3.11025009 3.34873767-5.7182797 6.27015-6.94942694 2.92141233-1.2230396 7.08596-9.00669551 18.12670925-.46168224.1786874-.17010667.3573748-.3320571.54383966-.47789753 3.13120957-2.46224589 6.98499283-.8909339 11.1106998-.3320571 4.36656745.59125068 2.9213657-.27540888 5.27560599 3.6043062.88575277 1.4660179-1.40631443 4.37372262-1.42186936 6.10702554v-.0000162l-.00000777.0000243z"/>
        <g>
          <path fill="rgb(230,230,230)" fill-rule="evenodd" d="M254.35351563 169.14111328c.00524902 0 .0078125.0024414.0078125.00830078 1.05664062 1.19042969 1.69372558 2.77783203 1.69372558 4.51953125v41.70458985c0 3.68505859-2.87475586 6.6821289-6.4099121 6.6821289H209.638916c-3.53515624 0-6.4177246-2.99707031-6.4177246-6.6821289V173.6689453c0-3.68554687 2.88256836-6.69042969 6.4177246-6.69042969h40.0062256c.48168944 0 .94006347.05664063 1.39074706.16210938h.0078125c1.29748535.29980469 2.4473877 1.01220703 3.30981446 2.00048828zm-4.70837403 52.12841797c3.12341309 0 5.65637207-2.64013672 5.65637207-5.89648438v-41.70410156c0-3.25634765-2.53295898-5.90478515-5.65637207-5.90478515h-20.17004394c-7.45898438 0-14.17199707 3.34521484-18.83374024 8.67480468l-.03894043.04003907c-3.17004394 3.62890625-5.38439941 8.19677734-6.23120117 13.24316406-.03112793.19433594-.06994629.3803711-.09326172.57470703-.17089844 1.15039062-.26416015 2.31689453-.28747558 3.49902344-.0078125.18652343-.0078125.3647461-.0078125.55078125v21.02636718c0 3.25634766 2.53295898 5.89648438 5.65637207 5.89648438h40.00610351z"/>
          <path fill="rgb(108,99,255)" fill-rule="evenodd" d="M203.93166971 194.52088257c0-14.8020262 12.7190107-27.74997714 26.74691166-30.04216495 17.75624252-2.90140329 34.0809191 6.93168893 31.73179905 23.6498572-2.05789642 14.64576975-26.17273135 42.36769816-32.76874227 29.25968398-7.54770508-14.99925015-25.70996067-8.06535003-25.70996067-22.86737623h-.00000777z"/>
          <g>
            <path fill="rgb(255,255,255)" fill-rule="evenodd" d="M237.2291629 182.78157022h-12.91322972c-.32631157 0-.59050444.27540888-.59050444.61557362 0 .34016475.26419287.61557362.59050444.61557362h12.91322972c.32631156 0 .59050443-.27540887.59050443-.61557362 0-.34016474-.26419287-.61557362-.59050443-.61557362z"/>
            <path fill="rgb(255,255,255)" fill-rule="evenodd" d="M237.2291629 195.910951h-12.91322972c-.32631157 0-.59050444.27536028-.59050444.60746598 0 .34016475.26419287.62363267.59050444.62363267h12.91322972c.32631156 0 .59050443-.28346792.59050443-.62363267 0-.3321057-.26419287-.60746597-.59050443-.60746597z"/>
            <path fill="rgb(255,255,255)" fill-rule="evenodd" d="M244.1597135 189.35030229h-26.77433092c-.32635818 0-.59050443.27540887-.59050443.61557362 0 .34021334.26414625.61557362.59050443.61557362h26.77433091c.32635819 0 .59050444-.27536028.59050444-.61557362 0-.34016475-.26414625-.61557362-.59050444-.61557362z"/>
          </g>
        </g>
        <g>
          <path fill="rgb(63,61,86)" fill-rule="evenodd" d="M113.91753894 104.82968973c-.85702044 0-1.5539386.72650501-1.5539386 1.61990927v25.1085936c0 .89340425.69691816 1.61990926 1.5539386 1.61990926s1.5539386-.72650501 1.5539386-1.61990927V106.449599c0-.89340425-.69691816-1.61990926-1.5539386-1.61990926z"/>
          <g>
            <ellipse cx="129.147" cy="119.142" fill="rgb(108,99,255)" rx="9.683" ry="9.882"/>
            <path fill="rgb(242,242,242)" fill-rule="evenodd" d="M206.7762087 115.76125862h-52.12295424c-1.78813268 0-3.24300769-1.51663194-3.24300769-3.38068583 0-1.8640539 1.45487501-3.38068584 3.2430077-3.38068584h52.12295423c1.78813268 0 3.24300768 1.51663195 3.24300768 3.38068584 0 1.86405389-1.454875 3.38068583-3.24300768 3.38068583z"/>
            <path fill="rgb(242,242,242)" fill-rule="evenodd" d="M247.45313872 127.2035768h-92.79988426c-1.78813268 0-3.24300769-1.51663194-3.24300769-3.38068583s1.45487501-3.38068584 3.2430077-3.38068584h92.79988425c1.78813268 0 3.24300769 1.51663195 3.24300769 3.38068584 0 1.86405389-1.45487501 3.38068584-3.2430077 3.38068584z"/>
          </g>
        </g>
        <g>
          <path fill="rgb(63,61,86)" fill-rule="evenodd" d="M242.6752748 409.651191c-.85702044 0-1.5539386.726505-1.5539386 1.61990926v25.1085936c0 .89340426.69691816 1.61990926 1.5539386 1.61990926s1.5539386-.726505 1.5539386-1.61990926v-25.1085936c0-.89340425-.69691816-1.61990926-1.5539386-1.61990926z"/>
          <g>
            <ellipse cx="257.904" cy="423.963" fill="rgb(108,99,255)" rx="9.683" ry="9.882"/>
            <path fill="rgb(242,242,242)" fill-rule="evenodd" d="M335.53393679 420.58275989h-52.12295424c-1.78813268 0-3.24300769-1.51664005-3.24300769-3.38068584s1.45487501-3.38068584 3.2430077-3.38068584h52.12295423c1.78813268 0 3.24300769 1.51664005 3.24300769 3.38068584 0 1.8640458-1.45487501 3.38068584-3.2430077 3.38068584z"/>
            <path fill="rgb(242,242,242)" fill-rule="evenodd" d="M376.21086681 432.02506997h-92.79988426c-1.78813268 0-3.24300769-1.51664005-3.24300769-3.38068583 0-1.8640458 1.45487501-3.38068584 3.2430077-3.38068584h92.79988425c1.78813268 0 3.24300769 1.51664005 3.24300769 3.38068584 0 1.86404578-1.45487501 3.38068583-3.24300769 3.38068583z"/>
          </g>
        </g>
        <g>
          <ellipse cx="152.85" cy="205.762" fill="rgb(63,61,86)" rx="3.285" ry="3.501"/>
          <ellipse cx="164.2" cy="205.762" fill="rgb(63,61,86)" rx="3.285" ry="3.501"/>
          <ellipse cx="175.549" cy="205.762" fill="rgb(63,61,86)" rx="3.285" ry="3.501"/>
        </g>
        <g>
          <ellipse cx="380.805" cy="136.679" fill="rgb(63,61,86)" rx="3.285" ry="3.501"/>
          <ellipse cx="392.155" cy="136.679" fill="rgb(63,61,86)" rx="3.285" ry="3.501"/>
          <ellipse cx="403.504" cy="136.679" fill="rgb(63,61,86)" rx="3.285" ry="3.501"/>
        </g>
        <path fill="rgb(63,61,86)" fill-rule="evenodd" d="M281.40707773 278.51637724c-.1303133.46270278.34004061.85203987.74285257.61482036 2.81008817-1.6550127 6.24567547-3.26950336 9.30879146-4.14107125.49042302-.13954708.50625765-.85541738.02437353-1.02417143l-4.0598122-1.42151088 15.5042203-20.35139795-1.05574587-.87402205-15.50424363 20.35143846-2.24862684-3.80141677c-.26679572-.45107994-.93206791-.27285752-.95139114.25669892-.12061671 3.30765223-.85099893 7.16191044-1.76041818 10.39063259z"/>
        <path fill="rgb(63,61,86)" fill-rule="evenodd" d="M303.42479483 318.570278c.42353373.19393554.85413789-.24254901.67998022-.68935238-1.21500905-3.1170699-2.31142927-6.87565628-2.74869982-10.15407724-.0700127-.5248911-.74906056-.63286616-.97126601-.15624835l-1.87187444 4.01549588-17.37834018-18.63358138-.96661974.97968062 17.37837127 18.63360568-3.90434065 1.83842693c-.46329125.21812078-.378858.92873448.12248921 1.01646876 3.1314349.54792621 6.70488763 1.7962121 9.66030014 3.14956529v.0000162z"/>
      </g>
    </g>
  </g>
</svg>
