<svg xmlns="http://www.w3.org/2000/svg" xmlns:xlink="http://www.w3.org/1999/xlink" width="496" height="340" viewBox="0 0 496 340">
  <defs>
    <rect id="rect-1" width="496" height="340" x="0" y="0"/>
    <mask id="mask-2" maskContentUnits="userSpaceOnUse" maskUnits="userSpaceOnUse">
      <rect width="496" height="340" x="0" y="0" fill="black"/>
      <use fill="white" xlink:href="#rect-1"/>
    </mask>
  </defs>
  <g>
    <use fill="none" xlink:href="#rect-1"/>
    <g mask="url(#mask-2)">
      <path fill="rgb(230,230,230)" fill-rule="evenodd" d="M212.89503953 40.30640963h-14.37695091c-2.56631548 0-4.65445172-2.67836955-4.65445172-5.97008064V5.97008064C193.8636369 2.67836955 195.95177314 0 198.51808862 0h14.3769509c2.56631548 0 4.65445172 2.67836955 4.65445172 5.97008064v28.36623871c0 3.2917111-2.08813624 5.97008064-4.65445171 5.97008064v.00000964z"/>
      <path fill="rgb(204,204,204)" fill-rule="evenodd" d="M244.36388223 40.30640963h-14.37731167c-2.56631548 0-4.65445172-2.67836955-4.65445172-5.97008064V5.97008064C225.33211884 2.67836955 227.42025508 0 229.98657056 0h14.37731167c2.56631547 0 4.65445171 2.67836955 4.65445171 5.97008064v28.36623871c0 3.2917111-2.08813624 5.97008064-4.65445171 5.97008064v.00000964z"/>
      <path fill="rgb(230,230,230)" fill-rule="evenodd" d="M277.89590112 40.30640963H263.5189502c-2.56631547 0-4.65445172-2.67836955-4.65445172-5.97008064V5.97008064C258.8644985 2.67836955 260.95263474 0 263.51895021 0h14.3769509c2.56631548 0 4.65445172 2.67836955 4.65445172 5.97008064v28.36623871c0 3.2917111-2.08813624 5.97008064-4.65445171 5.97008064v.00000964z"/>
      <path fill="rgb(160,97,106)" fill-rule="evenodd" d="M120.6187889 132.3650575c2.49131506-3.2519547 5.81888574-4.2391258 7.43211214-2.20514903 1.6132339 2.03397678.90112467 6.31826714-1.59141548 9.57094486-.98177698 1.31682904-2.1951315 2.31294629-3.53856239 2.90498288l-10.69145417 13.607664-4.87152373-6.57145863 11.05708395-12.71705927c.4382627-1.7337698 1.19392613-3.3076657 2.20375216-4.5899248h.00000751z"/>
      <path fill="rgb(63,61,86)" fill-rule="evenodd" d="M86.42615919 121.13268328l11.20974535 31.89738466 17.90024866-12.4281121 6.40617219 4.36103638s-14.63306762 31.3787682-24.65232159 27.80670905c-10.01925396-3.5720688-27.8108614-35.96110614-24.60524998-45.9573402 3.2056039-9.99623407 13.74140537-5.6796778 13.74140537-5.6796778z"/>
      <path fill="rgb(230,230,230)" fill-rule="evenodd" d="M399.0456228 14.2777384h26.46111723l10.36641736 9.6402486-27.02737439 1.92804972"/>
      <path fill="rgb(63,61,86)" fill-rule="evenodd" d="M0 334.51605782c0 .63628533.39836119 1.14718958.89442808 1.14718958h446.65785287c.4960218 0 .89438298-.51090425.89438298-1.14718958 0-.63622749-.39836119-1.14718959-.89438298-1.14718959H.89442808c-.4960669 0-.89442808.5109621-.89442808 1.14718959z"/>
      <path fill="rgb(63,61,86)" fill-rule="evenodd" d="M452.52661362 90.46164429l10.41349648 6.32727113c-4.27115975-7.64554621-7.95151567-19.58617986-9.92186392-29.08779205-3.33606356 8.850799-8.71390576 19.680394-14.03715302 26.14931895l11.00591622-3.63169374c-6.78178297 42.63229313-32.2898487 73.23806764-61.50013386 73.23807728l-.41349805 1.53988511c30.5108984-.00000964 57.52881036-30.18154572 64.45323615-74.53507632v.00000964z"/>
      <path fill="rgb(63,61,86)" fill-rule="evenodd" d="M237.57406483 68.2890725l10.41349648 6.32727112c-4.27115975-7.6455462-7.95151566-19.58617985-9.92186392-29.08779204-3.33606356 8.850799-8.71390576 19.680394-14.03715302 26.14931895l11.00591623-3.63169374c-6.78178298 42.63229313-32.2898487 73.23806764-61.50013386 73.23807728l-.41349806 1.53988511c30.5108984-.00000964 57.52881036-30.18154573 64.45323615-74.53507633v.00000964z"/>
      <g>
        <path fill="rgb(255,182,182)" fill-rule="evenodd" d="M397.29572116 196.58293733c-1.47792654-2.25795831-3.2479781-3.79233884-4.83743195-4.3829294l-18.69413757-27.10585332s-1.56124696-25.23217462-2.81024903-34.04341004c-1.24900208-8.81123543-9.6797492-6.4081721-9.6797492-6.4081721l.93674969 25.23217462 5.30825319 27.23472417 21.87495427 23.82109286c.38200676.89263882.85030268 1.78489203 1.41122361 2.64184265 2.66129294 4.06572665 6.27160889 5.79703818 8.0639148 3.86694472 1.79223828-1.93009345 1.08776513-6.79068752-1.5735203-10.8564238l-.0000075.00000964z"/>
        <path fill="rgb(255,182,182)" fill-rule="evenodd" d="M307.4975803 196.58293733c1.47792654-2.25795831 3.2479781-3.79233884 4.83743195-4.3829294l18.69413757-27.10585332s1.56124696-25.23217462 2.81024904-34.04341004c1.24900207-8.81123543 9.67974919-6.4081721 9.67974919-6.4081721l-.93674968 25.23217462-5.3082532 27.23472417-21.87495427 23.82109286c-.38200676.89263882-.85030268 1.78489203-1.41122361 2.64184265-2.66129294 4.06572665-6.27160889 5.79703818-8.0639148 3.86694472-1.79223828-1.93009345-1.08776512-6.79068752 1.5735203-10.8564238l.0000075.00000964z"/>
        <path fill="rgb(255,182,182)" fill-rule="evenodd" d="M348.62802147 121.23823436l2.16854053-10.69307944 8.44796586-.52121932 2.52750376 14.7400558-13.14401015-3.52575704z"/>
        <g opacity=".1">
          <path fill="rgb(0,0,0)" fill-rule="evenodd" d="M348.62802147 121.23823436l2.16854053-10.69307944 8.44796586-.52121932 2.52750376 14.7400558-13.14401015-3.52575704z"/>
        </g>
        <g>
          <path fill="rgb(255,182,182)" fill-rule="evenodd" d="M327.05560915 296.41993547l-7.91241083-.57978383 1.0379352 31.1469877 5.36160051.39332214 1.51287512-30.96052601z"/>
          <path fill="rgb(47,46,65)" fill-rule="evenodd" d="M319.49546496 317.1390759l2.74743178 1.60753073-.0035625 2.13619233s.6628355-2.4723478 4.22076616-3.0117679l.42470415 2.07117848s1.37990517 2.03154744 1.14322438 5.70622704l-.90567175 9.84062117-2.6832241-.07924284-.43338493-6.84762283s-.7391662-1.55385383-4.1438417 5.8296897c0 0-3.75051613 1.21248298-9.55846635-1.28536327-.79826312-.34330853-1.35277306-1.29922595-1.34232606-2.37906875.00576464-.59592161.18736196-1.14665937.76995101-1.34421699 1.4829396-.50287393 2.93103583.13478032 3.88870205-1.38341423.9576587-1.51819456 5.87569786-10.860733 5.87569786-10.860733v-.00000964z"/>
        </g>
        <g>
          <path fill="rgb(255,182,182)" fill-rule="evenodd" d="M369.52161214 296.41993547l-7.91241835-.57978383 1.03794273 31.1469877 5.3616005.39332214 1.51287512-30.96052601z"/>
          <path fill="rgb(47,46,65)" fill-rule="evenodd" d="M361.96146795 317.1390759l2.74743178 1.60753073-.0035625 2.13619233s.6628355-2.4723478 4.22076616-3.0117679l.42470415 2.07117848s1.37990518 2.03154744 1.14322438 5.70622704l-.90567175 9.84062117-2.6832241-.07924284-.43338493-6.84762283s-.7391662-1.55385383-4.1438417 5.8296897c0 0-3.75051613 1.21248298-9.55846635-1.28536327-.79826312-.34330853-1.35277305-1.29922595-1.34232606-2.37906875.00576464-.59592161.18736196-1.14665937.76995101-1.34421699 1.4829396-.50287393 2.93103584.13478032 3.88870205-1.38341423.9576587-1.51819456 5.87569786-10.860733 5.87569786-10.860733v-.00000964z"/>
        </g>
        <ellipse cx="355.123" cy="104.827" fill="rgb(255,182,182)" rx="9.368" ry="12.016"/>
        <path fill="rgb(47,46,65)" fill-rule="evenodd" d="M360.43543262 106.82437565s-4.118566-8.64375539-8.2412732-7.68970818c-4.12270721.9540472-6.271902 1.8154227-6.271902 1.8154227s-1.67886209-6.89170769 3.95762966-10.19813944c0 0-7.976611-8.5662285.52467963-14.0637538 8.50129063-5.49752529 13.79143069-.1695334 13.79143069-.1695334s7.03627627 7.65399105-.76498305 14.7374722c0 0 6.75207293 9.86535805-.06764993 19.2890192 0 0 1.20392217-7.1755841-.43382084-5.70454964-1.63775053 1.47103446-2.49410344 1.98377036-2.49410344 1.98377036h-.00000752z"/>
        <path fill="rgb(230,230,230)" fill-rule="evenodd" d="M361.4302721 122.03925226l-12.80225063-2.00254957-9.83587538 10.21302398s-4.89177136 17.48241732-1.24900208 28.03575171c.08728877.252883.1561262 17.82272774.1561262 17.82272774h27.20017068s-.02635048-11.95899832 1.01297516-16.29030418c.14847509-.61875936.31870097-1.08184798.51385684-1.33216667 1.56124696-2.00254956 5.3082532-14.81889376 3.43474632-20.42604795-1.87349936-5.6071542-8.43074711-16.02042542-8.43074711-16.02042542v-.00000964z"/>
        <path fill="rgb(47,46,65)" fill-rule="evenodd" d="M337.54315152 175.30717858l-17.17375413 70.08936964-3.74699872 55.2704759h10.46038018l8.8991182-51.26536713 12.2552039-29.67563512 12.10029527 84.94610137h10.55872474l-.25447075-114.94656467-5.7643359-14.41837999h-27.33416279z"/>
        <ellipse cx="352.118" cy="207.626" fill="rgb(108,99,255)" rx="41.994" ry="53.864"/>
      </g>
      <g>
        <path fill="rgb(160,97,106)" fill-rule="evenodd" d="M81.51083324 333.7158497l8.17370595-.00102186 3.88828117-40.43909802-12.06362557.00108935.00163845 40.43903053z"/>
        <path fill="rgb(47,46,65)" fill-rule="evenodd" d="M109.51498658 333.47801513c.25450081.54978338.38878603 2.32423502.38878603 2.96358595 0 1.9651936-1.24201236 3.55834108-2.77418812 3.55834108H81.8165619c-1.04521052 0-1.892567-1.08680307-1.892567-2.42752064v-1.35174602s-1.25221133-4.06269961 1.3258664-9.07021107c0 0 3.20420596 3.9209494 7.99211615-2.22031313l1.41191506-3.28076941 10.22030224 9.58739112 5.66496169.89440299c1.2393743.19565848 2.33820272-.03036679 2.9757174 1.34682949h.00009771l.00001503.00000964z"/>
      </g>
      <path fill="rgb(160,97,106)" fill-rule="evenodd" d="M87.6958899 123.17957798l.16532557-14.14060586-6.79844556-5.43578914-7.39249623 11.59861691 14.02561623 7.9777781z"/>
      <g opacity=".1">
        <path fill="rgb(0,0,0)" fill-rule="evenodd" d="M87.6958899 123.17957798l.44003643-13.78825477-7.07315642-5.78814023 2.40310937 17.06359672 4.23001063 2.51279828z"/>
      </g>
      <ellipse cx="87.717" cy="97.931" fill="rgb(160,97,106)" rx="12.091" ry="15.508"/>
      <path fill="rgb(47,46,65)" fill-rule="evenodd" d="M104.20637263 216.68428243l-11.2630551 98.30783298H78.81230693l1.87901597-56.11651375.98894707-29.50643911-2.86795553-14.0449746s-1.30761798-3.12190775-2.40919718-6.9062259c-1.24167415-4.27057229-2.22238388-9.39032516-.7664336-11.81807717.53568279-.89500068 1.92846257-1.55744 3.8211874-2.05072188 1.15652739-.30302193 2.50261136-.53912126 3.95581084-.72232455 8.35663358-1.06060087 20.24327654-.39816155 20.24327654-.39816155l.30217367 12.79058545.16758783 7.1422963.07966022 3.32273342-.00000752-.00000964z"/>
      <g>
        <path fill="rgb(160,97,106)" fill-rule="evenodd" d="M67.11256746 328.90799744l8.08689067 1.5239787 8.432829-39.28356962-11.93545072-2.24965805-4.58426895 40.00924897z"/>
        <path fill="rgb(47,46,65)" fill-rule="evenodd" d="M94.84585052 333.89749127c.18944385.5914196.12107992 2.37205065.04857477 3.0046052-.2228592 1.94429354-1.63233162 3.28877081-3.14821307 3.00290852l-25.0438058-4.72269995c-1.03409462-.19500295-1.74918763-1.42834743-1.59715004-2.75479744l.15329273-1.33737241s-.77817332-4.25312344 2.34035225-8.72637232c0 0 2.72548558 4.47706642 8.1589073-.70558907l1.76894673-2.98245192L86.5511248 330.06797l5.50328129 1.941816c1.20400484.4248072 2.3167751.40620151 2.79133922 1.88769564l.0000977.00001928.00000752-.00000964z"/>
      </g>
      <path fill="rgb(47,46,65)" fill-rule="evenodd" d="M104.38364084 200.28928515l-1.5448324 17.06463786-8.42474197 35.95978542-13.86852049 59.20214524-13.97916844-2.63504627 12.54614143-84.17665529-1.24226039-14.43401647s-.40456174-1.4347582-.86831059-3.53524304c-.92050047-4.15549665-2.07502113-10.9227198-.804862-14.37464218.17150357-.4692391.38680936-.87637572.6531551-1.20603366.49957679-.6214297 1.51493446-.99879724 2.87528346-1.19896736 5.686006-.82427982 17.39598952 1.53330082 22.6066272 2.6906223l2.05147406 6.64339417.00001503.00001928z"/>
      <path fill="rgb(63,61,86)" fill-rule="evenodd" d="M75.22462111 112.21018974l13.73543029 8.45658996s14.55955535 55.32018101 14.55955535 58.1390379c0 2.81886654 4.12062533 4.5806509 1.64825013 7.75186851-2.4723752 3.17121762 4.60177331 5.85690412.7899882 8.39000477-3.81178511 2.53310064-27.59029453 16.38877931-30.23435368 15.1393067-7.29245311-3.44611896.30902811-16.10898075.30902811-16.10898075s-5.47794545-5.65853672-4.65382038-8.47739362c.82412506-2.81885689-4.94475791-56.72961427-4.94475791-56.72961427l8.79067237-16.5608192h.00000752z"/>
      <path fill="rgb(47,46,65)" fill-rule="evenodd" d="M86.978715 101.64547022l1.55511405 3.98937588s1.55511405-7.18087659 4.04330254-8.77662694c2.4881885-1.59575035 2.7992083-3.98937588 2.7992083-3.98937588s3.1102356 5.18618383 5.28739678 3.98937588c2.17716117-1.19680794 3.1102356-1.99468312.62204712-6.78193417-2.48818849-4.78725106-1.86614137-2.39362553-1.86614137-2.39362553s-2.17716117-3.98937588-1.86614136-2.7925583c.3110198 1.19680795-1.86614137-3.1915007-1.86614137-1.99468311 0 1.19680794-1.55511405-2.39362553-1.55511405-1.19680795 0 1.19680795-6.53149103-2.7925583-5.5984241-1.19680794.93306692 1.59575035-5.5984241-3.1915007-8.70865971 3.1915007-3.11023562 6.3830014-7.42292781 5.20259153-5.8886326 9.18376356 1.53429522 3.98117202.91225562 14.75248208.91225562 14.75248208h4.28943072s4.41922899-10.77131006 7.8404844-5.984059l.00001504-.00001928z"/>
      <rect width="25.554" height="32.777" x="410.32" y="23.918" fill="rgb(230,230,230)" rx="0" ry="0"/>
      <path fill="rgb(230,230,230)" fill-rule="evenodd" d="M495.9997144 23.917987h.00002255v32.77684526h-25.55379951v-.00002892c0-18.09001327 11.45025922-32.77681634 25.55377696-32.77681634z"/>
      <ellipse cx="453.16" cy="41.271" fill="rgb(204,204,204)" rx="12.025" ry="15.424"/>
      <path fill="rgb(242,242,242)" fill-rule="evenodd" d="M410.31935788 23.917987l-11.27373507-9.6402486v26.02867123l11.27373507 16.38842263"/>
      <path fill="rgb(255,255,255)" fill-rule="evenodd" d="M230.04832056 13.2738029l14.1367001-.54817345c.9818371-.03806934 1.07604043-2.00798666.08526702-1.96957027l-14.1367001.54817346c-.9818371.03806934-1.07604044 2.00798666-.08526702 1.96957027z"/>
      <path fill="rgb(255,255,255)" fill-rule="evenodd" d="M230.04832056 19.89078279l14.1367001-.54817346c.9818371-.03806934 1.07604043-2.00798666.08526702-1.96957027l-14.1367001.54817346c-.9818371.03806934-1.07604044 2.00798666-.08526702 1.96957027z"/>
      <path fill="rgb(255,255,255)" fill-rule="evenodd" d="M230.04832056 26.50775303l14.1367001-.54817346c.9818371-.03806934 1.07604043-2.00798666.08526702-1.96957027l-14.1367001.54817346c-.9818371.03806934-1.07604044 2.00798666-.08526702 1.96957027z"/>
      <path fill="rgb(255,255,255)" fill-rule="evenodd" d="M198.29411708 14.9513122c2.342607-3.65979505 6.58191469.0128601 9.33884647.63302693 1.61270029.3627722 3.2772297.17126866 4.63884135-1.08264812 1.20566584-1.11030599 2.07084234-2.78163589 2.29960897-4.67439266.1510455-1.24976183-1.33999615-1.7882854-1.49235692-.52771685-.215163 1.78024543-1.07110254 3.33923751-2.3724899 4.07914587-1.5706192.89299551-3.37256792.17367872-4.900858-.50860987-2.72479412-1.21644513-6.40520264-2.76063943-8.60594095.67751667-.62714285.97976739.46166697 2.39209273 1.09434146 1.4036684l.00000752.00000964z"/>
      <path fill="rgb(255,255,255)" fill-rule="evenodd" d="M198.29411708 22.89168614c2.342607-3.65979506 6.58191469.01286009 9.33884647.63302692 1.61270029.3627722 3.2772297.17126866 4.63884135-1.08264812 1.20566584-1.110306 2.07084234-2.7816359 2.29960897-4.67439266.1510455-1.24976183-1.33999615-1.7882854-1.49235692-.52771685-.215163 1.78024543-1.07110254 3.33923751-2.3724899 4.07914587-1.5706192.89299551-3.37256792.17367872-4.900858-.50860987-2.72479412-1.21644513-6.40520264-2.76063944-8.60594095.67751667-.62714285.97976738.46166697 2.39209273 1.09434146 1.4036684l.00000752.00000964z"/>
      <path fill="rgb(108,99,255)" fill-rule="evenodd" d="M157.20198406 186.356176h-35.65612587c-2.35933721 0-4.27866055-2.46183993-4.27866055-5.48854058V115.6867526c0-3.02670066 1.91932334-5.48854058 4.27866055-5.48854058h35.65612587c2.35933721 0 4.27866054 2.46183992 4.27866054 5.48854058v65.18088282c0 3.02670065-1.91932333 5.48854058-4.27866054 5.48854058z"/>
      <path fill="rgb(255,255,255)" fill-rule="evenodd" d="M264.60718882 8.52301127c.744773 8.08754197.9868201 16.24560235.69656652 24.38148052-.0449822 1.26090596 1.4817596 1.59675294 1.52727543.32092387.29668713-8.31616045.07678166-16.64570158-.68460883-24.91371864-.11661552-1.26636233-1.65647996-1.0618541-1.53923312.21131425z"/>
      <path fill="rgb(255,255,255)" fill-rule="evenodd" d="M269.76597484 8.52301127c.744773 8.08754197.9868201 16.24560235.6965665 24.38148052-.0449822 1.26090596 1.48175962 1.59675294 1.52727545.32092387.29668712-8.31616045.07678165-16.64570158-.68460884-24.91371864-.11661552-1.26636233-1.65647996-1.0618541-1.53923311.21131425z"/>
      <path fill="rgb(255,255,255)" fill-rule="evenodd" d="M274.92476837 8.52301127c.744773 8.08754197.98682009 16.24560235.6965665 24.38148052-.0449822 1.26090596 1.48175962 1.59675294 1.52727545.32092387.29668712-8.31616045.07678165-16.64570158-.68460884-24.91371864-.11661552-1.26636233-1.65647996-1.0618541-1.53923311.21131425z"/>
      <g>
        <path fill="rgb(160,97,106)" fill-rule="evenodd" d="M117.07783647 160.95587545c3.4088468-1.2917644 6.69163068-.0828001 7.3321968 2.69995407.6405661 2.78275416-1.60350844 6.08491527-5.01370057 7.37655434-1.35671886.5399214-2.7945109.6552477-4.1930929.33631936l-14.4973093 5.2392823-1.7718253-8.77855498 14.47988763-4.23300424c1.03934818-1.24286905 2.29567819-2.1483294 3.66383613-2.6405605l.00000751.00000965z"/>
        <path fill="rgb(63,61,86)" fill-rule="evenodd" d="M91.43581623 129.84484587l-2.27222882 34.86666799 20.35323303.2807144 3.95009881 7.80166039s-24.66927728 18.32149492-32.07675255 8.9598013c-7.4074828-9.36169362-10.70341937-48.75656955-4.11752881-55.4998174 6.58589055-6.74323822 14.16318586 3.59097332 14.16318586 3.59097332h-.00000752z"/>
      </g>
      <path fill="rgb(255,255,255)" fill-rule="evenodd" d="M125.33011284 135.04663725l27.87306987-1.08081647c1.93586566-.07506861 2.12161172-3.9591055.16812145-3.88336206l-27.87306986 1.08081647c-1.93586566.07506862-2.12161172 3.9591055-.16812146 3.88336206z"/>
      <path fill="rgb(255,255,255)" fill-rule="evenodd" d="M125.33011284 148.0111135l27.87306987-1.08081647c1.93586566-.07506861 2.12161172-3.9591055.16812145-3.88336206l-27.87306986 1.08081647c-1.93586566.07506862-2.12161172 3.9591055-.16812146 3.88336207z"/>
      <path fill="rgb(255,255,255)" fill-rule="evenodd" d="M125.33011284 160.97558012l27.87306987-1.08081648c1.93586566-.07506861 2.12161172-3.9591055.16812145-3.88336206l-27.87306986 1.08081647c-1.93586566.07506862-2.12161172 3.9591055-.16812146 3.88336207z"/>
    </g>
  </g>
</svg>
