<svg xmlns="http://www.w3.org/2000/svg" xmlns:xlink="http://www.w3.org/1999/xlink" width="469" height="302" viewBox="0 0 469 302">
  <defs>
    <rect id="rect-1" width="469" height="302" x="0" y="0"/>
    <mask id="mask-2" maskContentUnits="userSpaceOnUse" maskUnits="userSpaceOnUse">
      <rect width="469" height="302" x="0" y="0" fill="black"/>
      <use fill="white" xlink:href="#rect-1"/>
    </mask>
  </defs>
  <g>
    <use fill="none" xlink:href="#rect-1"/>
    <g mask="url(#mask-2)">
      <path fill="rgb(230,230,230)" fill-rule="evenodd" d="M201.30599504 35.80157561H187.7116604c-2.42661685 0-4.40108439-2.37902236-4.40108439-5.30283633V5.30283633C183.31057602 2.37902237 185.28504356 0 187.71166041 0h13.59433463c2.42661685 0 4.40108438 2.37902237 4.40108438 5.30283633v25.19589439c0 2.92381397-1.97446753 5.30283633-4.40108438 5.30283633v.00000856z"/>
      <path fill="rgb(204,204,204)" fill-rule="evenodd" d="M231.06181606 35.80157561H217.4671403c-2.42661684 0-4.40108438-2.37902236-4.40108438-5.30283633V5.30283633C213.06605592 2.37902237 215.04052346 0 217.4671403 0h13.59467576c2.42661685 0 4.40108438 2.37902237 4.40108438 5.30283633v25.19589439c0 2.92381397-1.97446753 5.30283633-4.40108438 5.30283633v.00000856z"/>
      <path fill="rgb(230,230,230)" fill-rule="evenodd" d="M262.76850328 35.80157561h-13.59433463c-2.42661685 0-4.40108439-2.37902236-4.40108439-5.30283633V5.30283633C244.77308426 2.37902237 246.7475518 0 249.17416865 0h13.59433463c2.42661684 0 4.40108438 2.37902237 4.40108438 5.30283633v25.19589439c0 2.92381397-1.97446754 5.30283633-4.40108438 5.30283633v.00000856z"/>
      <path fill="rgb(160,97,106)" fill-rule="evenodd" d="M114.05284675 117.57131578c2.35569914-2.88850094 5.5021319-3.76534115 7.02754153-1.9586912 1.52541674 1.80664996.85207152 5.61210787-1.504786 8.50125103-.92833348 1.16965403-2.07563847 2.05444052-3.34593904 2.58030831l-10.1094597 12.08680744-4.60633997-5.83700149 10.45518624-11.29574088c.41440565-1.53999552 1.12893418-2.93798541 2.08378984-4.0769332h.0000071z"/>
      <path fill="rgb(63,61,86)" fill-rule="evenodd" d="M81.7215094 107.59432456l10.59953744 28.33238284 16.92583996-11.0390878 6.0574491 3.87362643s-13.8365095 27.8717294-23.31036053 24.69890039c-9.47385103-3.17283758-26.2969637-31.94192368-23.2658513-40.82093159 3.0311053-8.8790079 12.99338532-5.04489027 12.99338532-5.04489027z"/>
      <path fill="rgb(230,230,230)" fill-rule="evenodd" d="M377.32338124 12.68199116h25.0206935l9.80211642 8.56280906-25.55612618 1.71256181"/>
      <path fill="rgb(63,61,86)" fill-rule="evenodd" d="M0 297.128969c0 .56517109.3766762 1.01897428.84573945 1.01897428h422.34381653c.4690206 0 .8456968-.45380319.8456968-1.01897428 0-.5651197-.3766762-1.01897427-.8456968-1.01897427H.84573945C.3766762 296.10999473 0 296.56384929 0 297.128969z"/>
      <path fill="rgb(63,61,86)" fill-rule="evenodd" d="M427.89310844 80.35122522l9.84663276 5.62010553c-4.0386571-6.79104398-7.51867106-17.39713622-9.38176246-25.83680352-3.15446332 7.86159206-8.23956008 17.48082056-13.2730338 23.226748l10.40680385-3.22579855c-6.41261334 37.86750743-30.53213516 65.05263655-58.15234431 65.05264512l-.3909891 1.3677803c28.85002289-.00000856 54.39720174-26.80831415 60.94469306-66.20468544v.00000856z"/>
      <path fill="rgb(63,61,86)" fill-rule="evenodd" d="M224.64160566 60.6567644l9.84663276 5.62010552c-4.0386571-6.79104398-7.51867106-17.39713622-9.38176246-25.83680352-3.15446333 7.86159206-8.23956008 17.48082056-13.2730338 23.226748l10.40680385-3.22579854c-6.41261334 37.86750742-30.53213516 65.05263655-58.15234432 65.0526451l-.39098909 1.36778031c28.85002288-.00000856 54.39720174-26.80831414 60.94469306-66.20468544v.00000856z"/>
      <g>
        <path fill="rgb(255,182,182)" fill-rule="evenodd" d="M375.66873634 174.61190316c-1.3974749-2.00559827-3.07117285-3.3684892-4.574104-3.89307258l-17.67651314-24.0763756s-1.47625973-22.41210804-2.65727178-30.23855833c-1.18101204-7.8264503-9.15282735-5.69196463-9.15282735-5.69196463l.88575725 22.41210804 5.01929586 24.19084324 20.68418056 21.15873542c.36121203.7928733.80401604 1.5854041 1.33440297 2.34657788 2.51642416 3.6113219 5.93021082 5.14913391 7.6249517 3.43475679 1.69467692-1.71437713 1.0285521-6.03172833-1.48786496-9.6430588l-.0000071.00000857z"/>
        <path fill="rgb(255,182,182)" fill-rule="evenodd" d="M290.75880073 174.61190316c1.3974749-2.00559827 3.07117284-3.3684892 4.574104-3.89307258l17.67651314-24.0763756s1.47625973-22.41210804 2.65727177-30.23855833c1.18101205-7.8264503 9.15282736-5.69196463 9.15282736-5.69196463l-.88575725 22.41210804-5.01929587 24.19084324-20.68418055 21.15873542c-.36121203.7928733-.80401604 1.5854041-1.33440297 2.34657788-2.51642417 3.6113219-5.93021082 5.14913391-7.6249517 3.43475679-1.69467692-1.71437713-1.0285521-6.03172833 1.48786496-9.6430588l.0000071.00000857z"/>
        <path fill="rgb(255,182,182)" fill-rule="evenodd" d="M329.65028643 107.68807876l2.05049497-9.49797056 7.98809676-.4629654 2.38991787 13.0926378-12.4285096-3.13170184z"/>
        <g opacity=".1">
          <path fill="rgb(0,0,0)" fill-rule="evenodd" d="M329.65028643 107.68807876l2.05049497-9.49797056 7.98809676-.4629654 2.38991787 13.0926378-12.4285096-3.13170184z"/>
        </g>
        <g>
          <path fill="rgb(255,182,182)" fill-rule="evenodd" d="M309.25217882 263.29064856l-7.48169493-.51498446.9814347 27.66585379 5.0697392.3493626 1.43052103-27.50023193z"/>
          <path fill="rgb(47,46,65)" fill-rule="evenodd" d="M302.10357473 281.69412036l2.597874 1.42786553-.00336857 1.89744142s.62675373-2.19602657 3.99100671-2.67515855l.40158517 1.83969384s1.30478937 1.80449212 1.08099241 5.06847224l-.85637107 8.74078704-2.5371615-.07038629-.4097934-6.08230027s-.69892934-1.38018782-3.91826969 5.17813614c0 0-3.54635496 1.07697018-9.0381466-1.14170502-.75480928-.30493876-1.2791342-1.15401834-1.2692559-2.11317283.00545084-.5293186.17716283-1.01850333.72803836-1.19398097 1.40221507-.44667037 2.77148349.11971663 3.67701868-1.22879735.90552808-1.34851399 5.5558514-9.64688637 5.5558514-9.64688637v-.00000856z"/>
        </g>
        <g>
          <path fill="rgb(255,182,182)" fill-rule="evenodd" d="M349.40652439 263.29064856l-7.48170203-.51498446.9814418 27.66585379 5.0697392.3493626 1.43052103-27.50023193z"/>
          <path fill="rgb(47,46,65)" fill-rule="evenodd" d="M342.2579203 281.69412036l2.597874 1.42786553-.00336857 1.89744142s.62675373-2.19602657 3.99100671-2.67515855l.40158518 1.83969384s1.30478936 1.80449212 1.0809924 5.06847224l-.85637107 8.74078704-2.5371615-.07038629-.4097934-6.08230027s-.69892934-1.38018782-3.91826969 5.17813614c0 0-3.54635496 1.07697018-9.0381466-1.14170502-.75480928-.30493876-1.2791342-1.15401834-1.2692559-2.11317283.00545084-.5293186.17716283-1.01850333.72803836-1.19398097 1.40221507-.44667037 2.77148349.11971663 3.67701868-1.22879735.90552808-1.34851399 5.5558514-9.64688637 5.5558514-9.64688637v-.00000856z"/>
        </g>
        <ellipse cx="335.792" cy="93.111" fill="rgb(255,182,182)" rx="8.858" ry="10.673"/>
        <path fill="rgb(47,46,65)" fill-rule="evenodd" d="M340.81495544 94.88518073s-3.89436986-7.67768861-7.7926555-6.83027021c-3.89828566.8474184-5.93048799 1.6125225-5.93048799 1.6125225s-1.58747241-6.121458 3.74219418-9.05834737c0 0-7.54240032-7.6088265.49611844-12.4919225 8.03851876-4.88309599 13.04068749-.15058555 13.04068749-.15058555s6.65325317 6.798545-.72334083 13.09034296c0 0 6.38452057 8.76275921-.06396737 17.13318764 0 0 1.13838608-6.37360704-.4102056-5.06698232-1.54859878 1.30662472-2.35833571 1.76205485-2.35833571 1.76205485h-.0000071z"/>
        <path fill="rgb(230,230,230)" fill-rule="evenodd" d="M341.75564035 108.39957112l-12.10535392-1.7787352-9.30045475 9.07156836s-4.62548541 15.52850009-1.18101204 24.90234417c.08253716.2246196.1476274 15.8307758.1476274 15.8307758h25.71951622s-.02491608-10.62240438.95783337-14.46962311c.14039277-.5496039.30135233-.96093556.4858848-1.18327746 1.47625972-1.7787352 5.01929586-13.16266445 3.24777424-18.14313671-1.77151452-4.98047226-7.97181532-14.22990728-7.97181532-14.22990728v-.00000857z"/>
        <path fill="rgb(47,46,65)" fill-rule="evenodd" d="M319.16882674 155.71402333l-16.23889252 62.25585186-3.54302903 49.0931874h9.89096433l8.4146904-45.53570844 11.58808594-26.3589465L340.7222557 270.620533h9.98395545l-.24061851-102.09959567-5.4505515-12.806914h-25.8462144z"/>
        <ellipse cx="332.95" cy="184.421" fill="rgb(183,211,232)" rx="39.708" ry="47.844"/>
      </g>
      <g>
        <path fill="rgb(160,97,106)" fill-rule="evenodd" d="M77.0737516 296.41819591l7.7287663-.00090766 3.6766207-35.91943411-11.40693627.0009676.00154926 35.91937417z"/>
        <path fill="rgb(47,46,65)" fill-rule="evenodd" d="M103.5534853 296.20694285c.24064693.488337.36762227 2.06446758.36762227 2.63236163 0 1.74555432-1.17440282 3.16064414-2.62317385 3.16064414H77.36283777c-.98831399 0-1.7895442-.96533684-1.7895442-2.1562095v-1.20066853s-1.1840466-3.60863318 1.25369222-8.0564816c0 0 3.02978345 3.48272565 7.55706144-1.97216049l1.33505678-2.91409517 9.66395514 8.51585917 5.35658676.7944403c1.17190837.17379077 2.21092152-.02697285 2.81373279 1.19630149h.00009238l.00001422.00000856z"/>
      </g>
      <path fill="rgb(160,97,106)" fill-rule="evenodd" d="M82.9221217 109.41244868l.156326-12.5601852-6.42836889-4.82825977-6.99008213 10.3023009 13.26212502 7.08614407z"/>
      <g opacity=".1">
        <path fill="rgb(0,0,0)" fill-rule="evenodd" d="M82.9221217 109.41244868l.41608284-12.24721454-6.68812573-5.14123043 2.27229495 15.15648885 3.99974794 2.23195612z"/>
      </g>
      <ellipse cx="82.942" cy="86.986" fill="rgb(160,97,106)" rx="11.433" ry="13.775"/>
      <path fill="rgb(47,46,65)" fill-rule="evenodd" d="M98.53384831 192.46662733l-10.64994523 87.32048695H74.52212086l1.77673083-49.8446681.93511326-26.20866062-2.71183699-12.47524214s-1.23643716-2.77298865-2.27805137-6.1343536c-1.17408301-3.79327303-2.10140734-8.34081823-.72471242-10.49723325.50652264-.79497119 1.82348578-1.38337318 3.61317922-1.82152355 1.09357126-.26915478 2.3663805-.47886654 3.74047436-.64159416 7.90173619-.94206313 19.14132399-.35366114 19.14132399-.35366114l.2857247 11.36104943.15846511 6.34403966.07532387 2.95136908-.0000071-.00000856z"/>
      <g>
        <path fill="rgb(160,97,106)" fill-rule="evenodd" d="M63.45926237 292.14769184l7.64667687 1.35365167 7.97378387-34.89305301-11.28573868-1.99822568-4.33472206 35.53762702z"/>
        <path fill="rgb(47,46,65)" fill-rule="evenodd" d="M89.68287076 296.57953636c.17913137.52531977.11448887 2.1069391.04593057 2.66879639-.21072774 1.72699014-1.54347485 2.9212023-2.97683856 2.66728933l-23.68053411-4.19486878c-.97780318-.1732085-1.65396977-1.2687086-1.51020841-2.44690832l.14494817-1.18790137s-.73581309-3.77777435 2.21295403-7.75107188c0 0 2.57712246 3.9766884 7.71477323-.62672912l1.67265327-2.64911905 8.53312348 10.11899684 5.2037075 1.7247895c1.13846427.37732875 2.19066034.36080253 2.63939133 1.6767179l.00009239.00001712.0000071-.00000856z"/>
      </g>
      <path fill="rgb(47,46,65)" fill-rule="evenodd" d="M98.70146684 177.9040121l-1.4607387 15.15741364-7.96613706 31.94075057-13.11358087 52.5854349-13.21820564-2.3405411 11.86318615-74.76867618-1.17463734-12.82080286s-.38253923-1.27440287-.82104369-3.14012765c-.87039258-3.69105878-1.96206635-9.70194523-.76104895-12.76806452.1621677-.41679473.3657532-.77842784.6176003-1.07124166.47238207-.5519758 1.43246826-.88716696 2.718766-1.06496513 5.37648551-.73215442 16.44903042 1.3619319 21.37602452 2.3899057l1.93980107 5.90089717.00001421.00001712z"/>
      <path fill="rgb(63,61,86)" fill-rule="evenodd" d="M71.12973246 99.66905089l12.9877355 7.51144167s13.7669989 49.13733725 13.7669989 51.64114543c0 2.50381675 3.8963171 4.06869579 1.55852685 6.8854832-2.33779026 2.81678742 4.35127355 5.20230896.7469848 7.45229835-3.60428874 2.2499894-26.08840349 14.55709222-28.588532 13.44726654-6.8954849-3.06096448.29220601-14.30856525.29220601-14.30856525s-5.17975084-5.02611203-4.40048742-7.52992021c.77926342-2.50380818-4.67558762-50.38924562-4.67558762-50.38924562l8.31214787-14.70990411h.00000711z"/>
      <path fill="rgb(47,46,65)" fill-rule="evenodd" d="M82.24398657 90.28509413l1.47046066 3.54350446s1.47046066-6.37830802 3.8232034-7.7957098c2.35274275-1.41740179 2.64683204-3.54350446 2.64683204-3.54350446s2.94092843 4.60655151 4.99957478 3.54350446c2.05864635-1.06304706 2.94092844-1.77174795.58818569-6.0239533s-1.76455706-2.12610267-1.76455706-2.12610267-2.05864635-3.54350446-1.76455706-2.48044884c.2940893 1.06304705-1.76455706-2.83480357-1.76455706-1.77174795 0 1.06304706-1.47046066-2.12610267-1.47046066-1.06304706 0 1.06304706-6.17594615-2.48044883-5.29367118-1.06304705.88227498 1.41740178-5.29367117-2.83480357-8.2345996 2.83480356-2.94092844 5.66960714-7.01885714 4.62112542-5.56808203 8.15734292 1.45077512 3.53621751.86259654 13.10367526.86259654 13.10367526h4.05593348s4.17866612-9.56745775 7.41368385-5.3152524l.0000142-.00001713z"/>
      <rect width="24.163" height="29.114" x="387.984" y="21.245" fill="rgb(230,230,230)" rx="0" ry="0"/>
      <path fill="rgb(230,230,230)" fill-rule="evenodd" d="M468.99972995 21.24480022h.00002132v29.11355079H444.8369852v-.0000257c0-16.06818825 10.82695882-29.11352509 24.16274475-29.11352509z"/>
      <ellipse cx="428.492" cy="36.658" fill="rgb(204,204,204)" rx="11.371" ry="13.7"/>
      <path fill="rgb(242,242,242)" fill-rule="evenodd" d="M387.9834251 21.24480022l-10.66004386-8.56280906v23.11958445l10.66004385 14.5567754"/>
      <path fill="rgb(255,255,255)" fill-rule="evenodd" d="M217.52552892 11.79026023l13.36716199-.48690701c.92839032-.03381453 1.01746565-1.78356462.08062546-1.74944183l-13.36716199.48690701c-.92839032.03381453-1.01746565 1.78356462-.08062546 1.74944183z"/>
      <path fill="rgb(255,255,255)" fill-rule="evenodd" d="M217.52552892 17.6676953l13.36716199-.48690701c.92839032-.03381453 1.01746565-1.78356462.08062546-1.74944183l-13.36716199.48690701c-.92839032.03381453-1.01746565 1.78356462-.08062546 1.74944183z"/>
      <path fill="rgb(255,255,255)" fill-rule="evenodd" d="M217.52552892 23.5451218l13.36716199-.486907c.92839032-.03381454 1.01746565-1.78356463.08062546-1.74944183l-13.36716199.486907c-.92839032.03381454-1.01746565 1.78356463-.08062546 1.74944184z"/>
      <path fill="rgb(255,255,255)" fill-rule="evenodd" d="M187.49988087 13.2802832c2.21508604-3.25075914 6.22362497.01142278 8.83048184.56227685 1.52491217.32222707 3.09883211.15212687 4.38632378-.96164627 1.14003484-.98621297 1.95811503-2.47074717 2.17442864-4.15196054.14282327-1.11008257-1.26705281-1.5884182-1.41111975-.46873673-.2034505 1.58127682-1.01279655 2.96602861-2.24334227 3.62324133-1.48512178.79319013-3.18898055.15426757-4.63407741-.45176524-2.57646864-1.0804895-6.05653234-2.45209738-8.1374724.60179422-.59300402.87026397.4365359 2.12474119 1.03477046 1.24678781l.0000071.00000857z"/>
      <path fill="rgb(255,255,255)" fill-rule="evenodd" d="M187.49988087 20.33320357c2.21508604-3.25075914 6.22362497.01142279 8.83048184.56227685 1.52491217.32222707 3.09883211.15212687 4.38632378-.96164627 1.14003484-.98621297 1.95811503-2.47074717 2.17442864-4.15196054.14282327-1.11008257-1.26705281-1.5884182-1.41111975-.46873673-.2034505 1.58127682-1.01279655 2.96602861-2.24334227 3.62324134-1.48512178.79319012-3.18898055.15426756-4.63407741-.45176525-2.57646864-1.0804895-6.05653234-2.45209738-8.1374724.60179422-.59300402.87026398.4365359 2.12474119 1.03477046 1.24678782l.0000071.00000856z"/>
      <path fill="rgb(183,211,232)" fill-rule="evenodd" d="M148.64461799 165.5281328h-33.7151674c-2.23090555 0-4.0457496-2.18669311-4.0457496-4.87511546v-57.89596062c0-2.68842235 1.81484405-4.87511546 4.0457496-4.87511546h33.7151674c2.23090555 0 4.04574959 2.18669311 4.04574959 4.87511546v57.89596062c0 2.68842235-1.81484404 4.87511546-4.0457496 4.87511546z"/>
      <path fill="rgb(255,255,255)" fill-rule="evenodd" d="M250.20316847 7.57043943c.70423092 7.18364021.93310206 14.42991737.65864857 21.65649151-.04253357 1.11998117 1.40109931 1.41829232 1.44413746.28505592.28053682-7.38670724.072602-14.78529965-.64734182-22.1292442-.1102675-1.12482773-1.56630867-.9431763-1.45544421.18769677z"/>
      <path fill="rgb(255,255,255)" fill-rule="evenodd" d="M255.08113346 7.57043943c.70423093 7.18364021.93310207 14.42991737.65864858 21.65649151-.04253357 1.11998117 1.40109931 1.41829232 1.44413746.28505592.28053682-7.38670724.072602-14.78529965-.64734182-22.1292442-.1102675-1.12482773-1.56630867-.9431763-1.45544422.18769677z"/>
      <path fill="rgb(255,255,255)" fill-rule="evenodd" d="M259.95910557 7.57043943c.70423093 7.18364021.93310207 14.42991737.65864858 21.65649151-.04253358 1.11998117 1.4010993 1.41829232 1.44413746.28505592.28053682-7.38670724.072602-14.78529965-.64734182-22.1292442-.1102675-1.12482773-1.56630867-.9431763-1.45544422.18769677z"/>
      <g>
        <path fill="rgb(160,97,106)" fill-rule="evenodd" d="M110.7046478 142.96668937c3.22328456-1.14739073 6.32736852-.07354597 6.9330651 2.3981945.60569659 2.47174046-1.51622068 5.4048365-4.74077734 6.55211591-1.28286521.47957725-2.64239035.58201414-3.96483986.29873072l-13.70814126 4.65371547-1.67537513-7.79742237 13.69166794-3.75990377c.98277076-1.10396015 2.17071184-1.908222 3.46439344-2.34543902l.0000071.00000856z"/>
        <path fill="rgb(63,61,86)" fill-rule="evenodd" d="M86.45846333 115.33277486l-2.14853894 30.9698051 19.24529494.24934043 3.73507327 6.92971012s-23.32639324 16.27379842-30.33063901 7.95841174c-7.00425288-8.31538669-10.12077355-43.3073059-3.89338914-49.29689664 6.22738442-5.98958218 13.39220599 3.18962925 13.39220599 3.18962925h-.0000071z"/>
      </g>
      <path fill="rgb(255,255,255)" fill-rule="evenodd" d="M118.5077075 119.95318956l26.35578583-.96001934c1.83048587-.06667859 2.00612076-3.51661723.15896968-3.44933924l-26.35578582.96001934c-1.83048588.06667859-2.00612076 3.51661723-.15896968 3.44933924z"/>
      <path fill="rgb(255,255,255)" fill-rule="evenodd" d="M118.5077075 131.46869494l26.35578583-.96001934c1.83048587-.0666786 2.00612076-3.51661724.15896968-3.44933925l-26.35578582.96001934c-1.83048588.0666786-2.00612076 3.51661724-.15896968 3.44933925z"/>
      <path fill="rgb(255,255,255)" fill-rule="evenodd" d="M118.5077075 142.98419175l26.35578583-.96001934c1.83048587-.0666786 2.00612076-3.51661723.15896968-3.44933924l-26.35578582.96001933c-1.83048588.0666786-2.00612076 3.51661724-.15896968 3.44933925z"/>
    </g>
  </g>
</svg>
