<svg xmlns="http://www.w3.org/2000/svg" xmlns:xlink="http://www.w3.org/1999/xlink" width="487" height="375" viewBox="0 0 487 375">
  <defs>
    <rect id="rect-1" width="487" height="375" x="0" y="0"/>
    <mask id="mask-2" maskContentUnits="userSpaceOnUse" maskUnits="userSpaceOnUse">
      <rect width="487" height="375" x="0" y="0" fill="black"/>
      <use fill="white" xlink:href="#rect-1"/>
    </mask>
  </defs>
  <g>
    <use fill="none" xlink:href="#rect-1"/>
    <g mask="url(#mask-2)">
      <g>
        <path fill="rgb(242,242,242)" fill-rule="evenodd" d="M474.86461942 163.43259857c.1358274-2.18048429-4.7427948-3.24497243-4.52112274-5.15319451.22082468-1.9013604 5.14154966-1.50621702 10.34354746-4.94048237.93813686-.61930247 6.84978955-4.52214027 6.2733519-7.45039873-1.09262507-5.55047811-24.53351544-2.71744009-26.81496429-10.79194706-.50074294-1.7720391-.03557119-4.2576607-1.41617386-9.82714139-.54926598-2.21566175-1.00540112-3.36553178-1.93673424-3.72844212-1.32147817-.51495691-2.44530149 1.00449057-5.68926934 3.2492399-4.86496523 3.3664657-5.75410898 2.31367744-9.24504024 5.28003185-2.59147675 2.2020681-3.46249163 3.938813-4.59073737 3.58875048-1.5965967-.49532524-.88344716-4.29288357-2.71144526-5.21979434-1.86538775-.94580957-5.11837364 1.73596663-7.11160367 4.06153853-3.74046773 4.3640946-4.12812631 8.73795638-5.37154084 12.7368772-1.35132184 4.34578596-4.34515945 10.28058312-11.77195568 16.39223397l-67.79629996 51.74636292c14.27195306-10.35940816 54.18301085-38.19152524 69.7330342-48.01792728 4.48899671-2.83665046 9.20338898-5.5981467 14.35017752-4.32804158 4.9551952 1.22275432 9.71410867 6.03500495 17.70317222 9.22754842.93300313.37289804 3.54277576 1.3760526 4.71781888.20625905.971469-.96708209.07735234-2.53842672.97145045-3.45549895 1.19927061-1.23012836 3.78143243.59858123 8.01334671 1.22489455 2.98412063.44159917 5.27157533.06092499 7.23866044-.26649009.59305732-.09870315 9.45160799-1.63166647 9.63237719-4.53433305l-.00006185-.0000454h.00001237z"/>
        <path fill="rgb(242,242,242)" fill-rule="evenodd" d="M360.31302645 134.03965637c-.98145195-.69907439-2.88733432 1.50454376-3.71656804.83987506-.82628955-.66225608.77845926-3.08062281.67192505-6.74865879-.01921747-.66146485-.14032406-4.8299561-1.67736328-5.37817077-2.91330606-1.03918812-8.35067617 11.84174549-12.7884902 10.6861228-.97391835-.2535839-2.0032006-1.21017241-5.00849323-2.1066142-1.1955904-.35661938-1.86542486-.45365576-2.3040249-.07907148-.62230723.531495-.23539705 1.5482886-.12063032 3.86537743.17208515 3.47500091-.57728502 3.62884397-.1960405 6.2812667.28302323 1.96903683.84464728 2.91841344.35523566 3.39801777-.69250946.67874876-2.2643158-.78396987-3.22560394-.11068191-.98093858.6871086-.66423064 3.134965-.15079563 4.83173962.963521 3.18417066 2.89896872 4.64566352 4.4120093 6.43940966 1.64427854 1.94932084 3.55843674 5.20247799 4.27628703 10.7879844l4.66007368 49.82089584c-.73112996-10.33389412-2.24318709-38.90401169-2.35603022-49.74185678-.03258992-3.12866108.03508875-6.35163461 2.11464588-8.63390916 2.00208726-2.1973207 5.6276831-3.25791753 9.427164-6.44822997.4437647-.37258026 1.66630411-1.4262246 1.45781894-2.36844768-.17237586-.77897602-1.16588898-.77219864-1.33716388-1.49696218-.22974376-.9721408 1.37126918-1.77336863 2.88543547-3.7705591 1.067711-1.4083116 1.5495148-2.6953569 1.96385024-3.80216954.1249043-.33367361 1.96331831-5.33491235.65682693-6.26546149l-.00006804.00009729v.00000648z"/>
        <path fill="rgb(242,242,242)" fill-rule="evenodd" d="M376.83909588 152.66071123l3.01603017-5.94381852.5428086-.22497626c2.51091429-1.03970048 4.3808791-2.47313697 5.5602395-4.26156499.18755438-.28428636.36115491-.57865122.5382068-.87829529.70129865-1.18801138 1.57272793-2.66501113 3.37442648-3.82244976 1.00674331-.64362318 3.53461128-1.99226796 5.04590762-.51533956.41023463.39251675.61066665.85753514.70407582 1.30053519.07990684-.03656538.1611064-.0722552.24831798-.11144072 1.07337667-.46265767 1.72403694-.52399125 2.3507666-.58298355.48169864-.04565159.97878612-.09197118 1.90186816-.38455901.40489679-.1282058.73889241-.25644402 1.02007246-.36386371.8520881-.32393884 1.91772706-.67471477 2.91313905.05973165 1.03792919.82371963.99209672 2.15743475.96232726 3.0406266-.0525558 1.57558617-.26844468 2.58357893-.41187372 3.25198328-.05289599.24397236-.111303.51919196-.1128988.61595594-.00248645.78138863 3.13340707 2.30116039 4.31054697 2.88024614 2.64974152 1.29203915 4.94259591 2.4100523 4.7631689 4.59155481-.12715572 1.56117533-1.54990447 2.7244704-4.34671812 3.54713288-.87093447.25561387-1.67833436.345367-2.36415141.37760005.2217339.5038537.32222515 1.10462703.08915992 1.76745383-.55371315 1.56810187-2.5263897 2.12110934-5.86537487 1.64983242-.83060066-.11486508-1.94614197-.27375387-3.24669554-.89840041-.61223769-.2947994-1.12108326-.62497082-1.55176004-.91467907-.1760437.24948505-.4143107.48563586-.74930832.6640331-.98442704.52654006-2.15307464.27462294-3.45805683-.80354316-1.45095335-1.1634118-2.49346578-2.35456866-3.41420362-3.40347858-.80481448-.91473095-1.50009491-1.6999136-2.17536617-2.11830759-1.26346081-.75857256-2.84266467-.41638346-4.77695575.10935887l-4.86766199 1.37168136-.00003093-.00002594h-.00000618z"/>
        <path fill="rgb(242,242,242)" fill-rule="evenodd" d="M401.04378035 121.75769313l-6.24822755-1.55140166-.34520943-.49348983c-1.59602146-2.2830139-3.39267287-3.81603558-5.34165385-4.55857593-.30985472-.11812081-.62540602-.21952843-.94675906-.32310221-1.27381487-.40996928-2.85743497-.91917354-4.38215943-2.45297348-.84915012-.85783996-2.73442953-3.07966945-1.75530322-4.98713273.25804733-.51562492.63619923-.83687875 1.02119198-1.04398091-.05404025-.07176879-.10754858-.14506815-.16580716-.2235754-.69904723-.97135604-.92068836-1.61572505-1.13408459-2.23644785-.16429178-.47700364-.3331297-.96942984-.83716317-1.83144648-.2209855-.3781578-.42400293-.68436522-.59441807-.94230739-.51499987-.78204367-1.10883654-1.77394584-.68377593-2.96983714.4966174-1.26166096 1.73860931-1.55345756 2.56091559-1.7473098 1.46682462-.34632038 2.45145577-.38306734 3.10445405-.40712863.23845255-.00821067.50719412-.01879504.59686124-.04171487.7214501-.1956682 1.32805924-3.76175177 1.5637037-5.10256853.5197996-3.01523579.96957015-5.62437415 3.02755942-5.9956962 1.47243461-.26699596 2.90647757.88094787 4.3748052 3.50896558.45671655.81851824.74432304 1.61466143.9479961 2.3020943.40855844-.35269564.93730805-.6070578 1.60786617-.53871337 1.58704053.16387616 2.59755064 2.02439723 3.0097398 5.53050919.10472812.8715698.24109982 2.04333496-.00526362 3.52085354-.11665941.69572786-.29218973 1.29556728-.4502097 1.80591947.27482164.11528015.55307607.2970369.80264965.59157038.7354225.8648962.799489 2.1141374.13587688 3.71117767-.7052139 1.76674691-1.53963701 3.12626791-2.27371733 4.32618672-.6397248 1.04832621-1.18771662 1.95265439-1.40236227 2.74370645-.37929617 1.47390615.33692124 2.98878783 1.31257145 4.81733528l2.5000716 4.58914868-.00014845-.00005837v-.00000648z"/>
        <path fill="rgb(242,242,242)" fill-rule="evenodd" d="M408.93074449 103.53005002l3.01603017-5.94381852.5428086-.22497627c2.51091429-1.03970047 4.3808791-2.47313697 5.56023949-4.26156498.18755439-.28428636.36115492-.57865122.5382068-.8782953.70129866-1.18801138 1.57272794-2.66501112 3.37442649-3.82244976 1.00674331-.64362317 3.53461128-1.99226796 5.04590762-.51533955.41023463.39251674.61066665.85753514.70407582 1.30053518.07990684-.03656537.16110639-.0722552.24831797-.11144072 1.07337668-.46265766 1.72403695-.52399124 2.3507666-.58298354.48169865-.0456516.97878613-.09197119 1.90186817-.38455901.40489679-.1282058.73889241-.25644402 1.02007246-.36386371.8520881-.32393884 1.91772706-.67471477 2.91313905.05973165 1.03792918.82371963.99209671 2.15743474.96232726 3.0406266-.0525558 1.57558617-.26844468 2.58357892-.41187372 3.25198328-.05289599.24397235-.11130301.51919195-.1128988.61595594-.00248645.78138863 3.13340707 2.30116039 4.31054697 2.88024614 2.64974152 1.29203915 4.94259591 2.4100523 4.7631689 4.59155481-.12715572 1.56117533-1.54990448 2.7244704-4.34671812 3.54713288-.87093447.25561387-1.67833436.345367-2.36415142.37760005.22173391.5038537.32222516 1.10462703.08915993 1.76745383-.55371315 1.56810187-2.5263897 2.12110934-5.86537488 1.64983242-.83060065-.11486508-1.94614196-.27375388-3.24669553-.89840041-.61223769-.2947994-1.12108326-.62497082-1.55176004-.91467908-.1760437.24948505-.4143107.48563587-.74930832.66403312-.98442705.52654005-2.15307464.27462293-3.45805683-.80354317-1.45095335-1.1634118-2.49346578-2.35456866-3.41420362-3.40347858-.80481448-.91473095-1.50009492-1.69991361-2.17536617-2.11830759-1.26346081-.75857256-2.84266467-.41638346-4.77695575.10935887l-4.867662 1.37168136-.00003092-.00002594h-.00000618z"/>
        <path fill="rgb(242,242,242)" fill-rule="evenodd" d="M344.32588132 214.55198016l-.62969857-1.51735915-1.38727033-.76915693c.06148107-.1398992.17962493-.47798944.36839781-1.00419873 1.03646329-2.88176375 4.18754152-11.65375615 10.450193-24.53482595 4.37194145-8.99165703 9.33896279-17.89660911 14.76484695-26.47207724 5.4345682-8.58876344 10.0231655-14.75032038 13.71018057-19.7031447 2.78152997-3.7352584 5.49079803-7.24831636 8.1322699-10.66913073 7.05385848-9.14105102 13.71580294-17.7764259 19.80414258-28.26087492 1.36032134-2.33982707 4.18958883-7.2116537 4.83754616-14.09252635.3753933-3.99089173-.0348599-8.0682225-1.22231674-12.11635545l3.01818262-.9729839c1.30845828 4.4717737 1.76005347 8.9861119 1.3435161 13.41737704-.71838223 7.62909431-3.80117565 12.93761058-5.28236234 15.4882171-6.19612327 10.66942259-12.92314241 19.38731925-20.04556403 28.6161583-2.63023953 3.40925068-5.32903601 6.90634128-8.09885118 10.62652085-3.65316955 4.90671225-8.20132788 11.01497766-13.56579282 19.49357155-5.36223826 8.47232887-10.26774142 17.2687652-14.58576631 26.14644567-6.18298586 12.71902904-9.28632658 21.36083757-10.30604648 24.1997839-.54539403 1.51537458-.65944946 1.83286681-1.30561308 2.12459855l.00002474-.00003242-.00001855-.0000065z"/>
        <path fill="rgb(242,242,242)" fill-rule="evenodd" d="M405.54737418 76.32062733c-.10676925-.07667832-.21306842-.15692368-.3171409-.24342757-2.13487155-1.71722347-3.27875353-4.58278639-3.40184556-8.51659256-.05483197-1.84852286.4229267-3.5690734 1.3757782-7.00037486.14606394-.52948448.91626593-3.19519605 2.4837859-6.49833711 1.02355474-2.15878374 1.59459888-2.9586561 2.44233877-3.41888818.94238611-.51365332 1.98005552-.5985942 2.98147954-.43938112.13760256-.28495437.34010662-.53501663.62751518-.73196896 1.18703007-.81960132 2.2690413.1767629 2.86010699.70696078.29498545.27449971.66133596.6198278 1.11172503.90802493.70643857.45645102 1.21309458.50699917 1.97872569.58692674.73279997.0759325 1.64396928.17032926 2.76404436.66536913 2.21390008.96731557 3.46093914 2.70871058 3.87244174 3.28223823 2.1728859 3.0054232 2.06179318 6.29722757 1.93254066 10.10850927-.0279139.76313188-.19596628 3.49317982-1.20781858 6.67457468-.72991767 2.2952456-1.36077287 3.0952801-1.93276334 3.6164696-1.1716969 1.07340572-2.41544543 1.27663603-5.41200453 1.54467616-3.13218858.2841761-4.70296198.42487301-5.9102672.329244-2.80772437-.22682464-4.57083334-.36918185-6.24859866-1.57408153l-.0000433.00006486v-.00000649z"/>
      </g>
      <path fill="rgb(63,61,86)" fill-rule="evenodd" d="M216.23657227 0h176.87255859c6.48828125 0 11.76428223 5.53222656 11.76428223 12.33544922v191.296875c0 6.8034668-5.27600098 12.33544922-11.76428223 12.33544922h-176.8725586c-6.48828124 0-11.76428222-5.53198242-11.76428222-12.33544922v-191.296875C204.47229004 5.53222656 209.74829102 0 216.23657227 0zm176.87243652 214.67089844c5.81396484 0 10.52722168-4.94213867 10.52722168-11.03857422V99.55786132c0-54.26782226-41.95581055-98.26074218-93.7109375-98.26074218H216.2364502c-5.81408692 0-10.52722168 4.94213867-10.52722168 11.03833008v191.296875c0 6.09643555 4.71325683 11.03857422 10.52722168 11.03857422h176.87255859z"/>
      <path fill="rgb(255,182,182)" fill-rule="evenodd" d="M200.72879193 143.77421045c-6.19926536 1.75696675-10.35970944 6.53509705-9.29269117 10.67171197 1.06701827 4.1366214 6.9567629 6.06465676 13.15801372 4.30619186 2.48633422-.66680892 4.78422339-1.94825721 6.70141234-3.7371457l26.17689094-7.79216626-3.74915177-12.80251716-25.40773426 9.04092104c-2.5164686-.53248079-5.1179716-.42515837-7.58673362.31300425h-.00000618z"/>
      <path fill="rgb(63,61,86)" fill-rule="evenodd" d="M310.42524179 105.36484302s7.39051374 11.36779654-9.26558135 19.94330357c-16.6560951 8.57551353-47.44493872 20.81478907-47.44493872 20.81478907l-42.51128662 10.32697406-6.41972511-14.75768145 50.44369975-14.4110368 41.10499056-24.05326948 14.09284767 2.13691455-.00000618.00000648z"/>
      <path fill="rgb(47,46,65)" fill-rule="evenodd" d="M305.48038209 75.10708893c-.1890141 5.38857355 3.51055696 11.78518526 7.42214495 11.91651707 4.70564018.1580392 26.95103292 1.81931207 27.66617409-.11532555 4.96522144-13.43221592-18.41844947-41.29588506-23.68938153-42.0997071-2.83256421-.43194224-6.22440208 3.83242449-7.52843175 7.3527981-1.82740431 4.93327696.86944383 7.25977628-.6526952 13.90589898-1.16070578 5.068085-3.08568192 5.27272267-3.21781056 9.0398185z"/>
      <g>
        <path fill="rgb(255,182,182)" fill-rule="evenodd" d="M266.75836456 287.52930807l-15.61284662 3.75167975 15.68806507 48.8101597 10.57975477-2.54148788-10.65497322-50.02035157z"/>
        <path fill="rgb(47,46,65)" fill-rule="evenodd" d="M267.21799435 325.79804345l.93086305 3.39174626s.20124227-4.31438307 6.87053477-7.27100271l1.73361166 3.03571707s3.57028762 2.40887193 4.72405358 8.3794562l2.56203512 16.14948738-5.24303673 1.45849007-3.84729264-10.6097039s-2.1168911-2.02917706-5.4841613 11.69696919c0 0-1.36353765 4.6129246-13.73354832 4.07855653-1.70018055-.07344205-3.19614373-1.26286728-3.64991612-2.9824904-.25042095-.94900044-.13969317-1.93011071.9043965-2.58755453 2.65768333-1.67349809 5.74843094-1.51667817 6.94081123-4.49112651 1.19197205-2.97341715 1.25302635-21.16464405 1.25306964-21.17718057l6.03857956.92863592z"/>
      </g>
      <g>
        <path fill="rgb(255,182,182)" fill-rule="evenodd" d="M300.67777623 309.7206556l-13.94213245-.3612695 1.95178288 51.39738997 10.85212088.20284767 1.13822869-51.23896813z"/>
        <path fill="rgb(47,46,65)" fill-rule="evenodd" d="M286.69293484 344.5556315l5.64798918 2.42508575.12507131 3.52695642s1.18551469-4.13681597 8.33737795-5.3236405l.98594242 3.38395066s2.91250816 3.23898629 2.66206866 9.32524632l-1.2196942 16.32137317-5.42368842.09262622-1.29921756-11.26871073s-1.58896414-2.50370972-8.0075388 9.96936888c0 0-2.38216895 4.13328785-14.26600287.49324338-1.63335545-.50029963-2.81237565-2.0322512-2.85814627-3.81584101-.02526044-.98430115.30738681-1.90863716 1.47168001-2.28329926 2.96365993-.95368949 5.92758581-.02157734 7.76758323-2.607731 1.83999743-2.5861472 6.07657536-20.23863478 6.07657536-20.23863478v.00000649z"/>
      </g>
      <path fill="rgb(47,46,65)" fill-rule="evenodd" d="M329.44751705 253.58164883l-73.73628713-5.98258249 20.7503697-89.1962882 49.64576324-7.50044102 3.34015419 102.6793117z"/>
      <path fill="rgb(108,99,255)" fill-rule="evenodd" d="M319.27831235 89.62528601l15.5361932-8.67880843 12.54582552 15.53248728-25.21061752 84.72649906-46.11638466-21.41156731 35.02686271-62.78926076 8.21812075-7.37934984z"/>
      <path fill="rgb(47,46,65)" fill-rule="evenodd" d="M321.24737673 165.9077201s4.94733998 26.7485226-10.37250047 40.65120476l-4.68949057 15.63288963-5.0633685 28.8550006.45814534 74.52637532-18.55565617-1.94565652-7.42226247-71.3381512-.08823833-35.50478113-27.39373995 24.59783928 28.66929905 59.04338555-23.3608289 10.72600227-28.53154186-71.15213348c-1.98248012-4.33422228-1.45382329-9.47170237 1.3647747-13.26274924l49.7713541-66.94304933 45.21404785 6.1138235h.00000618z"/>
      <path fill="rgb(63,61,86)" fill-rule="evenodd" d="M340.48235548 87.96361752l-30.46107651 29.79817705c-7.20911365 61.33962342-3.27381772 117.66427178 17.46861017 166.42562793l51.18727437-24.87609411c-42.2082975-13.42325942-38.0688708-87.12886602-29.87902887-166.10254518l-8.31577916-5.2451592v-.00000649z"/>
      <path fill="rgb(63,61,86)" fill-rule="evenodd" d="M314.21266151 97.10264506l4.68611963-7.6024453-25.91740864 15.97694656-20.49400476 59.55089708 37.80546089-49.4691341 3.91983288-18.45626424z"/>
      <path fill="rgb(255,182,182)" fill-rule="evenodd" d="M379.04353257 209.11665897c1.78628499 6.46777085 6.4168861 10.74400608 10.3422362 9.5513381 3.9253501-1.19267448 5.65842364-7.40188055 3.87067895-13.8717073-.68032458-2.5947016-1.94335862-4.98084178-3.68345238-6.95877673l-7.89860472-27.30398808-12.14066895 4.1596515 9.0755838 26.47527459c-.46271002 2.64775316-.31381944 5.37320935.4342271 7.94820792z"/>
      <path fill="rgb(63,61,86)" fill-rule="evenodd" d="M339.29910458 93.84472753s10.62457287-8.07280776 19.2782629 9.13833358c8.65369004 17.21114135 21.20618322 49.12979216 21.20618322 49.12979216l11.06635211 44.2601187-13.88405324 7.15271329-15.18764377-52.4568648-24.11125055-42.39170475 1.63214933-14.83238818z"/>
      <ellipse cx="326.666" cy="62.156" fill="rgb(255,182,182)" rx="17.254" ry="18.092"/>
      <path fill="rgb(47,46,65)" fill-rule="evenodd" d="M326.72239009 55.09776275c-.97120923-.10044127-1.47049865.97638233-5.17958876 2.47877938-1.31406209.53227974-1.9868407.7994508-2.75865085.8514582-2.34617716.15805217-4.16966623-1.20070355-5.38827803-2.10877387-1.98084722-1.47605286-3.25692588-2.42688223-3.50617164-3.94697178-.32526828-1.98366168 1.81642555-4.19958934 6.11306196-8.55042104 2.1041743-2.13074034 3.38637014-3.4177986 5.44521297-4.94961398 3.45336843-2.56935617 5.18004646-3.85400183 7.60052048-4.10610054 3.20587927-.33383575 5.6431647 1.2702478 9.16007389 3.58491753.95012382.62532103 2.3199704.9260417 3.77220408 1.04064087 4.75399623.37514203 8.82956055 3.69764238 10.122463 8.50921852.09877795.36760586.18177121.70034555.24401307.98527397 2.5522068 11.6828956 1.84006546 23.83422747-1.6525853 35.24649523-.09401532.3071997-.17267893.59322418-.2335353.85389676-1.62243235 6.95009261-23.90961243 9.6593804-26.51642853 3.7837766-1.64151993-3.6998345 6.02996355-7.40178326 7.17555884-18.433753.79754066-7.68010293-1.97521867-14.98834551-4.39786988-15.23880339v-.00001946z"/>
      <rect width="186.949" height="1.005" x="72.571" y="59.182" fill="rgb(230,230,230)" rx="0" ry="0"/>
      <g>
        <path fill="rgb(230,230,230)" fill-rule="evenodd" d="M233.12814898 44.49093194H98.96379648c-2.1136315 0-3.83326456-1.8031242-3.83326456-4.01937614 0-2.21625194 1.71963306-4.01937615 3.83326456-4.01937615h134.1643525c2.1136315 0 3.83326456 1.80312421 3.83326456 4.01937615 0 2.21625194-1.71963306 4.01937614-3.83326456 4.01937614z"/>
        <ellipse cx="72.986" cy="58.748" fill="rgb(230,230,230)" rx="8.041" ry="8.431"/>
        <ellipse cx="97.726" cy="40.588" fill="rgb(230,230,230)" rx="8.041" ry="8.431"/>
      </g>
      <rect width="186.949" height="1.005" x="9.482" y="153.222" fill="rgb(63,61,86)" rx="0" ry="0"/>
      <g>
        <path fill="rgb(108,99,255)" fill-rule="evenodd" d="M170.038918 138.5309969H35.8745655c-2.1136315 0-3.83326457-1.8031242-3.83326457-4.01937614 0-2.21625194 1.71963306-4.01937615 3.83326456-4.01937615H170.038918c2.1136315 0 3.83326457 1.8031242 3.83326457 4.01937615 0 2.21625194-1.71963307 4.01937614-3.83326457 4.01937614z"/>
        <ellipse cx="8.041" cy="152.788" fill="rgb(108,99,255)" rx="8.041" ry="8.431"/>
        <ellipse cx="32.782" cy="134.628" fill="rgb(108,99,255)" rx="8.041" ry="8.431"/>
      </g>
      <rect width="186.949" height="1.005" x="31.749" y="256.991" fill="rgb(230,230,230)" rx="0" ry="0"/>
      <g>
        <path fill="rgb(230,230,230)" fill-rule="evenodd" d="M192.3057054 242.29934444H58.1413529c-2.1136315 0-3.83326456-1.8031242-3.83326456-4.01937614 0-2.21625194 1.71963306-4.01937615 3.83326456-4.01937615h134.1643525c2.1136315 0 3.83326456 1.80312421 3.83326456 4.01937615 0 2.21625194-1.71963306 4.01937614-3.83326456 4.01937614z"/>
        <ellipse cx="54.43" cy="237.748" fill="rgb(230,230,230)" rx="8.041" ry="8.431"/>
        <ellipse cx="30.308" cy="257.205" fill="rgb(230,230,230)" rx="8.041" ry="8.431"/>
      </g>
    </g>
  </g>
</svg>
