<svg xmlns="http://www.w3.org/2000/svg" xmlns:xlink="http://www.w3.org/1999/xlink" width="499" height="321.534" viewBox="0 0 499 321.534">
  <defs>
    <rect id="rect-1" width="499" height="321.534" x="0" y="0"/>
    <mask id="mask-2" maskContentUnits="userSpaceOnUse" maskUnits="userSpaceOnUse">
      <rect width="499" height="321.534" x="0" y="0" fill="black"/>
      <use fill="white" xlink:href="#rect-1"/>
    </mask>
  </defs>
  <g>
    <use fill="none" xlink:href="#rect-1"/>
    <g mask="url(#mask-2)">
      <path fill="rgb(242,242,242)" fill-rule="evenodd" d="M476.8508959 177.76161488l-1.56316797 15.69084585-3.8795133 38.972895h-77.93631508c.60859107-8.73506457 1.44060697-21.30802453 2.3294419-34.88078.08760608-1.35555491.17954122-2.7196005.26709549-4.092115 2.22879106-34.11824453 4.66769738-72.72688218 4.66769738-72.72688218l10.24614561 2.40622916 19.87921567 4.6598003 8.10057975 1.89780446 21.69205346 5.09190324c10.8153433 2.5332265 18.2547384 22.27388635 16.19677285 42.98030643l-.00000575-.00000726z"/>
      <path fill="rgb(255,182,182)" fill-rule="evenodd" d="M417.89914724 57.58975918l9.58414927 21.14241277-18.42067644 16.45679936-7.8580195-25.9880283 16.69454667-11.61118383z"/>
      <ellipse cx="405.698" cy="47.66" fill="rgb(255,182,182)" rx="23.743" ry="29.931"/>
      <path fill="rgb(47,46,65)" fill-rule="evenodd" d="M403.9929986 54.35187897c-1.88528638-3.6170289-1.14532075-5.50887537-2.72366349-6.83813821-.00002878-.00003629-.6351469-.53491273-5.18073807-.83987322-1.0176938-9.2336996-2.28813154-10.35346766-2.28816032-10.35350394-1.46419234-1.2905468-3.63714302-.87121615-4.9889753-.08190239-2.85907353 1.66939796-2.52760618 5.27544704-4.45267163 5.96550695-2.65930888.95324916-7.4976418-4.42063168-7.97429989-10.57265053-.38880448-5.01832462 2.17593843-9.89233675 3.19321775-9.63450315 1.00862119.2556565 3.42345282-3.63065754 4.72731995-3.5707148.8904353.04093668 4.52864332-1.95250765 5.507364-1.79665653 1.06884244.17023447 4.59300943 2.48860326 4.73986388 1.95892282 1.02053188-3.68075253.7205942-4.7020142 1.58652882-5.75499618 1.5344073-1.86588096 4.04453601-.56653143 7.98236509.13103947 8.10220314 1.43525843 9.51629457-1.93250739 13.6684989.35018604 2.09749708 1.15310667 3.8525775 4.26290101 7.27714138 10.43540634 4.78921641 8.63217497 7.1838131 12.9482697 7.19917784 17.98237829.0156641 5.13388493-1.95642816 4.80798803-2.82268516 12.40827709-.9642655 8.4603875 1.08452956 12.3289582-1.15371983 15.07756489-1.72987165 2.1243314-5.24602526 2.6285906-7.0934438.7641828-3.1629776-3.19203054.97635466-10.89441094-2.52382975-16.52177844-2.14855362-3.45430542-6.46943619-4.99130686-8.44877618-3.28380244-2.23803063 1.93067136-1.00512109 7.59755317-2.57894479 8.13493327-1.34771045.4601875-3.32303224-3.32956502-3.65156365-3.95987087l-.00000576-.00000726z"/>
      <path fill="rgb(108,99,255)" fill-rule="evenodd" d="M459.30157693 172.23567107c-.66224964 14.27444107-3.29269998 18.78100277-4.2141123 35.63897579-.2012614 3.70113742-.32212992 7.99721738-.32212992 13.12069579 0 1.30611304.00562434 2.56900345.00562434 3.80282962 0 2.62676183-.03991724 5.10894991-.28221268 7.62692947-.18383574 2.01020071-.50034132 4.03492992-1.0242968 6.16844141h-51.13716952c-.00562434-.0145285-.00562434-.02905699-.01180707-.04358548-.29907993-1.6399128-.48909841-3.20753148-.63301692-4.70960502-.04609997-.47907744-.08657561-.95070922-.12086851-1.41525817-.04609998-.54427424-.08657562-1.08111007-.12649286-1.61085582-.15572558-2.11190017-.310887-4.1075724-.67967529-6.01607365-.49472274-2.63455584-1.39308508-5.11638833-3.2353571-7.51105711-.75388542-.97976621-1.50777085-1.74160501-2.24478903-2.40919002-.1439185-.12366637-.28221268-.24697714-.42613119-.37028791-2.03790906-1.76357918-3.96619253-3.0335524-5.6358717-6.63299037-.02866858-.0506683-.05171856-.10878228-.07476855-.15945784-.28783701-.6314452-1.0360981-2.28623484-1.57747923-4.4920332-.57004969-2.29332492-.91522959-5.1745023-.29346135-8.12052816 1.4796607-6.98131136 6.95980684-7.67795336 11.43871192-14.73189994.48347408-.7618388.96132957-1.60376574 1.41613507-2.53994647 2.026102-4.15115061 2.57310746-7.80835421 3.21792569-12.15545807.10344286-.70408042.19563706-1.40072968.27041135-2.07539752.05790705-.50813443.1096256-1.00882319.15010125-1.50242187.35642281-4.1437122.18383574-7.71409318-.23611846-10.90710342-1.3700351-10.45743856-5.41156033-16.93061549-2.5562402-26.3140268.8983681-2.94602584 2.17058466-5.15961821 3.45404414-7.05359824 2.71702596-4.01331135 5.50937886-6.61846187 5.02590479-11.79969866-.48966257-5.22517787-3.63281971-5.94378678-3.98361819-10.50846245-.17877557-2.30749782.41994844-4.738662 1.54262792-7.12623345v-.00709008c3.59233831-7.68539179 12.56138565-14.76095694 18.26022459-14.5359467 1.05352951.0364954 1.98619051.3337925 2.76312017.90712373 2.8154029 2.089926 1.64101062 6.65460168 5.95294145 13.05549174 3.20612437 4.75318324 6.83275558 6.65460168 8.20897917 7.554287 5.45147757 3.58526506 9.88427692 14.15856871 12.89475847 27.67826107.02304999.10169945.04609998.20304332.06914996.31218119 1.85969767 8.46884915 3.17238987 18.08436077 3.82283244 27.83771165.27602993 4.1291837.43737985 8.28034158.47167275 12.38755113.02923273 3.28017395-.02866857 6.12521152-.14954284 8.65771957l-.00000576.00000726z"/>
      <g>
        <path fill="rgb(255,182,182)" fill-rule="evenodd" d="M421.00801148 221.14062759l-1.0422866 3.65755193-.6560669 2.29296933-1.52013634 5.33395289-1.76131497 6.16844141h-11.32346774l1.8996149-6.16844141.88093668-2.87373897 1.46223505-4.75318325 2.45223893-7.98268888 9.60824699 4.32513695z"/>
        <path fill="rgb(108,99,255)" fill-rule="evenodd" d="M452.10009766 151.19058398c1.54821777-11.76367187 2.60791015-22.07592773 3.05651855-27.83789062.04052734-.56616211.08093262-1.0883789.10961914-1.56030273-.02868652.29077148-.08093262.7331543-.17871094 1.24829101-.63867187 3.33081055-3.0970459 9.77514649-12.05993652-.31225586-1.15136719-1.28417969-2.41235352-2.85913086-3.78796387-4.73876953-3.5637207-4.86938477-10.08618164-13.78076172-18.49633789-12.83740234-.38012695.04345703-2.33764648.29760742-4.60546875 1.48754882l-.00610351.00732422c-1.96313477 1.03759766-4.15625 2.77954102-5.76245117 5.7109375-.82299805 1.50952149-1.36437989 3.0991211-1.69213868 4.70288086-.04040527.18139649-.08093261.36987305-.10961914.55151367v.00708008c-.11523437.65332032-.20129394 1.30639649-.25354004 1.95239258v.00708008c-.43029785 5.22143555.96899414 10.16870117 1.59399414 12.37890625l.0065918.02319336c2.10144043 7.41674805 4.74365234 7.69995117 7.99584961 14.50683594.73706055 1.5456543 1.35876465 3.11328125 1.8828125 4.70239257.29345703.8857422.5526123 1.77832032.78308106 2.67089844v.00708008c1.11083984 4.2524414 1.5769043 8.53442383 1.69213867 12.5834961.17260742 6.13940429-.46606446 11.72021484-.92651367 15.71166992-.32824707 2.8227539-1.47399903 11.53100585-5.47509766 22.0246582-.47167969 1.23388672-.94384766 2.44555664-1.42175293 3.62133789-.00561523.02172851-.01733398.04370117-.02294922.06518555-.28222656.68969726-.56396484 1.37182617-.84057617 2.04663086-2.41223145 5.79833984-4.8010254 10.80541992-6.89672852 14.87695312-1.08227539 2.10449219-2.08972168 3.9621582-2.97619629 5.54394531-.42565918.75488282-.82312011 1.45141602-1.19128418 2.08300782-.29968261.51513671-.57568359.9868164-.83483886 1.4152832-1.26098633 2.11157226-2.01489258 3.2290039-2.01489258 3.2290039l2.64782715 1.48046875.0748291.04370118h18.38720703c1.64050293-1.7631836 3.47155762-3.83154297 5.37109375-6.16845703 1.5600586-1.91601563 3.171875-4.00585938 4.74938965-6.24829102.32214355-.45703125.64477539-.91455078.95568848-1.37866211.08605957-.12329102.17260742-.23950195.24731445-.36279297 1.92834472-2.84472656 3.78796387-5.89282226 5.44592285-9.10791015.51208496-.97973633 1.00183105-1.97363282 1.46777344-2.98242188.6105957-1.32055664 1.20935058-2.81567383 1.79064941-4.47045898 3.25268555-9.17260743 6.13110352-23.12817383 8.44506836-37.30078125 1.07653809-6.56738282 2.03222656-13.17871094 2.84973145-19.38330079z"/>
        <path fill="rgb(108,99,255)" fill-rule="evenodd" d="M455.29492188 121.41519336c-.00561524.00708008-.00561524.02172852-.00561524.04321289-.00561523.10180664-.01184082.21044922-.02307129.31958008.0230713-.20336914.02868653-.32666016.02868653-.36279297z"/>
      </g>
      <path fill="rgb(230,230,230)" fill-rule="evenodd" d="M409.57491814 274.54470013H100.98497317c-2.8671272 0-5.2041162 2.93893577-5.2041162 6.55325782 0 3.62105653 2.336989 6.5599923 5.2041162 6.5599923h308.58994497c2.86656304 0 5.19849186-2.93893577 5.19849186-6.5599923 0-3.61432205-2.33192882-6.55325782-5.19849186-6.55325782z"/>
      <path fill="rgb(230,230,230)" fill-rule="evenodd" d="M341.09275937 308.4204596h-171.6315281c-2.86684512 0-5.19821553 2.93893577-5.19821553 6.55290948 0 3.61397371 2.33136465 6.5603479 5.19821553 6.5603479h171.63153386c2.86684512 0 5.2041162-2.94638144 5.2041162-6.5603479 0-3.61396645-2.33727108-6.55290948-5.2041162-6.55290948h-.00000576z"/>
      <path fill="rgb(255,182,182)" fill-rule="evenodd" d="M135.32335297 58.98101123l19.44836971-10.3177923 8.34178141 21.55721505-20.43737193 10.51571219-7.35277919-21.75513494z"/>
      <g opacity=".1">
        <path fill="rgb(0,0,0)" fill-rule="evenodd" d="M135.32335297 58.98101123l19.44836971-10.3177923 8.34178141 21.55721505-20.43737193 10.51571219-7.35277919-21.75513494z"/>
      </g>
      <path fill="rgb(108,99,255)" fill-rule="evenodd" d="M138.08815412 50.76635991l19.18610414 27.86664527s-13.34685255 53.10436612-26.69371086 57.83643878-37.95512094 27.86664527-37.95512094 27.86664527L61.7608249 139.09836838l15.01521344-27.86664527s36.28676005-62.56851144 45.879815-62.56851144c9.59304919 0 15.43230078 2.10314099 15.43230078 2.10314099v.00000725z"/>
      <path fill="rgb(47,46,65)" fill-rule="evenodd" d="M112.16604793 232.42534848h-44.661896l-2.82370412-4.7583865-11.52835012-19.42776023-2.65268287-4.46918095s-10.0101423-23.1345726-7.92469406-44.16600423c2.08544823-21.03143162 23.77408794-25.76350428 23.77408794-25.76350428h.89257682l26.5518878 29.41242766-1.5849342 27.372437 8.40850778 17.6138248 11.54920103 24.18614673z"/>
      <path fill="rgb(47,46,65)" fill-rule="evenodd" d="M76.65091559 232.42534848H64.6804478v-22.34589746l11.97046778 22.34589746z"/>
      <path fill="rgb(242,242,242)" fill-rule="evenodd" d="M334.8374624 198.50164208l-1.4889866 9.73755967-3.695407 24.18614673h-74.23770735c.5797095-5.42088437 1.37223993-13.22352734 2.21888947-21.64662118.0834497-.84124478.17102124-1.68775088.25441913-2.53952555 2.12302248-21.17340738 4.44618378-45.13349887 4.44618378-45.13349887l9.7598968 1.49327807 18.93580683 2.89182339 7.71615039 1.17775866 20.6626159 3.15997642c10.30208386 1.57209624 17.38842384 13.82292568 15.42812714 26.67310266h.00001152z"/>
      <path fill="rgb(47,46,65)" fill-rule="evenodd" d="M439.8980695 232.42534848h-40.26575558c.6131101-.90959837.95927441-1.4353818.95927441-1.4353818l12.070589-2.51326978 24.87098298-5.1737766s1.13446929 3.69628975 2.36491494 9.12243543l-.00000575-.00000725z"/>
      <path fill="rgb(160,97,106)" fill-rule="evenodd" d="M269.1016717 69.49747814l17.51089274 31.21809737-30.54474556 1.14990633-3.27868808-29.33768792 16.3125409-3.03031578z"/>
      <g opacity=".1">
        <path fill="rgb(0,0,0)" fill-rule="evenodd" d="M269.1016717 69.49747814l17.51089274 31.21809737-30.54474556 1.14990633-3.27868808-29.33768792 16.3125409-3.03031578z"/>
      </g>
      <path fill="rgb(160,97,106)" fill-rule="evenodd" d="M182.7454217 134.17911618c-2.24684995-8.17073927-7.41243628-13.33235316-11.53712339-11.52894763-4.1246871 1.80341279-5.64596903 9.88795353-3.39744962 18.06122549.86266479 3.28042068 2.3359758 6.25270958 4.29668123 8.6681769l9.86681673 34.46819835 12.73235507-6.18164188-11.07870841-33.32324129c.3539359-3.428173.05130982-6.91334965-.8825716-10.1637772v.00000726z"/>
      <path fill="rgb(204,204,204)" fill-rule="evenodd" d="M301.27745145 118.27200478l-.02402288 31.81523878-2.34816283 11.75136711-4.82992808 24.17035552-3.51603271 22.23023556-2.61933408 16.56225068-.93427864 5.91509263c-.70490709.59413702-1.40564053 1.16196746-2.10632217 1.70880342H223.8917225c-3.4660124-2.6236631-5.40545818-4.66371908-5.40545818-4.66371908s.95929743-1.13571166 2.05624428-2.96017697c1.85188001-3.0811002 4.09164342-8.12862696 2.71943228-12.95010573-.28779096-1.00953438-.36286461-2.23985542-.27529308-3.61214495.5589104-9.05401654 8.09154167-24.36495897 8.09154167-24.36495897l-1.55990966-22.72444382-.68403315-9.95835359 4.82281851-48.55659197 15.72009174-11.51991993 2.71400943-.33102034 26.78962966-1.82445806 11.0727099.80440104.50465887.17355092 10.8192694 28.334605.00001727-.00000725z"/>
      <g>
        <path fill="rgb(255,182,182)" fill-rule="evenodd" d="M302.46717393 232.42534848h-13.34685256l-.58810858-7.6238888-.01252667-.15249838 3.77885094-.32599125 9.8308256-.8465061.17096942 4.56378307.13349305 3.50181693.0333488.88328453z"/>
        <path fill="rgb(204,204,204)" fill-rule="evenodd" d="M305.75281039 125.96425441l5.60668504 41.46872623-4.57545714 40.80622836-.7132083 6.35146996-1.25961506 11.21498847-.38786613 3.44918199.01252666.37328504.09592457 2.79721402H288.6824119l-.58398675-7.62389605-.0499973-.6835504-1.19291746-15.61581582-.02082213-.26289172-2.53171073-33.11397873 4.96332326-23.93377765.36709006-1.7614311v-.005196l2.15946264-40.97977928-1.67253453-18.62329386-.01664849-.17355092c.0333488.02631385.06257577.0526277.09592456.07888348.08762335.06835359.17519488.13670718.25859277.21032934 9.7431965 7.79217839 15.54909929 21.46261294 15.29462834 36.02685464h-.00000575z"/>
      </g>
      <path fill="rgb(204,204,204)" fill-rule="evenodd" d="M239.33520288 110.58114848l-6.09491993-7.94686839s-13.04733512 7.41488023-13.69767982 11.52859204c-.6503447 4.1137118-23.68696544 64.5331818-23.68696544 64.5331818l-10.02237536-33.74406687-13.04590744 10.98003616s10.46799887 52.38955988 20.25783071 54.8490481c9.78983184 2.45948821 42.60087363-62.00809766 42.60087363-62.00809766l3.6891379-38.19182518h.00000575z"/>
      <path fill="rgb(230,230,230)" fill-rule="evenodd" d="M486.81306152 207.87465412H12.18135444C5.46328464 207.87465412 0 214.76879452 0 223.23764367c0 8.46884916 5.46327888 15.35590674 12.18135444 15.35590674h474.63170708c6.7180698 0 12.18697302-6.88670199 12.18697302-15.35590674 0-8.46920474-5.46890322-15.36298955-12.18697302-15.36298955z"/>
      <path fill="rgb(63,61,86)" fill-rule="evenodd" d="M298.49972067 161.0614451l-.92275365 54.28404063c-.08932734 5.25483719-3.49412257 9.4559667-7.66357984 9.4559667h-79.21421931c-4.0708731 0-7.43169259-4.01139551-7.65390852-9.13551254l-2.35410954-54.28404062c-.24006758-5.5357335 3.2560353-10.1904539 7.65390852-10.1904539h82.4910825c4.29772896 0 7.75565314 4.45349133 7.66357984 9.86999974z"/>
      <ellipse cx="170.621" cy="48.194" fill="rgb(255,182,182)" rx="18.952" ry="23.891"/>
      <path fill="rgb(255,182,182)" fill-rule="evenodd" d="M138.9223288 110.70593968l2.08544823 28.39243596 14.181033 72.0326495-12.25143124 5.41311213-20.69861855-78.49733576-2.85886628-31.54715106 19.54243484 4.20628923z"/>
      <path fill="rgb(63,61,86)" fill-rule="evenodd" d="M133.28127602 161.0614451l-.92275364 54.28404063c-.08932734 5.25483719-3.49412257 9.4559667-7.66357984 9.4559667H45.48072323c-4.0708731 0-7.43169259-4.01139551-7.65390852-9.13551254l-2.35410954-54.28404062c-.24006758-5.5357335 3.2560353-10.1904539 7.65390852-10.1904539h82.4910825c4.29772896 0 7.75565314 4.45349133 7.66357983 9.86999974z"/>
      <ellipse cx="157.447" cy="216.823" fill="rgb(255,182,182)" rx="14.968" ry="8.346"/>
      <path fill="rgb(108,99,255)" fill-rule="evenodd" d="M109.5175387 115.04678076l8.55033083-57.44519994s23.77408795-4.20628923 24.60826263 5.78364678c.83417469 9.989936-.5960759 58.81208301-.5960759 58.81208301l-32.56251756-7.1505226v-.00000725z"/>
      <path fill="rgb(47,46,65)" fill-rule="evenodd" d="M162.97056423 51.94986611s11.72380872-5.27465602 16.66917672-8.11266883c4.94536223-2.83801281 14.77011446 16.9569511 14.9886691 6.50256774.21855465-10.45438336-3.1763102-14.83849061-3.1763102-14.83849061s-.84773757-22.87045447-19.12579077-20.0111061c0 0 4.02036345-11.44234271-9.17668145-13.2116912-13.1970449-1.76934847-33.72836107 38.40469447-31.88964097 44.4084893 1.8387201 6.00379483 4.04292988 10.96737998-1.17373025 17.3867681-5.21666013 6.41938813-14.9849848 42.6487273-7.55283167 52.39778204 7.43215313 9.74905475 7.91983537 13.9795533 2.82764172 20.04469145-5.09219365 6.06513817-17.1287488 19.25302643-4.11445162 21.54248337 13.01429718 2.28945694-1.19065507.5794779 8.51168584-10.17887174 9.70234666-10.75834964 23.86020302-10.31895342 18.57387481-27.57986354-5.28632244-17.26091013 3.8979579-41.99565627 2.74875711-45.74802803-1.14920078-3.75237177 2.57475964-27.58016108 2.57475964-27.58016108s8.66679544-1.60516634 9.31486623 4.97810639l.00000576-.00000726z"/>
      <g>
        <ellipse cx="259.739" cy="54.79" fill="rgb(160,97,106)" rx="20.631" ry="26.008"/>
        <path fill="rgb(47,46,65)" fill-rule="evenodd" d="M259.7974612 18.7615758c-.19141737-.83731148.03155845-1.72630726.25267484-2.55190597l1.11314056-4.15619423c.78946209-2.94766593 1.62735563-5.99833031 3.33714202-8.2418868 2.58064878-3.38628565 6.68190595-4.24774115 10.3738589-3.62364728 4.74119368.80146197 9.41911503 4.03782547 11.62363568 9.3895725 2.20451489 5.35175428 1.2659705 12.8193638-2.7174462 16.1583121 5.67723965 8.20285145 7.65623424 17.34464128 7.34375838 28.22355855-.31247586 10.87891727-9.71695727 20.89107418-15.84992926 28.5548474-1.36960334-1.0466031-2.61473444-5.95142114-1.86157436-7.73323713.75315433-1.78181598-.32594663-3.84610304.60681223-5.48734388.32265378-.56772158.6270702-.62636531.84823265-.52773556-.0245928-.04055932-.05061902-.08452216-.0781017-.13208447-.5950512-1.02977413 1.72740777-3.398833.84290767-4.01516915-4.27818483-2.9811279-5.70107256-9.70340102-8.38804833-14.85116857-3.24099294-6.20916038-8.78794604-10.41406353-14.65809406-11.11166345-3.23365885-.38427939-6.64911556.311724-9.29962238 2.6782792-2.65050683 2.36654795-4.3664299 6.59553704-3.75180577 10.61601105-1.59177898-2.03744346-2.3841367-5.02331744-2.08528129-7.85805735.29885541-2.83473265 1.68236704-5.45607351 3.64104033-6.89868328-1.19096017-4.96481158-.17069886-10.67579412 2.5935669-14.51773891 2.76426578-3.8419448 13.97764161-3.18758927 18.0132662-2.1764511l-.3121132-.67495812c-.59697396.43928737-1.39660244-.22535856-1.58801981-1.06265554z"/>
        <path fill="rgb(47,46,65)" fill-rule="evenodd" d="M262.01220006 38.80655028c5.34505846.7273681 9.20433682 6.5639909 12.46317565 11.95410564 1.87832072 3.10673915 3.84584212 6.53761175 3.79868866 10.44336-.04767732 3.94881848-2.14205425 7.33579354-3.14299019 11.07807084-1.63605982 6.11687324-.04152912 13.39454556 3.8530323 17.58578379-3.84825996.92056368-8.00833375-2.71682108-8.67267309-7.58300291-.77336624-5.66482809 2.63309845-11.13225879 2.22966033-16.85782788-.3554269-5.04429014-3.5087677-8.92647494-6.18957226-12.69807773-2.68080454-3.77161004-5.19854367-8.77643667-3.96523691-13.59602863l-.37409025-.32638312h.00000576z"/>
      </g>
      <g>
        <path fill="rgb(255,182,182)" fill-rule="evenodd" d="M341.92007778 211.16194717c-5.29434159 3.79608062-8.03208605 10.3167618-6.11512034 14.56379903 1.91697147 4.24703723 7.76196829 4.61167194 13.05779511.81334892 2.1319742-1.48069445 3.95166252-3.5834871 5.30679917-6.13244675l22.27121607-16.44126214-6.34315057-13.01044035-21.28202964 17.58946309c-2.43135348.16577868-4.79583667 1.06333044-6.8955098 2.6175382z"/>
        <path fill="rgb(108,99,255)" fill-rule="evenodd" d="M417.32607526 90.5968497c-.665554-.33250076-6.5052834-3.12030972-11.83662356.56039927-6.1242275 4.22814003-7.0700887 13.88003093-7.4018554 17.26534415-.76636604 7.82013957 1.49142172 9.57293485 1.96803376 17.48983913.08626475 1.43291442.186196 2.56906876.29293172 3.45857979-.23001055.26676694-.49692757.66215678-.80493044 1.21671418-1.29975681 2.34024136-14.57447165 38.60576388-21.8954506 45.7092249-14.2383874 13.81535664-23.27992937 23.54470865-23.27992937 23.54470865l10.32209429 14.13475854s16.31075055-5.47855567 30.72727452-17.27902358c14.78805823-12.10462286 22.18212476-18.15691615 27.90256299-29.99683305.49262728-1.01958531 12.27977742-26.25285037 5.9494874-54.1548517-1.44389982-6.36434385-4.0895019-18.0252816-11.94358955-21.94886028h-.00000576z"/>
      </g>
      <path fill="rgb(63,61,86)" fill-rule="evenodd" d="M470.62625358 161.0614451l-.92275364 54.28404063c-.08932734 5.25483719-3.49412257 9.4559667-7.66357984 9.4559667h-79.21421931c-4.0708731 0-7.43169259-4.01139551-7.65390852-9.13551254l-2.35410954-54.28404062c-.24006758-5.5357335 3.2560353-10.1904539 7.65390852-10.1904539h82.4910825c4.29772896 0 7.75565314 4.45349133 7.66357983 9.86999974z"/>
    </g>
  </g>
</svg>
