<svg xmlns="http://www.w3.org/2000/svg" xmlns:xlink="http://www.w3.org/1999/xlink" width="250" height="160" viewBox="0 0 400 230">
  <defs>
    <rect id="rect-1" width="400" height="230" x="0" y="0"/>
    <mask id="mask-2" maskContentUnits="userSpaceOnUse" maskUnits="userSpaceOnUse">
      <rect width="400" height="230" x="0" y="0" fill="black"/>
      <use fill="white" xlink:href="#rect-1"/>
    </mask>
  </defs>
  <g>
    <use fill="none" xlink:href="#rect-1"/>
    <g mask="url(#mask-2)">
      <g>
        <path fill="rgb(242,242,242)" fill-rule="evenodd" d="M79.25085366 186.13570952c-.21596951-.5169882-1.85285366-.2893865-2.0100122-.75179723-.15661585-.46074601 1.41409756-.84708599 2.61875-2.14552125.2172561-.23415079 1.5862378-1.70973147 1.06118903-2.3303558-.99521951-1.17638244-7.91961586 1.75352892-9.58171342.10936005-.36478048-.36082565-.51485975-.98028134-1.60151829-2.13310514-.43230488-.45861386-.70964634-.6800194-1.04102439-.67346553-.47020122.0092918-.63843902.46944635-1.37745732 1.302981-1.10829878 1.25005391-1.50825 1.09310911-2.23835975 2.11734053-.5419939.76033539-.60621952 1.2461569-.99706708 1.27479075-.55307926.04053004-.78161585-.90611857-1.45743902-.94284698-.68964024-.03746299-1.3797317.89791906-1.72182927 1.62872385-.6419817 1.37140079-.24444512 2.41961538-.15630488 3.46426208.0957683 1.1352657-.12910975 2.79710714-1.70594512 4.93010257l-14.87295122 18.53681572c3.19411586-3.77888147 12.26096951-14.08355765 15.9139817-17.86335018 1.05456098-1.09114391 2.18781708-2.18680017 3.93207928-2.39292766 1.67932317-.19846699 3.72264024.45147329 6.57465853.41363825.33307927-.0044074 1.26004269-.02594838 1.4855183-.41028976.18642073-.3177437-.27643903-.59401292-.10806098-.89269123.22584146-.40063067 1.24194512-.22875124 2.62668903-.49481759.97643902-.18762972 1.63981707-.49761752 2.21028048-.76420856.1719878-.08037322 2.73407927-1.29443806 2.44656708-1.98264743h-.0000244l-.0000061.00000954z"/>
        <path fill="rgb(242,242,242)" fill-rule="evenodd" d="M40.29585366 190.4636283c-.38668293-.06625425-.71616464.6278889-1.05163415.5548089-.33427439-.0728081-.12346341-.78734269-.59053049-1.62450247-.0842256-.15096809-.61503048-1.1023437-1.15592682-1.07981534-1.02522561.04268128-1.18487196 3.54661957-2.6960183 3.71037583-.33162805.03594614-.76360366-.085167-1.80042683-.00057716-.4124756.03365658-.63140853.07625677-.72291463.20537383-.12983537.183208.11031707.38058268.42006707.90480684.4645244.78619792.25064634.89447996.68260366 1.47031946.32066463.4274758.60694512.59231483.51213415.75063337-.13414634.22404332-.7940305.03865546-1.01206708.28752623-.2224878.2539746.1652744.78881183.52507927 1.1310157.67521342.64217961 1.44757317.7919886 2.12843293 1.05956702.73991463.29078886 1.71770122.8566306 2.601 2.07748306l7.33895732 11.05881067c-1.44932927-2.3166852-5.29856098-8.77105984-6.61604269-11.26419882-.38033536-.71971472-.74078048-1.47095386-.36681707-2.2001321.3600183-.70202785 1.35735976-1.29900766 2.15652439-2.40493356.09334146-.12916.34728049-.49127353.17120732-.68873883-.14556708-.16325064-.45245732-.06524779-.5912683-.21607755-.18619512-.20231155.21482318-.54284117.44741464-1.1512688.1640122-.4290308.16092073-.77317125.1582622-1.06912117-.00080488-.08922143-.0232866-1.42320692-.5380244-1.51139804v.00002861l-.0000122.00001431z"/>
        <path fill="rgb(242,242,242)" fill-rule="evenodd" d="M47.61757317 193.16189785l.23068293-1.6660819.1414878-.10467121c.65459147-.4839517 1.06409147-.99666126 1.21770122-1.52435316.02444512-.08388865.04337195-.16875513.0627439-.25517184.07660366-.34256161.17170122-.76841087.59271952-1.2107259.23562195-.24643334.85890853-.8034078 1.5017378-.60886169.1735.05087124.29060366.13885725.37195732.23214742.02042073-.01620343.04134756-.03233054.06371951-.04985047.27767683-.2110882.47192683-.28841344.65904268-.36288149.1437805-.05730586.29225-.11625735.5435-.27345973.11022561-.0689254.1984878-.13097257.27285976-.18308398.22556098-.15755536.51407317-.3420417.9092683-.26896646.41892682.0895744.56256097.40217612.65785365.6091288.17017683.36913963.22259756.62299497.2572744.7913542.0124878.0615034.0269695.1307627.03792682.15327673.09169512.18078011 1.2427317.2275349 1.67582317.24707251.9735244.04132185 1.81592683.07708197 2.0185122.5985348.14536585.37305097-.15759756.77993501-.92641464 1.24149191-.2394817.14359856-.47890853.24270804-.6874939.31672294.12829878.09489287.2305122.22394792.2367683.39971484.01408536.4160566-.53141464.73531237-1.6212683.95053133-.27082927.05408617-.63511585.1256541-1.11181707.10757132-.2245-.00868603-.42115854-.03557886-.58882317-.06071159-.025.0747304-.07084147.15242292-.15348171.22616117-.24256707.21721279-.63431098.27244373-1.16604878.15000456-.58703659-.12796751-1.05086586-.30199341-1.46014025-.45496964-.3575-.13322874-.6657439-.24715837-.92439024-.27828212-.48106098-.05262657-.92964634.17972119-1.4664817.48895058l-1.34519513.7894176h-.0000122l-.00001219-.00000953z"/>
        <path fill="rgb(242,242,242)" fill-rule="evenodd" d="M51.4567561 183.67225854l-2.11867073.24804557-.16531098-.08051154c-.76445732-.3725692-1.50229268-.55238102-2.1937683-.53476092-.10993902.00278563-.21966463.00998345-.33144511.01724804-.4430183.02892005-.99371952.06498544-1.64743903-.14139962-.3645-.11578036-1.21129878-.44613574-1.13378658-.98189835.01889634-.14418048.0979939-.2551146.1927195-.34033406-.0252317-.0113381-.0504756-.02307689-.07780487-.03556455-.33144512-.15657751-.47634146-.28394879-.61588415-.4066503-.10732926-.09426324-.21789024-.19165077-.476-.3418986-.11318902-.06592512-.21229878-.11696807-.29560365-.1600214-.25204269-.13070069-.55333537-.30224146-.56321342-.61981344.0045-.33971397.35461585-.5276919.58634146-.65229661.41329269-.2223977.71388415-.32646313.9132744-.3954076.07287804-.0250421.15485365-.05357579.17991463-.06757551.20028049-.1152366-.03385976-.99806362-.11954878-1.33073719-.19583537-.74712746-.36530488-1.39362862.22811585-1.67918488.42442073-.20461542 1.00439025-.07857972 1.77012195.38610148.23830488.14478627.42159147.30082001.5660244.43988237.08479268-.12114652.21844511-.23124113.43420731-.2805383.51089634-.1161858 1.04402439.21560056 1.58659146.9856809.13557317.19121193.31647561.4487115.4150244.81400657.04620121.172075.06282316.3277033.07428048.46096066.0987561-.00004293.20643903.01494417.31858537.05877023.33010975.12844928.49778658.41086693.4812561.84428128-.00932927.47665848-.10686586.87177512-.19221952 1.22027052-.07406707.3043116-.1367622.5664523-.10962805.77005649.05695122.37736298.45803659.65785835.97657927.98564274l1.31734756.81765079h-.00005487l-.0000061-.00000477z"/>
        <path fill="rgb(242,242,242)" fill-rule="evenodd" d="M51.74231707 178.69518652l.23068293-1.6660819.1414878-.1046712c.65459147-.4839517 1.06409147-.99666126 1.21770122-1.52435316.02444513-.08388865.04337196-.16875513.0627439-.25517184.07660367-.34256162.17170123-.76841087.59271952-1.2107259.23562195-.24643334.85890854-.8034078 1.5017378-.6088617.1735.05087125.29060366.13885726.37195732.23214743.02042073-.01620343.04134756-.03233054.06371951-.04985047.27767683-.21108821.47192683-.28841344.65904269-.3628815.14378048-.05730586.29225-.11625735.5435-.27345972.1102256-.0689254.1984878-.13097257.27285975-.18308399.22556098-.15755535.51407317-.3420417.9092683-.26896646.41892682.0895744.56256097.40217612.65785365.6091288.17017683.36913964.22259756.62299498.2572744.7913542.0124878.0615034.0269695.1307627.03792682.15327674.09169512.1807801 1.24273171.2275349 1.67582317.2470725.9735244.04132186 1.81592683.07708198 2.0185122.59853481.14536585.37305097-.15759756.779935-.92641464 1.24149191-.2394817.14359856-.47890853.24270803-.6874939.31672294.12829878.09489286.2305122.22394792.2367683.39971484.01408536.4160566-.53141464.73531237-1.6212683.95053133-.27082927.05408616-.63511585.1256541-1.11181707.10757132-.2245-.00868603-.42115854-.03557886-.58882317-.0607116-.025.0747304-.07084147.15242292-.1534817.22616117-.24256708.2172128-.63431098.27244374-1.16604879.15000457-.58703658-.12796752-1.05086585-.30199342-1.46014024-.45496964-.3575-.13322874-.6657439-.24715837-.92439025-.27828212-.48106097-.05262657-.92964634.17972118-1.4664817.48895057l-1.34519513.78941761h-.0000122l-.00001219-.00000954z"/>
        <path fill="rgb(242,242,242)" fill-rule="evenodd" d="M44.87234146 210.61787747l-.37457926-.28946283-.52065854-.0430581c.0024878-.03829295-.00093293-.12787688-.0047439-.26777875-.0200305-.76644089-.08220732-3.09908148.3330122-6.68315926.28993292-2.50190134.77442072-5.041528 1.44001219-7.54956822.66670731-2.51195634 1.35864634-4.38098895 1.91440853-5.88322874.41941464-1.13302861.84275-2.20770198 1.256-3.2544856 1.10284147-2.79674463 2.14415244-5.43860507 2.789-8.45202348.14440244-.67265942.44409756-2.07292778-.1695-3.7256539-.35601829-.95853526-.96557927-1.86078542-1.81238414-2.68084502l.81959146-.51777522c.93441463.90619965 1.6084939 1.90540328 2.00387805 2.96968298.68032927 1.83243776.35379268 3.35821236.19690244 4.09130671-.65633537 3.06661738-1.70803659 5.73386335-2.82172561 8.55754374-.41114025 1.04302015-.83311586 2.1129856-1.25068903 3.24139692-.5507378 1.48830208-1.23645731 3.34109787-1.8944878 5.82079521-.65808537 2.47803264-1.13636585 4.98661663-1.42308537 7.45695061-.4097195 3.53890184-.34817073 5.8368317-.32801829 6.59175322.01041463.4030681.01266463.48749575-.15292683.61762404v-.00000954l-.0000061-.00000477z"/>
        <path fill="rgb(242,242,242)" fill-rule="evenodd" d="M47.47456707 172.7368458c-.04214024-.00735046-.08455487-.0155738-.12702439-.02546186-.86438414-.18953769-1.55775-.74059744-2.06139634-1.63755776-.2357317-.4217805-.29137805-.86568869-.40233536-1.75098654-.01742074-.13651522-.09434757-.82719064.0002256-1.74253901.0615305-.59814367.14372562-.83838088.35180488-1.02700752.23107317-.2101533.54239025-.33050324.87137195-.39092387.00889635-.07919504.0420183-.15662998.10771952-.23003434.27063414-.30458825.72364024-.17940637.96943902-.11427784.12384146.03479183.27816464.07901856.4517561.10188558.27279878.03689059.43569512-.00061055.6822683-.05645682.23593292-.05358532.52929267-.12022116.93476219-.11456403.80011585.00860017 1.39239634.28990643 1.58771341.38247634 1.02860366.483489 1.3837439 1.2548477 1.7947317 2.14799207.08166464.17902954.35268903.82612217.41579879 1.659404.04556097.6011678-.05514024.84725294-.17060976 1.02319635-.23584756.36174625-.5969878.52942815-1.49330488.88222602-.93640853.36968817-1.4062317.55467059-1.79145121.64976379-.89639635.22013198-1.4592805.35837868-2.12146952.24284158v.00002385z"/>
      </g>
      <g>
        <path fill="rgb(255,182,182)" fill-rule="evenodd" d="M166.39837805 122.11351133c2.79514634-1.84720068 2.0530122-6.13000075-1.65771951-9.56607734-1.62430488-1.50410006-3.5482378-2.59642214-5.43258537-3.19447996l-2.16582317-1.95528237-27.96766463-27.41285205S113.6864817 52.71476478 109.11442683 49.7686643c-4.57196951-2.94608618-9.95110976-1.41223133-9.95110976-1.41223133l-4.19702439 4.06195737 26.15367073 38.07559686 26.76654269 21.07210175 3.61334756 2.94700677c.4390061 1.55324459 1.49430488 3.21960314 3.1187256 4.72358873 3.71065245 3.43606228 8.98464635 4.72402278 11.7797927 2.8768221l.00000609.00000478z"/>
        <path fill="rgb(230,230,230)" fill-rule="evenodd" d="M113.6052439 54.83908849l7.00872561 8.0408179 10.0617378 11.6490315-18.07913414 4.89241063L96.6340305 57.99491298l16.97121341-3.1558245z"/>
      </g>
      <rect width="400" height=".954" x="0" y="209.877" fill="rgb(63,61,86)" rx="0" ry="0"/>
      <path fill="rgb(47,46,65)" fill-rule="evenodd" d="M283.17862228 143.5668981l-31.89067073.00003583-.00000951-8.47125105c-.00001531-13.6268136 14.14250275-24.69007142 31.5621369-24.690091l.3285122-3.6e-7.00003724 33.16130658h-.0000061z"/>
      <path fill="rgb(160,97,106)" fill-rule="evenodd" d="M258.39479878 139.1308106l5.28575-13.53336603 13.5599878-.53113102 5.93806708 18.50060247-24.78380488-4.43610542z"/>
      <g opacity=".1">
        <path fill="rgb(0,0,0)" fill-rule="evenodd" d="M258.39479878 139.1308106l5.28575-13.53336603 13.5599878-.53113102 5.93806708 18.50060247-24.78380488-4.43610542z"/>
      </g>
      <ellipse cx="270.734" cy="121.054" fill="rgb(160,97,106)" rx="15.945" ry="12.473"/>
      <path fill="rgb(47,46,65)" fill-rule="evenodd" d="M201.51635742 186.65600586c8.64910889-4.4128418 31.20043946 7.41967773 31.20043946 7.41967773l4.22042846-3.30151367 45.76495362-.4420166 7.15664672 1.17871094 17.32666016-7.95568848s9.03997803-1.76794433 13.1833191 5.8930664c3.13644408 5.79931641 1.4165039 6.78637696-9.73474122 13.18664552-3.5798645 2.05456542-8.13171387 4.66711425-13.80691528 8.17578125-23.353302 14.43798828-58.0065918 9.72351074-58.0065918 9.72351074s-25.98999023-11.49145508-36.15997314-16.20593262c-10.16998291-4.71447754-9.79330445-13.25939941-1.14422608-17.67224121z"/>
      <path fill="rgb(47,46,65)" fill-rule="evenodd" d="M237.87890854 194.45728513l18.0799817 6.18773113-6.7799939 12.67011477-26.74331097-5.00911636"/>
      <path fill="rgb(47,46,65)" fill-rule="evenodd" d="M284.09170732 194.45728513l-24.36615244 8.83961318 9.41665244 15.32200158 27.1199756-9.13427045"/>
      <path fill="rgb(230,230,230)" fill-rule="evenodd" d="M259.72555488 136.68077741l-23.54164634 8.12733955 7.53332317 32.41192294-6.7799939 13.55407227 36.1599695 4.4198066 18.54282318-4.50100978-1.59284147-6.40118045 1.59284147-23.8901584 6.31715244-14.12018114-16.94998171-9.13427045-21.28164634-.46634114z"/>
      <path fill="rgb(160,97,106)" fill-rule="evenodd" d="M253.69889024 201.82363103l11.67665854 2.65188205-5.6499939 10.82911022-15.44332317-4.64137909 9.41665853-8.83961318z"/>
      <path fill="rgb(160,97,106)" fill-rule="evenodd" d="M269.92668293 201.82363103l-14.34445732 5.59842136v8.55076091l16.19664634-1.4790675-1.85218902-12.67011477z"/>
      <path fill="rgb(47,46,65)" fill-rule="evenodd" d="M249.17889634 218.02959012s24.85997561 12.96476727 34.27663415 7.6609984c9.41665853-5.30376886 14.6899878-12.080805 12.80665244-12.96476726-1.88332927-.88396228-7.53332317-2.35722955-7.53332317-2.35722955l-31.63996952 5.00911636-7.9099939 2.65188205z"/>
      <path fill="rgb(47,46,65)" fill-rule="evenodd" d="M217.53892683 208.30601467s-12.80665244 15.32199681-.75333537 17.67922636c12.05332317 2.35722954 42.42834756-7.36634591 42.42834756-7.36634591l-2.12504878-12.67011477-5.6499939 4.4198066-33.89996951-2.06257705v.00000477z"/>
      <g>
        <path fill="rgb(160,97,106)" fill-rule="evenodd" d="M297.35556707 102.25137229c-3.52327439-2.54771168-4.6987378-6.0349314-2.62570731-7.78869404 2.07303048-1.75375787 6.60889024-1.10982293 10.1329878 1.43916709 1.42558537 1.0031102 2.52335366 2.258702 3.20144512 3.66172737l14.75398171 10.9422242-6.71165244 5.3066642-13.8322439-11.35049627c-1.8417622-.41899488-3.52843293-1.17700731-4.91881098-2.21059255z"/>
        <path fill="rgb(230,230,230)" fill-rule="evenodd" d="M293.34240244 136.18087986l26.69692683-10.19182455-13.81020732-18.58025542 4.32335366-6.87084623s33.60931707 14.65584357 30.26470122 25.32023879c-3.34461585 10.66439521-36.68085366 30.2559794-47.32768903 27.12382805-3.23207317-.95083183-5.10454878-2.6477656-6.14504268-4.55019246-2.54059756-4.64518549.1935061-10.03503716 5.99795732-12.2509434v-.00000478z"/>
      </g>
      <path fill="rgb(47,46,65)" fill-rule="evenodd" d="M243.33496094 125.57470703c-.71636963 1.95202637-2.31744385 3.64099121-3.12854004 5.57019043-.96829224 2.30322266-.72714234 4.90222168.65621948 7.07189941 1.38336182 2.16967774 3.89227295 3.88391114 6.82669067 4.66442872 2.36654664.6295166 5.33566285.53845214 6.94363404-.95861817.84194946-.78381347 1.17080688-1.81652832 1.67807007-2.7602539.47836303-.89001465 1.37857055-.7084961 2.40432739-.50170899.89419556.18017578 1.88378906.37976074 2.772583-.0946045-4.76843261-2.43518066-6.69113159-15.88879394-5.53308105-20.2503662 1.15808106-4.36157227 4.00250244-3.36584473 7.23605347-7.03271485 1.3862915 2.28466797 3.97122192 4.10681153 7.01989746 4.94836426 2.72940063.75341797 8.00793457 6.8540039 11.17333984 7.33544922-.3330078.25756836-.2809143.6126709.95507813-.0460205.18817139.14648437.3534851.4185791.45046997.8795166.36386108 1.72949218-.45431519 4.26635742-1.17037964 6.48657226-.31359863.97229004-.60760498 1.88391113-.77416992 2.64038086-.75134277 3.41210937-7.12939453 2.70324707-7.77893067 6.12805176-.4609375 2.43029785.89169312 5.01977539 3.39645386 6.5020752 2.50482178 1.4822998 6.0579834 1.79626464 8.92230225.788208-1.20266724-.53393555-2.48358154-1.13415527-3.028656-2.1282959-.54507447-.99414062.1585083-2.44506836 1.540802-2.47497558.91964721-.01989746 1.68087768.57653808 2.10214233 1.21630859.42129516.6397705.6291809 1.3614502 1.12075805 1.96984863 1.44055176 1.78259278 4.97625733 1.91662598 7.1647644.6850586 2.1885376-1.23168946 3.2059021-3.39685059 3.52804566-5.49072266.62265015-4.04675293-.8793335-7.97485352-2.39083862-11.92797852-.99523926-2.6027832-1.99456787-5.21643066-2.39434814-7.88183593-.3614502-2.40979004-.24172974-4.9071045-1.32348633-7.18115235-1.3647461-2.86889648-4.52316284-5.03918457-8.0319519-6.39434814-3.50881959-1.35516358-6.32727051-1.49536133-6.32727051-1.49536133-5.80621338-2.37445068-9.07946778-3.13671875-14.77859498-.60845947-5.6991272 2.52825928-15.68203735 15.69030762-16.05755615 20.80700683-.09277343 1.26428223-.588562.66674805-1.18692016-.05419921-.67581177-.81445313-1.48242188-1.78637696-1.98690796-.41174317zm38.99389648-2.06188965c-.28640747.0925293-.60327148.10595703-.94470215.05407715.22241211-.17199707.6166687-.30041504.94470215-.05407715zm0 0l.01037598.00793457.06155395-.03320312c-.02374267.0090332-.04772949.01733398-.07192993.02526855z"/>
      <g>
        <path fill="rgb(160,97,106)" fill-rule="evenodd" d="M199.41835366 128.2214941c-.86180488-3.69224057-3.99572561-6.33725393-6.99942073-5.90782723-3.00369513.4294267-4.73925 3.77031469-3.8765061 7.46378114.3187622 1.47908658 1.08568902 2.8769509 2.23662805 4.07663442l3.90406707 15.60810161 9.3240183-1.58928135-4.83863415-15.2180888c.53469512-1.44096058.62037195-2.9611496.24985366-4.43331501l-.0000061-.00000477z"/>
        <path fill="rgb(230,230,230)" fill-rule="evenodd" d="M238.18931707 143.7522037l-25.30584146 12.17133816-12.65359756-19.077644-9.73247561-.8263082s-2.1915183 30.05156433 11.11090854 33.55710055c13.30242682 3.50553622 52.3112378-8.01400138 54.63583536-16.72435917.70568293-2.64421678-.12246341-4.79025318-1.61821341-6.49689851-3.65220732-4.1671485-10.93461586-5.24952052-16.43661586-2.60322883z"/>
      </g>
      <path fill="rgb(255,255,255)" fill-rule="evenodd" d="M376.25053049 166.47625885l-90.64710976 22.4120592v-86.34153962l90.64710976-22.4120592v86.34153962z"/>
      <path fill="rgb(63,61,86)" fill-rule="evenodd" d="M284.99368286 102.19750977v87.34228515l91.86654663-22.71398926V79.48376465l-91.86654663 22.71374512zm1.21951294 86.03979492v-85.34106446l89.42752075-22.11053466v85.34136963l-89.42752075 22.11022949z"/>
      <path fill="rgb(255,255,255)" fill-rule="evenodd" d="M154.26829268 185.62978278l72.69659756 17.97388363v-69.24364293l-72.69659756-17.97388363v69.24364293z"/>
      <path fill="rgb(63,61,86)" fill-rule="evenodd" d="M226.78103638 204.05822754l.7937622.1965332V134.0107422l-73.12249755-18.07922364-.79376221-.1965332v70.24414063l73.12249756 18.07910156zm-.42575074-1.10583496l-71.47723388-17.67211914v-68.24291992l71.47723388 17.67199707v68.24304199z"/>
      <path fill="rgb(135,191,235)" fill-rule="evenodd" d="M312.48059082 119.65893555c-3.99136353-2.9584961-5.8814392-7.55163575-4.84570312-11.77593994l13.25064086 10.11663818c-.0151062.26098633-.01422119.52197266.00302124.78173828.10131836 1.52514648.69369507 2.99401855 1.61499024 4.34240723-3.7074585-.2496338-7.31829834-1.46020508-10.02294922-3.46484375zm29.96347046 14.8001709c-5.60910034-2.60302735-12.11499024-4.41052247-16.74588013-8.0140381-1.2545166-.97619628-2.35964966-2.09924315-3.19464111-3.32128905 1.60202026.10791015 3.22207642.03637695 4.79483032-.22802735l15.14569092 11.5633545zm0 0c2.727417 1.26574707 5.24279785 2.71948242 7.22750854 4.65917968 5.29751587 5.17736817 5.13449097 13.30334473-.36804199 18.34814453s-15.73510742 6.44958497-23.10479736 3.17199707c-3.03753662-1.35083007-5.6510315-3.5180664-6.4057312-6.18688964-.7546997-2.66882325.76586914-5.7989502 3.95803833-6.91052247 3.44815063-1.20068359 6.9100647.133667 10.47680664 1.50842286 2.66036987 1.02539062 5.37908935 2.07324218 8.19396972 2.10839843 3.77383423.04724122 7.4390564-1.9946289 8.61602784-4.79992675 1.17700195-2.80529786-.2286377-6.14904786-3.3043213-7.86035157l-5.28945922-4.03845214zm-15.14569092-11.5633545l-6.4128418-4.89611816c.15408326-2.65979004 1.96887207-5.30847168 5.01507569-6.4710083 3.34506225-1.2765503 8.0058899-.27227783 9.53414917 2.38250732 2.14361572 3.72363282-2.59484863 7.91430664-7.66143799 8.89855957-.15777588.03063965-.3161316.05932617-.47494507.08605957z"/>
      <path fill="rgb(135,191,235)" fill-rule="evenodd" d="M184.91586304 154.47766113c4.6642456 2.03271485 10.62145996 1.4967041 15.7416687 2.44042969-.75250244 2.7368164-1.79446411 5.42492676-3.11273194 8.02746582-1.46743774 2.89697266-3.97845459 6.07775879-7.95376586 6.27648926-3.0260315.15124512-5.40570069-1.46203613-7.81149292-3.09301758-2.21328736-1.50048828-4.44866944-3.01599121-7.22976685-3.1862793-3.60238647-.22058105-7.04559326 2.41760254-6.83840942 5.23962403.20718383 2.82202148 4.0138855 5.13452148 7.56030273 4.59277343 3.54641724-.54174804 5.96136475-3.8046875 4.79620361-6.48034668l22.3623047 11.9741211c-2.16900636-.57788086-4.85238648-.35290528-6.33013917 1.01501465-1.81625366 1.68115234-.93960571 4.52160644 1.39614868 5.7491455 2.3357544 1.227417 5.57580567 1.00683594 8.00274658-.10717773 3.20431519-1.47070312 5.13619996-4.25500488 5.89486695-7.09997559.7586975-2.8449707.49291992-5.78845214.22375488-8.68701171-.4220581-4.54455567-1.21661377-9.65637207-5.83953857-12.42822266-1.53067017-.91784668-3.27096558-1.45178223-5.1204834-1.79260254.2119751-.77087402.40093994-1.5456543.5666809-2.32336426.62911988-2.95214843.9178772-6.00891113.01031495-8.91638183-.90759278-2.9074707-3.1558838-5.6682129-6.56506348-7.02661133-5.17849731-2.0633545-12.26693725-.05041504-14.7397461 4.0637207-2.47280883 4.11401367-.09075927 9.54968262 4.98614503 11.76220703z"/>
      <path fill="rgb(255,182,182)" fill-rule="evenodd" d="M120.72117073 27.47327267l-5.07610366 15.13894622-19.35264634-2.97815438s7.61415244-10.91989618 5.71061586-15.88348362l18.71812804 3.72269178h.0000061z"/>
      <g>
        <path fill="rgb(255,182,182)" fill-rule="evenodd" d="M100.29196951 224.5353893l11.6540061-.0008872 5.54388415-35.1642405-17.20022561.00094444.00233536 35.16418327z"/>
        <path fill="rgb(47,46,65)" fill-rule="evenodd" d="M140.22006707 224.3285845c.36286586.47807037.55432927 2.02105962.55432927 2.57701332 0 1.70885857-1.77085366 3.0941923-3.95541463 3.0941923h-36.09110366c-1.49025 0-2.69840244-.94504591-2.69840244-2.11087252v-1.1754237s-1.78539024-3.53276771 1.89041463-7.88709279c0 0 4.56853659 3.40950335 11.39509756-1.93069342l2.01309147-2.8528294 14.57203049 8.33681552 8.07705487.77773607c1.76709757.17013841 3.33378659-.0264063 4.2427561 1.17115461h.00014635z"/>
      </g>
      <path fill="rgb(47,46,65)" fill-rule="evenodd" d="M132.65109146 122.76936154l-16.05877439 85.48461326H96.44443293l2.67908536-48.7967017 1.41003049-25.65763458-4.08910976-12.2129605s-1.86439024-2.71468763-3.43501829-6.00538172c-1.77036585-3.71352398-3.16865853-8.165456-1.0927683-10.27652886.7637744-.77826077 2.74958537-1.3542863 5.44821952-1.78323123 1.64896951-.26349536 3.56820122-.46879765 5.64016464-.62810834 11.91481707-.92225522 28.86270731-.34622968 28.86270731-.34622968l.43083537 11.12218865.23893902 6.21066015.11357927 2.88931455h-.0000061z"/>
      <g>
        <path fill="rgb(255,182,182)" fill-rule="evenodd" d="M79.76303659 220.35467515l11.5302256 1.32518499 12.02345732-34.15943222L86.29925 185.56421064l-6.53621341 34.7904645z"/>
        <path fill="rgb(47,46,65)" fill-rule="evenodd" d="M119.30493293 224.69334056c.27010975.5142741.17263414 2.06264383.0692561 2.61268282-.31775 1.69068517-2.32735976 2.85978871-4.48869513 2.61121367l-35.7072561-4.10667063c-1.47439634-.1695708-2.4939817-1.24203568-2.27720121-2.39546526l.21856097-1.16292649s-1.1095122-3.69834608 3.33685366-7.5881092c0 0 3.8859756 3.89307822 11.63290854-.6135553l2.52214634-2.59342663 12.86687805 9.90624923 7.84653658 1.68852439c1.71666464.3693972 3.3032439.35321285 3.97986586 1.64146432l.00014024.00001431.0000061.00000477z"/>
      </g>
      <path fill="rgb(47,46,65)" fill-rule="evenodd" d="M132.90383537 108.51291322l-2.20260366 14.83873676-12.01192683 31.26920662-19.77362805 51.4798506-19.93138415-2.29132829 17.88819512-73.19669817-1.77120731-12.55124827s-.57682317-1.24760695-1.23803049-3.07410616c-1.31244512-3.61345098-2.95854878-9.4979676-1.14756707-12.49961861.24453048-.40803359.5515061-.76205733.93126829-1.04872021.71229268-.54037512 2.1599817-.86851249 4.09956098-1.04257178 8.10706707-.71675736 24.80306707 1.33329386 32.23235365 2.33966192l2.92497561 5.77683082-.0000061.00000477z"/>
      <path fill="rgb(230,230,230)" fill-rule="evenodd" d="M117.54860366 38.14498971l21.89069512 21.59160846-3.9294817 22.51103512-3.36741464 22.905794-39.65705488-4.7154083s8.56592683-16.13166276 9.51769512-16.87620016c.9517683-.7445374 3.34243293 1.09431591 1.67121952-1.31418554-1.67121342-2.40850146-3.5747561-2.40850623-1.98847561-3.6494019 1.58628048-1.24089566-12.373-17.37255842-12.373-26.05883763 0-8.6862792 6.66238414-15.63530448 6.66238414-15.63530448l21.57343903 1.24089566-.0000061.00000477z"/>
      <ellipse cx="112.441" cy="18.796" fill="rgb(255,182,182)" rx="14.747" ry="11.536"/>
      <path fill="rgb(47,46,65)" fill-rule="evenodd" d="M111.7520183 40.85255108s2.20664633-13.65855745 2.5972256-17.63055883c.39057927-3.97200138 7.55787195-10.17344127 7.55787195-10.17344127l5.07754878 3.20815533s4.29638415 0 1.3670305-4.88861378c-2.92935367-4.88861378-8.39748172-5.65245983-8.39748172-5.65245983S119.36834146-.70067795 109.21325.06317287c-10.15509756.76384605-14.64677439 7.1801567-14.64677439 7.1801567s-.58587195-8.0967691-7.03045122-2.1387718-10.15509756 8.40230657-3.31993293 10.38830725c4.94928659 1.43804616 8.97703659 1.03383328 10.82284756.70130758-1.83144512.48736697-5.24578658 1.77832775-4.37826829 4.49284844 1.1717439 3.6664639-15.42793293 20.3183107-7.81160975 22.15154027 7.61632317 1.83322957 24.60657926 6.26353953 26.5594817 3.36092167 1.95290244-2.90261786 2.34348171-5.34692236 2.34348171-5.34692236l-.0000061-.00000954z"/>
      <path fill="rgb(255,182,182)" fill-rule="evenodd" d="M172.54087195 123.25751076c2.81484146-1.82880785 2.11861585-6.11632537-1.55517073-9.5766141-1.60812805-1.51469406-3.52029268-2.61959443-5.39817073-3.22998726l-2.14479878-1.9694109L135.76975 80.88624458s-15.19539024-27.37064299-19.73571951-30.3466175c-4.54025-2.97596021-9.93562805-1.47742188-9.93562805-1.47742188l-4.24039634 4.03430135 25.74481097 38.2457305 26.53983537 21.24685268 3.58164634 2.97059404c.42234756 1.55606838 1.4597561 3.2292861 3.0680061 4.74387045 3.67370732 3.46026964 8.93371951 4.7827644 11.74855488 2.95395177l.0000122.00000477z"/>
      <path fill="rgb(230,230,230)" fill-rule="evenodd" d="M114.73480225 78.49560547c-7.70880127-4.05413818-14.48327637-31.5548706-14.48327637-31.5548706l25.33273315.06781005s-2.28051757 10.878479.16918946 12.46026612c.6583252.42504882 1.05844116.65362548 1.29156494.76062011-.09098816 1.09967041-.21836853 4.77368164 1.89370727 6.63995362 2.50195313 2.21081543 1.15768433 2.25598144 1.15768433 2.25598144l-15.36160278 9.37023926zm12.31021118-18.26617432c.01679992-.20300293.03234863-.31829834.03234863-.31829834s.602005.60931397-.03234863.31829834z"/>
    </g>
  </g>
</svg>
