<svg xmlns="http://www.w3.org/2000/svg" xmlns:xlink="http://www.w3.org/1999/xlink" width="250" height="160" viewBox="0 0 400 268">
  <defs>
    <rect id="rect-1" width="400" height="268" x="0" y="0"/>
    <mask id="mask-2" maskContentUnits="userSpaceOnUse" maskUnits="userSpaceOnUse">
      <rect width="400" height="268" x="0" y="0" fill="black"/>
      <use fill="white" xlink:href="#rect-1"/>
    </mask>
  </defs>
  <g>
    <use fill="none" xlink:href="#rect-1"/>
    <g mask="url(#mask-2)">
      <g>
        <ellipse cx="120.763" cy="258.244" fill="rgb(108,99,255)" rx="16.753" ry="9.12"/>
        <path fill="rgb(255,255,255)" fill-rule="evenodd" d="M116.76045752 262.85732307c-.32163391 0-.64178286-.0497956-.92288889-.14816804-.49193935-.17205433-.78568654-.46474652-.78568654-.7829459v-6.5809623c0-.33560628.31829085-.63639875.85149676-.8048092.53357905-.16841046 1.17128018-.16962508 1.70634419-.00283552l11.75404555 3.65564062c.55960767.1744836.88905473.50037285.85968306.85095677-.02900615.35018182-.41124912.6582579-.9968854.80399669l-11.75404556 2.92451332c-.22793697.05667711-.47037321.08460941-.71206317.08460941v.00000415z"/>
      </g>
      <g>
        <path fill="rgb(242,242,242)" fill-rule="evenodd" d="M262.38854832 260.66789183c1.5732312.05363018 2.44269973-1.01040882 1.25245018-1.63055726l-.11841574-.25626992c.01558823-.02052431.03126023-.0410279.04704646-.0615149 1.59098974-2.06519925 6.98304104-2.05094706 8.56049864.0173157 1.40011575 1.8356926 3.1826953 3.67451503 3.6216103 5.61545327.19676051.85678947.10823427 1.72964686-.2410046 2.57039744 3.28066435-3.90114886 5.0070821-8.16106069 5.0070821-12.44507439 0-1.07638426-.10823427-2.1527561-.32954605-3.22641263-.18200233-.87823823-.4328381-1.75109562-.7574876-2.61594392-1.75586559-4.6749498-5.55793996-9.12763927-11.04207377-12.84671-2.63634564-.78452533-4.83491094-2.01083117-6.16291112-3.48076735-.47708218-.53017061-.8509104-1.10046955-1.0279781-1.68148458.30002208.02142388 1.13127775-2.4660099.90499326-2.6186219.41811799-.34538963 1.16647502-.51707916 1.62312572-.85411149 2.27108447-1.6761908 5.40006244-1.38351933 7.03352193.8942937 3.4894492.95871045 3.52322243 2.54867094 1.38211351 4.07784615-1.36218463.97287143-1.54935004 2.2892753-2.74456467 3.33080846.12299245.08569138.25087383.16870064.37382821.25439202 2.25489465 1.57440662 4.20515242 3.26665289 5.84923506 5.04447447-.46465423-1.97582667.22134986-4.35617007 1.39084048-5.89056859 1.3312747-1.74828497 3.8265495-3.22069186 6.02393445-4.73207877 2.63942216-1.81540872 8.0517907-1.02313133 8.51680285 1.27818662.00450056.022282.00887928.04454327.01318185.06682527-.32638577.10022961-.64613874.20672306-.95847453.31916942-1.78155913.64140235-1.16585058 2.14481749.94509469 2.32219463l.04780036.0040087c-.11805783.6399224-.31971489 1.27450542-.61480235 1.89837236 2.81897241 5.93459367-3.26698752 8.09609675-11.95692104 8.19319237-.1918335.05354312-.37876284.10708624-.57059634.1579804.88044199 1.34946 1.58381626 2.73372967 2.10514252 4.13674524.46725862 1.23967919.79190813 2.49275245.97386477 3.7512024.22628449 1.5877468.20659168 3.18356488-.03935515 4.76865028l.0147658-.05622111c.6246259-1.74572721 2.36580945-3.3763425 4.89395889-4.5062616 3.76616127-1.68416257 9.08703367-2.30434831 13.15005673-3.65808232 1.95582446-.65165414 4.46206508.19046445 4.12072314 1.42483742l-.01661628.0591188c-.60497118.13385367-1.19517656.28916852-1.76573483.46318782-.32638577.10025448-.64613111.20672305-.95847453.31916942-1.78155913.64142722-1.16585057 2.14484236.9450947 2.3222195l.04783843.0040004c.03442053.00267799.0639445.0053684.09831934.00805883-1.03780927 1.34140117-2.4838216 2.5864612-4.29383858 3.66014262-1.76262784 5.18067033-9.33316326 5.6721967-17.43126937 4.16353752h-.00493462c-.88533092 2.09918396-2.17891058 4.15016004-3.84139144 6.10473279H262.7324185c-.04921678-.08300097-.09346848-.1686882-.13775064-.2517016 1.26899031.04286849 2.54781179.00269042 3.79713975-.12312929-1.01815454-.68010463-2.0362634-1.36556108-3.05441793-2.04564083-.02458936-.01338993-.04428978-.02677986-.0639445-.04016564-.51643733-.34805517-1.03780928-.69346968-1.5542466-1.0415373l-.00027415-.00042283c-.03232635-1.06852028.20295926-2.13352518.66918983-3.16708656l.00043406-.0001451v-.00000414z"/>
        <path fill="rgb(204,204,204)" fill-rule="evenodd" d="M1.70576544 267.50683201c0 .27361465.40362634.49331308.90624976.49331308h307.11178294c.50257773 0 .90620407-.21969843.90620407-.49331308 0-.27358977-.40362634-.49331308-.90620407-.49331308H2.6120152c-.50262342 0-.90624976.2197233-.90624976.49331308z"/>
      </g>
      <g>
        <path fill="rgb(230,230,230)" fill-rule="evenodd" d="M395.43082008 165.23913372H128.90021094c-2.52061805 0-4.56909616 1.11513629-4.56909616 2.48729284s2.04847811 2.48729284 4.56909616 2.48729284h266.53060914c2.52061804 0 4.56909615-1.1151363 4.56909615-2.48729284 0-1.37215655-2.0484781-2.48729284-4.56909615-2.48729284z"/>
        <path fill="rgb(63,61,86)" fill-rule="evenodd" d="M305.19117098 165.23913372v4.97458568H128.90021094c-2.52061805 0-4.56909616-1.1151363-4.56909616-2.48729284 0-1.37215655 2.04847811-2.48729284 4.56909616-2.48729284h176.29096004z"/>
      </g>
      <path fill="rgb(255,101,132)" fill-rule="evenodd" d="M197.44714355 261.94995117c-.95007324-1.3959961.32989502-2.95336914 2.8883667-3.49389648 2.58294678-.5456543 5.48950196.15185547 6.49188233 1.5579834 2.58300781-.54577637 5.48950195.1517334 6.49188232 1.55786132 1.0024414 1.40612793-.27886963 2.98840332-2.8618164 3.53405762-.2798462.05908203-.5635376.1027832-.8480835.13342285l-8.60717773 1.81835938-3.63000489-5.09191895.07495117-.01586914z"/>
      <path fill="rgb(230,230,230)" fill-rule="evenodd" d="M53.3641722 0c-9.75192855 0-17.6574244 4.30353895-17.6574244 9.61222195v134.8464755h1.55640168V66.7983759c0-36.42391638 54.24073044-65.95111276 121.15058218-65.95111276L390.85014888.69320437 390.56714668 0H53.36417219z"/>
      <ellipse cx="97.249" cy="29.406" fill="rgb(63,61,86)" rx="6.581" ry="3.663"/>
      <ellipse cx="119.983" cy="29.406" fill="rgb(63,61,86)" rx="6.581" ry="3.663"/>
      <ellipse cx="142.717" cy="29.406" fill="rgb(63,61,86)" rx="6.581" ry="3.663"/>
      <g>
        <path fill="rgb(255,182,182)" fill-rule="evenodd" d="M52.0630383 264.22213796l9.03090232-.00048088 4.2960622-18.9626356-13.32877693.00050575.0018124 18.96261073z"/>
        <path fill="rgb(47,46,65)" fill-rule="evenodd" d="M83.0040665 264.11061604c.28118979.25780376.42956357 1.08987783.42956357 1.38967953 0 .92151712-1.3722671 1.66857138-3.06512485 1.66857138H52.40083158c-1.15482383 0-2.09104686-.50962557-2.09104686-1.13830957v-.63385756s-1.38352993-1.90507562 1.46492076-4.25318785c0 0 3.54024232 1.83860687 8.83028093-1.04114347l1.5599808-1.5384155 11.2921404 4.49570305 6.25906014.41940317c1.36935811.09174794 2.58341265-.01423975 3.28779213.63155682h.00010662z"/>
      </g>
      <g>
        <path fill="rgb(255,182,182)" fill-rule="evenodd" d="M109.31158951 248.14905678l8.80381063 1.09556544 11.9539435-17.96397924-12.99351949-1.61715075-7.76423464 18.48556455z"/>
        <path fill="rgb(47,46,65)" fill-rule="evenodd" d="M139.5195443 251.79549441c.16853112.28544173-.02759733 1.1145808-.15038418 1.4068377-.37739972.89832312-2.02107876 1.46003261-3.67132968 1.25457808l-27.26375869-3.39429247c-1.12575676-.1401548-1.82970217-.75057792-1.57222599-1.36343859l.2595932-.61790572s-.56850217-2.0250419 3.16990946-3.96835137c0 0 2.69815027 2.22199404 9.03442052.05674344l2.15076494-1.31036805 9.16674155 5.75302129 5.92976538 1.16847629c1.2973187.25563152 2.52422763.2996566 2.94639689 1.01468282l.0001066.00001244v.00000414z"/>
      </g>
      <path fill="rgb(47,46,65)" fill-rule="evenodd" d="M46.4524776 158.73948101l-10.5532947 7.87642733 13.5993588 85.81160304H66.9834294l3.076045-41.8694295 8.37667628-31.92025814 43.40641349 24.87292842-9.13819232 31.50570933 17.5148686 3.73093926 19.79941668-40.21123427-33.50670515-30.26206291-4.56909615-7.87642733-65.49037825-1.65819523z"/>
      <path fill="rgb(108,99,255)" fill-rule="evenodd" d="M94.42798724 90.33892787h-21.8321238l-7.1054852 4.97458568-25.13002886 6.2182321 3.80758013 50.98950326-8.37667628 14.09465943s39.59883335 10.36372017 76.1516026-6.2182321l-.76151602-14.92375705 12.94577245-43.11307592-22.84548079-7.87642734-6.85364423-4.14548806z"/>
      <g>
        <path fill="rgb(255,182,182)" fill-rule="evenodd" d="M16.28929232 164.17615181c.66644837-1.21917146 1.78348577-2.25532376 3.10190608-2.99089502l5.0012108-11.83254122 10.27327765 1.46019428-6.17933702 11.84571558c.36516978 1.00830292.25980642 2.20833466-.40664195 3.42750612-1.5225066 2.78520005-5.39611017 4.61546205-8.6519491 4.0880316-3.25583892-.52743044-4.66097306-3.21281958-3.13847407-5.99801134h.00000761z"/>
        <path fill="rgb(108,99,255)" fill-rule="evenodd" d="M52.10697777 102.37526957l-6.69850057-1.86574324s-6.43723205.24057511-9.42262617 3.49091136c-2.98539412 3.25033625-2.98539412 26.65274812-2.98539412 26.65274812l-13.73280687 26.9777834 11.94157649 3.57536739 16.23396057-25.02758 4.66379829-33.80348703h-.00000762z"/>
      </g>
      <g>
        <path fill="rgb(255,182,182)" fill-rule="evenodd" d="M124.34432709 167.23681125c-.04614026-1.27176112.43919675-2.44375278 1.28428916-3.362737l-1.84530564-12.10008273 10.60244295-.30956432.73033956 12.30765974c.91111585.90010154 1.48108775 2.060747 1.527228 3.33250812.10540905 2.90533215-2.56236435 5.29014852-5.95864206 5.32666198-3.39627771.03650932-6.23493531-2.28910535-6.34035197-5.19443335v-.00001244z"/>
        <path fill="rgb(108,99,255)" fill-rule="evenodd" d="M123.94372397 102.43341004l-7.4234943-.66853872s-5.99800482 1.29478516-7.02637891 4.88539136c-1.02837409 3.5906062 12.04426692 25.88477573 12.04426692 25.88477573l1.98737407 27.97351305 13.37327992 1.42927723 1.48472019-26.52970174-14.4397679-32.97472106v.00000415z"/>
      </g>
      <ellipse cx="85.364" cy="76.622" fill="rgb(255,182,182)" rx="21.293" ry="11.591"/>
      <g>
        <ellipse cx="285.53" cy="94.159" fill="rgb(108,99,255)" rx="9.491" ry="5.058"/>
        <path fill="rgb(230,230,230)" fill-rule="evenodd" d="M361.61461197 95.74536562h-51.08627215c-1.75256821 0-3.17850697-.7762385-3.17850697-1.73029355 0-.95405506 1.42593114-1.73029356 3.17850697-1.73029356h51.08627215c1.75256821 0 3.17850697.7762385 3.17850697 1.73029356s-1.42593114 1.73029355-3.17850697 1.73029355z"/>
      </g>
      <g>
        <ellipse cx="10.661" cy="165.372" fill="rgb(63,61,86)" rx="10.661" ry="5.804"/>
        <path fill="rgb(255,255,255)" fill-rule="evenodd" d="M16.20652315 161.97386957c-.50801496-.16175695-1.2838018-.07788129-1.56286696.22308944-1.26720836 1.36658916-2.53437103 2.73317832-3.801587 4.09979235-1.02222104-.87175883-2.33000297-1.63294506-3.84708758-2.27093567-.48863437-.20547941-1.27971245-.04048484-1.56286696.22306456-.34511144.32123387-.08003533.6447975.40980985.85078267 1.76909311.74395758 3.13330338 1.7438949 4.05182878 2.84746942.3491551.41953169 1.60818478.39304202 1.9726235 0 1.58331366-1.70750995 3.16663494-3.41499089 4.74990291-5.12247597.27790004-.29967733.14548002-.67399417-.40976416-.85078266l.00000762-.00000414z"/>
      </g>
      <path fill="rgb(230,230,230)" fill-rule="evenodd" d="M211.35974121 108.16455078h141.56390381c9.0493164 0 16.41168213-4.00787353 16.41168213-8.93408203V61.54907227c0-4.9262085-7.36236572-8.93408204-16.41168213-8.93408204h-141.5639038c-9.04931642 0-16.4116211 4.00787354-16.4116211 8.93408204v37.68139648c0 4.9262085 7.36230468 8.93408203 16.4116211 8.93408203zm-14.88861084-46.61547851c0-4.46917725 6.67889404-8.10498047 14.88861084-8.10498047h141.56390381c8.2097168 0 14.88861084 3.63580322 14.88861084 8.10498047v37.68139648c0 4.46917725-6.67889404 8.10498047-14.88861084 8.10498047h-141.5639038c-8.2097168 0-14.88861085-3.63580322-14.88861085-8.10498047V61.54907227z"/>
      <path fill="rgb(47,46,65)" fill-rule="evenodd" d="M109.11840813 69.15792552c-5.55194682.24026835-4.79071255-1.20462908-4.79071255-1.20462908l.49918898-2.46006943c-.14348485-.4259862-.4150567-.76989175-.95408058-.9358232-1.2669799-.39005726-2.5531957.34759918-3.89505548.04058433-1.22426647-.28009405-2.4529878-.56099647-3.73512188-.74924308-1.62747397-.23895422-2.41864343.71690827-4.09918746.78816092-1.58963425.06740564-4.05847682-.7683745-5.60758318-.56282048-1.3633726.18101274.41798853-.97008152-1.24606106-1.09537475l-5.33061218 1.65819523s-2.03723052.96664076-2.28454808 0c-4.35008414.38104912-7.75269005-1.27380485-9.19289962 2.75235535-.91094832 2.54660234-5.57550812 3.93619067-6.81813474 6.4409899-1.76993078 3.56784333 1.2351866 6.6589431 5.20753596 9.1330284.9819216.61160044-.56932461 1.68172503.14669083 2.39428053.66562593.66230805 2.1686301.97311602 2.84717896 1.63157705.58024476.56301946 1.62816696-.37396448 2.30016678.15798455.57982591.45907964-1.60595354.6967156-.58266638.70450912.50211321.00384701 1.79447444.06006812 2.28454808 0 1.85429153.06507587.39971976.02449154 1.94892512.07706877.6752058-2.14343705-1.96342438-2.76106088-3.34144094-4.80232822-.4598643-.68118245-1.0310927-1.34480462-1.31201596-2.05427174-.28096895-.70947126-.24095129-1.49206065.46228592-2.10862323 1.07571754-.94321047 3.58229323-1.23357703 5.40916256-.7400857 1.82686933.4934416 2.90383576 1.6301593 2.8898467 2.7403127 1.57806682-.72819228 2.81412918-1.6492617 3.68315603-2.66706192l-.6017195-1.63782845s.7062528.31475862 1.31159713.65028613c1.10797536-1.88371392 1.0267749-3.98067175-.46488269-5.78812113.77899282-.33507566 6.48631936 1.0123116 11.33754198 1.61153776v-.20464202l3.80758013.4145488c3.76351881.3717881 4.78271663.87975134 3.80758013-1.24364642-.31847362-.69352771 1.52303205 2.48729285 4.56909616 1.65819523 1.9084353-.51945038-.37057655-1.51078581.87269736-2.4547549.80827311-.61367733 1.05554498-1.39034696.87195108-2.1442993l-.00000761.00000828z"/>
      <rect width="148.557" height=".415" x="160.376" y="137.031" fill="rgb(63,61,86)" rx="0" ry="0"/>
      <g>
        <path fill="rgb(63,61,86)" fill-rule="evenodd" d="M228.54842861 114.44255733l-6.26721597-1.6161434c2.57053542 1.95286482 4.78550378 5.00279574 5.97132892 7.42974685 2.00776746-2.2607129 5.24434765-5.02686028 8.44806841-6.6791855l-6.62375777.92762343c4.0815279-10.88934319 19.43320362-18.70681754 37.0130067-18.70681754v-.82909761c-18.36255779 0-34.37405668 8.14488085-38.54143029 19.47387377z"/>
        <path fill="rgb(108,99,255)" fill-rule="evenodd" d="M257.39403124 131.03442976h-39.59883336c-1.6795769 0-3.0460641-.74387881-3.0460641-1.65819522 0-.91431642 1.3664872-1.65819523 3.0460641-1.65819523h39.59883336c1.6795769 0 3.0460641.74387881 3.0460641 1.65819523 0 .9143164-1.3664872 1.65819522-3.0460641 1.65819522z"/>
      </g>
    </g>
  </g>
</svg>
