<svg xmlns="http://www.w3.org/2000/svg" xmlns:xlink="http://www.w3.org/1999/xlink" width="250" height="160" viewBox="0 0 400 200">
  <defs>
    <rect id="rect-1" width="400" height="200" x="0" y="0"/>
    <mask id="mask-2" maskContentUnits="userSpaceOnUse" maskUnits="userSpaceOnUse">
      <rect width="400" height="200" x="0" y="0" fill="black"/>
      <use fill="white" xlink:href="#rect-1"/>
    </mask>
  </defs>
  <g>
    <use fill="none" xlink:href="#rect-1"/>
    <g mask="url(#mask-2)">
      <path fill="rgb(190,190,190)" fill-rule="evenodd" d="M312.47272462 32.24740918h-27.17806713v135.27413195c-.0000057 4.2864072-2.91665825 8.39725251-8.10832582 11.4281947-5.19166757 3.03094218-12.23307463 4.73370156-19.57518822 4.73368958H49.82337006v.1546577c-.00001367 4.286404 2.91662136 8.39725033 8.10827578 11.42819566 5.19165443 3.03094533 12.23305282 4.73370915 19.57516092 4.73370116H312.4727461c7.34211472.00000932 14.38352107-1.70275287 19.57518622-4.73369741 5.19166515-3.03094454 8.10831379-7.14179155 8.10831493-11.4281994V48.409306c-.0000114-4.2864082-2.91666627-8.39725363-8.10833385-11.42819723-5.19166758-3.0309436-12.23307348-4.73370624-19.57518879-4.73369959z"/>
      <path fill="rgb(242,242,242)" fill-rule="evenodd" d="M26.744 18.37044655h236.84504475c14.76041542 0 26.744 11.98358459 26.744 26.744v114.26457577c0 14.76041541-11.98358458 26.744-26.744 26.744H26.744c-14.76041542 0-26.744-11.98358459-26.744-26.744V45.11444655c0-14.76041541 11.98358458-26.744 26.744-26.744z"/>
      <path fill="rgb(150,150,150)" fill-rule="evenodd" d="M27.68359997 21.69421385c-12.1449143 0-21.99031327 5.7478518-21.99031565 12.83818721v135.42892762c0 7.0903368 9.84539898 12.83819084 21.99031565 12.83819222H177.6445489c59.0916598 0 106.99491077-27.96645074 106.99491077-62.4648134V34.53240105c0-7.0903364-9.84539967-12.83818972-21.99031564-12.83818972l-234.96554406.00000251z"/>
      <path fill="rgb(255,182,182)" fill-rule="evenodd" d="M296.68642063 112.5810155c-2.4308489.39321785-5.03481102.14397141-7.1233177-.68183078-2.08850667-.82580219-3.45122506-2.14499386-3.72781003-3.60873967l-41.05961636-7.23918053.63753053-7.1226724 48.65945138 8.80625835c4.35140492-.09055073 8.13110958 1.733284 8.79795078 4.2453074.66684119 2.5120234-1.98996005 4.91822085-6.1841886 5.60086265v-.00000501z"/>
      <path fill="rgb(108,99,255)" fill-rule="evenodd" d="M158.44688535 75.83933228c-4.15744168-2.02553005 1.9303663-12.0649012.28881637-14.97477974 0 0-.1471601-.26421015-.27993976-.5300407-.18578313-.3755255-.14418088-.77695943.11779769-1.13666903l15.43213324-4.23781722c4.02113639.95914585 7.72614914 2.31899661 10.94965123 4.01885029l23.84030694 15.89636978 23.6840683 12.48804831 10.39226368 2.70470505 34.43711506 8.9672045-.35685607.60096948-.00306771.00175585-3.78523415 6.41803257-.00005586.00355183 7.57225136 3.08171597-24.79055969-2.1801451-16.39543022-3.94835798-15.78731796-3.80106228c-23.30941174-8.18974208-61.6603601-12.43482602-65.31594245-23.37233158z"/>
      <path fill="rgb(242,242,242)" fill-rule="evenodd" d="M268.3221101 149.50721591c-.93206085.2476447-2.02985814.12886811-2.74801554-.29732255-.7181574-.42619067-.90360468-1.06895585-.4642132-1.6089753-.03382651-.14576307-.058162-.25043677-.0919928-.39620235 0 0-.06032314-.03607518-.12092985-.07198982-4.07461337-2.41300582-11.12222955-.74084042-11.19400292 2.6472938-.06376465 3.00716512-.62538857 6.13590273.67109495 8.99636916.5739859 1.2641753 1.51925272 2.46063914 2.7937606 3.5361799-8.07139971-4.47683084-14.39961604-9.91453116-18.5555959-15.94442487-1.04019256-1.51375914-1.93460282-3.0602872-2.67904351-4.632344 0 0-.91258086-1.9338095-1.53005953-3.90607962-2.22053318-7.13730667-1.50942608-14.48032999 2.07492272-21.42603549 2.72144201-1.92444359 4.36703623-4.28966665 4.71502686-6.77693817.13006513-.8952563.03747321-1.79679008-.27489565-2.67655879-.3722505.12201145-3.8590097-3.11678278-3.70979585-3.40045777-.8805503-.35696916-2.02611425-.36880358-2.9490755-.70223683-4.59020866-1.65827412-8.40571179-.28849605-8.34880009 3.41109822-3.64542538 2.41565465-2.15676712 4.65903792 2.1214884 6.1506619 2.72184545.94897878 4.23611097 2.74046918 6.80550728 3.83704716-.07845015.15802642-.16589723.31379533-.24430012.47182175-1.42671278 2.89855347-2.36341003 5.87176124-2.79666075 8.87699148-1.29640188-2.91734089-4.48969587-6.05024488-7.50056392-7.84691002-3.42894952-2.04748568-8.11628531-3.35087008-12.45110023-4.80026337-5.20679366-1.74094453-11.53091883 1.03015921-9.92116745 4.40475082 0 0 .02339455.0490183.0471629.0978911 0 0 .7861042.06115372 1.56291072.15458245 1.33444255.16430108 2.3592825.78998315 2.58078189 1.57561086.2214994.78562771-.40577118 1.5700692-1.57961109 1.97540346l-.05872913.02027003c.76963966.8637314 1.65063593 1.69205525 2.63537368 2.4778117 2.02989948 9.19864299 12.08391104 10.36962632 23.557742 7.84337826.30284881.01642722.59927003.0343419.89955381.04704672.2932926 4.08071093 1.494227 8.12183521 3.57259938 12.02173742 1.2384775 2.29795815 2.79321875 4.5336859 4.64902372 6.68532549l-.07353064-.07443547c-2.5252414-2.28457349-6.32358455-3.99037454-10.75358814-4.82933773-6.55581931-1.21137288-14.12188368-.45206845-20.74789524-1.10839735-3.1895818-.31595-5.65983162 1.63469558-4.02274148 3.26373984 0 0 .03918856.03901747.07875521.07794214.92265231.00301959 1.84408657.03958949 2.7589502.10949727 0 0 .78612567.06120388 1.562915.15458245 1.33440855.16432725 2.35920437.79000747 2.58069616 1.5756217.2214918.78561422-.4057454 1.5700437-1.57954254 1.97539261l-.05879358.02027003c-.04248828.01429763-.07856186.02712787-.12099.04144306 2.65211591 1.57209212 5.7479548 2.8659398 9.1519228 3.8248741 7.30304 6.73597171 17.69119192 5.10665907 26.84184295.50650982l.00644478-.00150501c3.19000722 2.67973396 6.84841128 5.1586623 10.91625868 7.39683821l17.97100278-4.20468184c-.01556629-.13164856-.04022831-.26556216-.06226946-.39571071-1.62152234.45024639-3.33136785.78289681-5.09137624.99052719.67766432-1.26714618 1.35011267-2.54179235 2.02780278-3.80890592.01747433-.02481243.03250234-.0501883.04501034-.07600318.340757-.64706805.69051522-1.29193376 1.03126793-1.93901685l-.00005156-.00067224c-.99261539-1.5069319-2.31339647-2.93299137-3.92977768-4.24301705l-.00070892-.0000878z"/>
      <path fill="rgb(47,46,65)" fill-rule="evenodd" d="M169.54529928 158.7403212l-.20623296-.15050136c-.59296273-2.22743013.20623296.15050135.20623296.15050135z"/>
      <path fill="rgb(47,46,65)" fill-rule="evenodd" d="M180.07177337 182.76785793h-57.57253922c-4.47296952-6.49162523-7.57777239-11.13459211-7.57777239-11.13459211s-.75394904 4.54764935-1.82982343 11.1345921H61.04247325c-.48711796-17.89962813-1.1690831-36.27835225-1.39358916-42.11529658l99.90483208 1.2993284 9.93709035 7.35700803c.03390814.12290944.0677905.25836066.1101413.41137037.40240347 1.49498517 5.81147299 17.54093073 10.47082555 33.04758979z"/>
      <path fill="rgb(108,99,255)" fill-rule="evenodd" d="M179.19901696 56.87501239l-.00954257-.01040968c-.31747838-.34413705-.82843-.61387233-1.4467715-.76376178-6.32113479-2.86328833-13.24221846-4.16853393-21.00962635-3.27586523-1.27176993-2.24748694-2.45760945-2.24748694-2.45760945-2.24748694l-16.84665506-3.24832097-2.4232373-8.64128628-41.50868004-.8202324-3.77234459 10.78343732S66.52334192 51.079175 66.52334192 52.83502417c0 1.75584918 3.86686803 1.75584918 0 1.75584918s-4.90232936-2.00668477-8.24931847 0c-.28674618.16859744-.5894066.32770804-.90656572.47658763-.03866868.02006685-.08163388.03762534-.12030256.05769219-7.68703723 3.52990054-11.760704 9.10437136-10.80574789 14.78675839l7.13651978 41.44556554 7.61773002 44.22482394 104.2507621 2.53343952 6.98184505-37.63286448 7.10184256-62.6144218c.06340035-.34305377-.05199273-.68929312-.33108983-.9934419z"/>
      <path fill="rgb(255,255,255)" fill-rule="evenodd" d="M8.06388496 168.01762622c.5952098.87420218 1.1958676 1.5147485 1.80187886 1.83150871l202.18563975.2508356c.60600696-.31676021 1.20666476-.95730653 1.80187027-1.83149367 7.07164232-10.3862542-6.26858406-21.6489004-25.4129321-21.67012109l-154.95306266-.171707c-19.11840135-.02121065-32.48545091 11.2187926-25.42339412 21.59097745z"/>
      <path fill="rgb(230,230,230)" fill-rule="evenodd" d="M212.05065918 170.350708l.16467285.00024415.12280274-.06420899c.63000488-.32946777 1.25622558-.95922851 1.91455078-1.9255371 3.4041748-4.91638184 2.34643554-10.50256348-2.8149414-14.86621094-5.16296388-4.46008301-13.77587892-7.1369629-22.99645997-7.14733887l-154.95318604-.17163086h-.05328369c-9.18756103-.00036621-17.77825927 2.65759277-22.93621826 7.09631348-5.16870117 4.35083008-6.23413086 9.92932129-2.8338623 14.8380127.65808105.96630859 1.28436279 1.5961914 1.91455078 1.92565917l.1218872.06359864 202.34948731.25109863zm-17.23937988-1.07922362l-171.43682862.30334472c-.35314941.00061035-.70562744-.01000976-.70562744-.01000976-3.42382812-.10302735-6.63726806-.99584961-8.93347168-2.48205567-2.29614258-1.48620605-3.4869995-3.44421387-3.31054687-5.44299316l.02124023-.2385254c.55651856-6.2392578 7.24945069-11.79736327 17.25848389-14.00842284 1.82244873-.43481446 3.76269531-.67687989 5.73028564-.71520997h.05157471l154.95318604.17175293c8.93603515.01013184 17.28308105 2.60437012 22.28674316 6.92687989.65722656.58935547 1.163208 1.23168945 1.50183105 1.9066162 3.5859375 6.74743653-5.3157959 13.56726075-17.41687011 13.58862305z"/>
      <path fill="rgb(242,242,242)" fill-rule="evenodd" d="M251.37276393 79.37938508c-2.2143405-5.42954718-1.8450589-10.77732697 1.94668019-16.01678843.08334937-.67493138 1.08676844-1.18311088 2.24303265-1.13597923l20.7194308.85830673c1.15607898.04865755 2.02652982.63446782 1.9457865 1.3095073l-1.94667588 16.01678843c-.08334498.67492608-1.08675152 1.18310396-2.24300688 1.13597672l-20.7194351-.85830423c-1.15608585-.04865368-2.02654794-.63446377-1.94581228-1.3095073z"/>
      <path fill="rgb(255,255,255)" fill-rule="evenodd" d="M253.55007272 74.60747615c-1.77210399-2.67556798-.6390472-6.35537634 1.25150754-10.29705205.07802597-.63210327 1.01777443-1.10804143 2.10066317-1.06388657l17.80659215.73764227c1.08273493.04554757 1.8979911.59417733 1.82239905 1.22639041l-1.73229243 14.252757c-.07807066.63211479-1.01786054 1.1080451-2.10077058 1.06387654l-11.0308125-.45695222c-4.82276761-.2029679-8.45403228-2.64673816-8.1172864-5.46277538z"/>
      <path fill="rgb(108,99,255)" fill-rule="evenodd" d="M265.87807765 75.30577988s-.8158619-.08184766-1.6317023-.16367775c.25057085-.34528924.39519525-.7136111.42726743-1.08814238.25741311-2.00458778.28337698-4.02831181.42071095-6.03700326-.00731654-.15006102-.16492656-.28361714-.40249372-.34106653-.23756717-.05744939-.51077646-.02807562-.69770328.07501273 0 0-2.04896314.9908006-4.09795206 1.98157613-.63939093.30918246.27687205.83894724.91143368.53210758 0 0 1.47065585-.711144 2.94132458-1.42229552 0 0-.13500096 1.97423166-.26997614 3.94850345-.04316284.6316818.08834935 1.39877969-.35462617 1.9925853-.0605732.080111-.13963626.1550069-.23498957.22260405 0 0-.90330896-.09061937-1.80656207-.1812237-.43308922-.04343218-.9833961.16764346-.79280247.46284686.41449388.64190836 1.63634254.84470141 2.68403606.59730979.09235222-.02421623.18170393-.0521575.26740682-.08362106l2.29398508.23010654c.81126892.08138612 1.15981122-.64365167.34264318-.72562223z"/>
      <path fill="rgb(242,242,242)" fill-rule="evenodd" d="M371.67532487 133.3090307c-2.2143405-5.4295547-1.8450589-10.77732696 1.94668019-16.0167809.08334035-.67493505 1.08676295-1.1831197 2.24303265-1.13598675l20.7194308.8582967c1.15608651.048655 2.026548.6344658 1.94581229 1.3095098l-1.94670167 16.0167784c-.08334035.67493505-1.08676295 1.18311971-2.24303266 1.13598676l-20.71943509-.85831176c-1.15606477-.04866167-2.02650765-.63445986-1.9457865-1.30949224z"/>
      <path fill="rgb(255,255,255)" fill-rule="evenodd" d="M373.85263366 128.53713684c-1.77210399-2.67556799-.6390472-6.35536883 1.25150754-10.29705206.07803957-.63209826 1.01778154-1.10802976 2.10066317-1.06387904l17.80661793.73764227c1.08273665.04554626 1.89799533.59417641 1.82240334 1.2263904l-1.7323225 14.25274196c-.07808689.63210381-1.01785015 1.1080265-2.1007448 1.06387653l-11.0308125-.45695222c-4.82277253-.20296008-8.45405024-2.646728-8.11731218-5.46276784z"/>
      <path fill="rgb(108,99,255)" fill-rule="evenodd" d="M385.47686861 125.81963416c.23664374-.06457835.46065332-.14388388.66813464-.23653797 1.12799105-.5430803 1.60201363-1.42316465 1.20939306-2.24539497-.8354927-1.7919695-4.50709678-1.80291346-7.0419233-1.58727511-.81773947.06956925-.47006507.79476255.34266466.72562473 1.70829637-.1453216 4.39018417-.26276282 5.30813138.82652838.42849822.52334362.2735192 1.1459305-.39241406 1.57641894-.38932218.22805036-.9019303.37033113-1.45065125.40264632-.53152586-.13495902-1.10855022-.19779857-1.68767307-.18379226-.59724636.01645732-.93008058.52356412-.32528094.70112562.53519175.15564925 1.12485836.23682006 1.72277994.23715001 1.0137825.2855287 1.63487813.89845061 1.5753964 1.55466398-.11487315.44217494-.52591619.83959812-1.14270362 1.10484028-.61678743.26524216-1.38879479.37657586-2.14618794.30950877l-.01586705-.00142475c-.80994988-.09511937-1.15652437.63005888-.34266465.72562223 2.27355348.25008398 4.46389325-.62318842 4.8922712-1.95051265 0 0 .0166791-.05176243.02958154-.10390864.10361348-.69309014-.33918826-1.3759924-1.20298694-1.85528291z"/>
      <path fill="rgb(242,242,242)" fill-rule="evenodd" d="M348.47411669 47.52326437c-2.2143405-5.42954717-1.8450589-10.77732697 1.94668019-16.01678842.0833448-.67493272 1.08676682-1.18311371 2.24303265-1.13597923l20.7194308.85830673c1.15607653.04865625 2.02652728.63446422 1.9457865 1.30950228l-1.94667588 16.01678592c-.08334498.67492608-1.08675152 1.18310396-2.24300688 1.13597672l-20.7194351-.85830422c-1.15607703-.04865776-2.02653322-.6344605-1.94581228-1.30949978z"/>
      <path fill="rgb(255,255,255)" fill-rule="evenodd" d="M350.65142548 42.75135545c-1.77210399-2.67556798-.6390472-6.35537634 1.25150754-10.29705205.0780442-.63208929 1.0177701-1.10801402 2.10063739-1.06386902l17.80659215.73763977c1.08273853.04554753 1.89799606.59418045 1.82239905 1.22639543l-1.73226665 14.25276452c-.07807066.63211479-1.01786054 1.1080451-2.10077058 1.06387654l-11.0308125-.45695222c-4.82278624-.202969-8.45405715-2.64675582-8.1172864-5.46280297z"/>
      <path fill="rgb(108,99,255)" fill-rule="evenodd" d="M361.60153644 35.57890974c-1.82533787-.36980692-3.8550655.47295052-4.0622351 1.5655954-.23477904 1.2384556 2.0470383 2.21613248 4.0224837 1.87955125.79465856-.13539855.45653102-.86180338-.34264318-.72563728-1.4480046.24671687-2.99259066-.66606633-2.16008834-1.48215493.3872827-.40330748 1.16176149-.6245361 1.94486705-.55554817.65846752.10647745 1.19150198.38887715 1.4367563.7611882.7104296.93470876-.13384519 1.88365493-1.25295117 2.56303813-.63823516.38746073-1.38708423.68857381-2.07499146 1.04175535-.67628656.29831829-1.10487468.7497249-1.1798244 1.24263954.03695356.55868832.6015712 1.05932714 1.46604568 1.29992287 1.09891233.32994162 2.3489075.22503715 3.51793474.11522133.81679424-.07673312.47014241-.80198913-.34266895-.72562223-1.02244287.09603742-2.55326289.24157224-3.20114803-.3808462-.554844-.53301059.58825374-1.00103218 1.21109877-1.28458427 1.56535544-.71260887 3.1483309-1.63284943 3.38337633-2.84447566.19256574-.9925715-.67146444-2.12671963-2.36601194-2.47004333z"/>
      <path fill="rgb(108,99,255)" fill-rule="evenodd" d="M47.17407136 108.89527488l10.2085316 2.68394088c-4.79921288 2.2725705-12.10759345 5.33025642-19.26559583 6.74495664l-11.37288853-4.52758251c-4.23636875-9.53676936-1.64127065-19.36450802 3.45010559-27.67469132 2.8208492-4.6177182 6.56156763-9.02587476 11.14517297-13.1337518-.9540649-5.68230336 3.11942715-11.25653038 10.80574788-14.78674585.0429652-.02006685.08163388-.03762534.12030256-.05769219 7.61015607 3.8555132 12.24312326 9.33648452 12.85518794 15.20816219l.22771556 2.19731982.4554569 4.32942239 1.15573812 11.05683308-13.70589891 12.44144556-6.07957585 5.51838311z"/>
      <path fill="rgb(47,46,65)" fill-rule="evenodd" d="M76.54346252 156.09832505c.24176184.17698255.60904907.27957447.99679265.2784275h69.74970623c.38631273-.0002714.75186624-.10211745.99522129-.2772764.24335504-.17515895.33862119-.4049957.25936256-.62573174l-1.08272305-3.00250208c-.0911766-.24877708-.39198464-.45366131-.79915273-.54431325-.14508264-.03323955-.29957672-.05025754-.45543112-.05016712H78.6186817c-.1558545-.00009096-.31034874.01692705-.45543112.05016712-.40717797.09064375-.7079915.29553173-.79915273.54431325l-1.08272305 3.00250208c-.07802711.22061055.0182324.45000635.26208772.62458064z"/>
      <path fill="rgb(63,61,86)" fill-rule="evenodd" d="M49.84057762 88.88442875v46.97147373c.00169405 1.24638418 1.73195788 2.25653135 3.86686803 2.25752036H172.9358766c2.13491603-.00098072 3.86518817-1.01113275 3.86686803-2.25752036V88.88442875c-.00508447-1.24515607-1.73405714-2.25342792-3.86686803-2.255012H53.70744565c-2.13280795.00158821-3.8617765 1.00985764-3.86686803 2.255012z"/>
      <path fill="rgb(47,46,65)" fill-rule="evenodd" d="M98.4041748 154.62341309v-25.72570801c.00158692-.48059082.66906739-.86877442 1.49084473-.86779785h27.8930664c.15026856-.00097657.2998047.01257324.44250489.04003906.62158203.11218262 1.04516602.44799805 1.04406738.82775879v25.725708H98.4041748zm15.34277344-18.79211426c-1.8079834 0-3.27844238.8503418-3.29541015 1.90588379v2.98498535c.00927734 1.05871582 1.48193359 1.9140625 3.29541015 1.9140625s3.28613281-.85534668 3.29541016-1.9140625v-2.98498535c-.01696777-1.055542-1.48742676-1.9058838-3.29541016-1.9058838z"/>
      <ellipse cx="116.421" cy="21.221" fill="rgb(255,182,182)" rx="26.865" ry="15.684"/>
      <path fill="rgb(47,46,65)" fill-rule="evenodd" d="M141.0147705 17.92437744c1.88354493 1.3869629 4.67578126 1.07751465 7.5720215.55255127-3.09509278-1.42010498-2.88684083-1.90081787-3.39794923-4.17749023-.0234375-.01239014-.04882812-.02349854-.07568359-.03320313-1.3959961-.6208496-3.09179688-.96887207-4.84606934-.9946289 1.43310547-.52886963 3.10388184-.79632569 4.79870606-.76806641.00939941-1.3538208-.00939942-2.76293945-1.74157715-3.56414795-1.4954834-.69073486-3.60620117-.57470703-5.4802246-.76812744-2.953125-.30944824-7.46887208-.93591309-7.56262208-2.68554688-.14086914-2.62731933-2.81518555-3.45654297-6.34155273-3.7078247-2.14489746-.15283203-4.24353028-.52038575-6.3076172-.88183594C113.58007813.1864624 109.66113282-.4998169 105.7857666.506958c-5.9329834 1.59802246-9.94299316 4.93041992-10.50634765 8.73077392-1.91186524-.55255127-5.53173829-.24145507-5.65063477 1.0001831-.20043945 2.09417726-.90039063 2.91241456-2.01599121 3.49230958-6.95373535 3.61505127-.12158203 10.53118896 5.56347656 15.61218262.41625977.44787597.90917969.88879394 1.45959473 1.2913208-.47094727-.41400147-.96081543-.84558106-1.45959473-1.2913208-1.5592041-1.67779541-2.04199219-3.45379639-.4333496-3.68188477 2.75927734-.39129639 5.9534912-.33709717 5.4991455.8067627l.17980957-.25421143c.32128906-.30767822.63183594-.60205078.93066406-.8852539 2.90942383-2.7578125 4.696167-4.45141602 4.26391602-6.94030762 3.24621582 1.93615722 11.65393066.50848388 19.40515137-2.09326172.74682617-.25067139 1.58068847-.41998291 2.35681152-.64654541-.83703613-.90130615-2.13830567-1.6262207-3.71972656-2.07214356 2.16357421-.17871093 4.36206054.13372803 6.14282226.87304688.23657227.0994873.4543457.20446777.67199707.3149414.38806153-.09942626.78564453-.19891357 1.19262696-.28729248 2.28112792-.50286865 4.89343261-.73492431 7.15563964-.1934204 2.80163575.66864013 2.30944825 2.2545166 4.19299317 3.64154052z"/>
      <path fill="rgb(63,61,86)" fill-rule="evenodd" d="M167.9619801 94.95142192c10.49733937-1.9044542 21.73508516.15511172 32.29003658-1.60276671 2.4275852-.38771125 4.72245082-1.01694436 6.78369814-1.86003374 1.75828495-.77833798 3.40917733-1.63607232 4.9374577-2.56529564 3.17512831-1.83338496 6.6231286-3.75849047 11.39340872-3.73725724 6.28172282.02796315 11.10497472 2.75214308 15.29201083 5.15757868.5917683.33997505 1.50385935-.19174876.91143798-.53210005-3.84743916-2.2103432-8.00426214-4.54220874-13.4807011-5.20200669-2.45672462-.3180759-5.02091771-.19371481-7.35406548.35666564-2.02420457.5369472-3.87326917 1.27508494-5.46474383 2.18149962-1.68638411.902963-3.24195208 1.88605794-4.95135265 2.7747233-1.78456693.9477787-3.84029062 1.70528948-6.07356072 2.23803797-4.8386979 1.12484213-10.14638673 1.26053917-15.29274124 1.2278001-6.46038501-.04109188-13.07474012-.29795255-19.33348085.83752-.78960156.14325471-.4526255.86991038.34266896.72563226l-.00007305.0000025z"/>
      <path fill="rgb(63,61,86)" fill-rule="evenodd" d="M240.96062884 85.27224567l3.22689707 3.32099556 1.56141983 1.6069306c.27747356.28556378.56260782.56908576.83273862.85702496.1659445.17686668.52847197.49590197.18230994.66349527-.30410074.0867568-.64597622.11790362-.98089552.0893652-.5687948.00070233-1.13801067-.00672993-1.7067797-.01009865l-3.20020709-.01893056-6.61376648-.0391153c-.34724988.00702377-.62253597.17340343-.62253597.3762534 0 .20284995.27528609.36922962.62253597.37625339 3.83946483.02270312 7.68113377.07005085 11.52077905.06813698.66993051.0374093 1.34014613-.0696346 1.88416152-.30092998.54629148-.31738537.68389265-.803119.34172372-1.20628844-.37854964-.48227925-.81401415-.94862767-1.30325053-1.39567936l-1.40525851-1.44624029-3.22690137-3.32099055c-.1856087-.17156241-.57070046-.22640017-.87077157-.12399942-.30007111.10240075-.40717978.32520433-.24219468.50380465l-.0000043.00001254z"/>
      <path fill="rgb(230,230,230)" fill-rule="evenodd" d="M283.61190394 93.40975876h-29.65917855c-.44184259.0010722-.85104963-.13565533-1.07327333-.35861068-.2222237-.22295536-.22364981-.49821296-.00374042-.72194906.2199094-.2237361.6276922-.36190634 1.0695378-.3623946h29.6666545c.44184395-.00107296.85105272.13565472 1.07327703.35861079.22222431.22295607.2236496.49821462.00373828.721951-.21991133.22373637-.62769668.36190592-1.06954366.36239255 0 0-.00373798.00001254-.00747165 0z"/>
      <path fill="rgb(230,230,230)" fill-rule="evenodd" d="M283.61190394 105.03054801h-29.65917855c-.68251794.00120524-1.2374816-.32083462-1.23954603-.71929615-.00206442-.39846153.54955214-.72245546 1.23207009-.7236607h29.66665449c.68251794-.00120454 1.23748064.32083588 1.23954388.71929741.00206324.39846153-.54955429.7224549-1.23207223.72365944 0 0-.00373798.00001254-.00747165 0z"/>
      <path fill="rgb(230,230,230)" fill-rule="evenodd" d="M312.72738366 99.2201421H253.9527082c-.44184258.0010722-.85104963-.13565533-1.07327333-.35861068-.2222237-.22295536-.2236498-.49821296-.00374042-.72194906.2199094-.2237361.6276922-.36190634 1.0695378-.3623946h58.7821514c.44184395-.00107296.85105273.13565472 1.07327704.35861079.22222431.22295607.2236496.49821462.00373828.721951-.21991133.22373637-.62769668.36190592-1.06954367.36239255 0 0-.00373797.00002257-.00747164 0z"/>
      <path fill="rgb(63,61,86)" fill-rule="evenodd" d="M273.3766179 86.59593772c6.52528825-5.1645444 17.66904766-7.39135245 24.38946666-12.45772229 1.56249582-1.15186998 2.77301219-2.45243368 3.57832663-3.84450952.62690313-1.23514176 1.08674313-2.49711075 1.3752817-3.77427556.69800405-2.57514595 1.52276833-5.31855243 5.38767285-6.95108079 5.08947718-2.14978647 11.7394848-1.6229063 17.55350134-1.13281117.34524937.02381544.66068808-.1164359.7131335-.31707561.0524454-.20063972-.17698374-.38943403-.5186859-.42682-5.34248205-.4503427-11.05752395-.89161017-16.13924591.47064785-2.30208212.59329819-4.24184733 1.58023142-5.56321148 2.83050663-1.0860896 1.13261175-1.82693688 2.36675585-2.1895066 3.6474004-.44254157 1.31068873-.69839504 2.64069431-1.17398973 3.94782118-.4761802 1.38074366-1.36387123 2.7019614-2.62265169 3.903491-2.7572058 2.5795707-6.8958588 4.52437934-11.07541896 6.27769507-5.2467427 2.20098955-10.836468 4.2813924-14.72698838 7.36059499-.49083015.3884716.51794979.85740121 1.0122945.4661303l.00002148.00000752z"/>
      <path fill="rgb(63,61,86)" fill-rule="evenodd" d="M322.37008505 53.55349257l5.9693916 1.55976848 2.8884301.75472668c.51330526.1341218 1.0306793.26394929 1.54049578.4025184.31313898.08511353.92890763.21678466.82007248.47152576-.07413215.17352054-.47226488.31319082-.69959806.4111973-.45757938.19726715-.92371313.38811792-1.3853828.5820941l-2.5975815 1.09143334-5.36831273 2.25563158c-.27255697.12575805-.325488.35496469-.11970852.51837242.20577948.16340773.59630052.20227843.88320013.08790975 3.11644644-1.3094471 6.25966878-2.59982316 9.35127703-3.929159.57769655-.20153517 1.00906345-.5195461 1.21269708-.89402071.11814082-.44463312-.26382936-.8835768-.9485857-1.09007381-.79431596-.25765576-1.61832116-.4827972-2.4660693-.6737996l-2.59957078-.6792628-5.96939589-1.55973837c-.32365943-.0741514-.6897439.01482248-.8276578.20115556-.13791388.18633307.00198758.40295117.31629458.48973848l.0000043-.00001756z"/>
      <path fill="rgb(108,99,255)" fill-rule="evenodd" d="M375.98708466 57.54026852h-29.65917855c-.44184259.0010722-.85104963-.13565533-1.07327333-.35861068-.2222237-.22295536-.22364981-.49821296-.00374042-.72194906.2199094-.2237361.6276922-.36190634 1.0695378-.3623946h29.6666545c.44184395-.00107296.85105272.13565472 1.07327703.3586108.22222432.22295606.22364961.49821461.00373828.72195098-.21991133.22373638-.62769668.36190593-1.06954366.36239256 0 0-.00373797.00001254-.00747165 0z"/>
      <path fill="rgb(63,61,86)" fill-rule="evenodd" d="M296.14817409 109.37491519c6.52528824 5.16454188 17.66904765 7.39135244 24.38946665 12.45771225 1.56249826 1.15186719 2.77301492 2.4524295 3.57832663 3.8445045.62690313 1.23514176 1.08674313 2.49711076 1.3752817 3.77427556.69800404 2.57515348 1.52276833 5.31855995 5.38767285 6.95107326 5.08947718 2.14978648 11.7394848 1.62290631 17.55350134 1.13280115.34531032-.02387932.6608646.11638114.71332057.31706326.05245597.20068211-.1770798.38950486-.51887296.42683987-5.34248206.45035273-11.05752396.89161268-16.13924592-.47065287-2.3020808-.59329819-4.24184562-1.58023035-5.56321148-2.83050411-1.08608856-1.13261203-1.82693578-2.36675603-2.1895066-3.6474004-.44254157-1.31068623-.69839504-2.64069432-1.17398973-3.94781366-.47618097-1.38074353-1.36387195-2.7019612-2.62265169-3.903491-2.7572058-2.57956067-6.89588458-4.5243643-11.07541896-6.27766247-5.2467427-2.20099456-10.836468-4.2813974-14.72698838-7.36059247-.49083015-.3884716.51794979-.85741125 1.0122945-.46613782l.00002148-.00001505z"/>
      <path fill="rgb(63,61,86)" fill-rule="evenodd" d="M345.14164123 142.41736033l5.96939159-1.55976095 2.88843011-.75472669c.51330525-.13412931 1.0306793-.26394175 1.54049578-.40252591.31313897-.085106.92890763-.21678717.82007248-.47152577-.07413215-.17352054-.47226489-.31319333-.69959806-.41120483-.45757938-.19726714-.92371314-.38812042-1.3853828-.5820941l-2.5975815-1.09143584-5.36831273-2.25562405c-.27255697-.12575805-.325488-.3549647-.11970852-.51837243.20577948-.16340773.59630051-.20227843.88320013-.08790975 3.11644643 1.30944459 6.25966878 2.59981564 9.35127703 3.92916403.5777041.20153477 1.00907284.51955064 1.21269708.89403074.11813656.44463404-.2638366.88357716-.94859429 1.0900738-.79431596.25765577-1.61832117.4827972-2.4660693.6737996l-2.59957078.6792628-5.9693959 1.55973085c-.32362075.07406548-.6895642-.01491778-.82744417-.20120233-.13787998-.18628456.00190921-.40284998.31608096-.48968168l.00001289.00000251z"/>
      <path fill="rgb(108,99,255)" fill-rule="evenodd" d="M398.75864084 140.56685082h-29.65917855c-.68201323.00135539-1.2369742-.32010332-1.2400069-.71826856-.0030327-.39816525.5470095-.72249259 1.2290164-.72467825.00367353-.00001505.00730409-.00001505.0109905 0h29.65917855c.68198896-.00133035 1.2369051.32012648 1.2399294.7182775.0030243.398151-.54698663.72246842-1.22896898.72466931-.00359619.0000276-.0072912.0000276-.01096042 0z"/>
      <path fill="rgb(255,182,182)" fill-rule="evenodd" d="M60.6527531 112.52243536c-1.13649606 1.31468335-3.203797 2.27205254-5.65524613 2.61895027-2.45144912.34689774-5.0401628.0483882-7.08160705-.81659367l-30.88995109 8.58196618-2.07017936-5.05450281 31.45821312-10.82286367c2.81187168-1.94086148 7.66585863-2.34716238 11.2985501-.94574032 3.6326915 1.40142207 4.89585134 4.16759982 2.9402376 6.43878904l-.00001719-.00000502z"/>
      <path fill="rgb(108,99,255)" fill-rule="evenodd" d="M48.74936895 86.45491795L27.0132741 112.3837935l9.18595983-2.43059692 6.39322181-1.69314028 3.20520395 7.1086808s-2.1224809 1.20401086-5.46947 2.78678347c-4.79921288 2.2725705-12.10759346 5.33025641-19.26559584 6.74496918-5.60266212 1.10869333-11.10650428 1.21153593-15.23975656-.85534939-7.84544558-3.92306872-.17615732-19.5024676 7.23533974-31.36448293 4.96248064-7.94396333 9.80465872-14.21736159 9.80465872-14.21736159 0-8.3779089 27.84945423-20.42468473 33.01815494-22.0726746 2.95170926-.93812512 3.7678934.42817637 3.7678934.42817637l-16.19713294 13.8435137 4.84217808 11.46318675 1.3705899 3.23828754-.91515018 1.09113234z"/>
    </g>
  </g>
</svg>
